<svg width="31" height="31" viewBox="0 0 31 31" fill="none" xmlns="http://www.w3.org/2000/svg">
<path d="M28.4049 0.281982H1.71899C1.28019 0.281982 0.859357 0.456296 0.549077 0.766576C0.238797 1.07686 0.0644836 1.49769 0.0644836 1.93649V28.6249C0.0644836 29.0637 0.238797 29.4846 0.549077 29.7948C0.859357 30.1051 1.28019 30.2794 1.71899 30.2794H16.0801V18.6648H12.1755V14.1366H16.0801V10.797C16.0801 6.92291 18.4473 4.81278 21.904 4.81278C23.0704 4.80862 24.2362 4.8681 25.3962 4.99096V9.04068H23.0061C21.1251 9.04068 20.7611 9.93411 20.7611 11.245V14.1366H25.2435L24.6606 18.6648H20.7611V30.282H28.3973C28.8358 30.2813 29.2563 30.1068 29.5664 29.7966C29.8766 29.4865 30.0511 29.0661 30.0518 28.6275V1.93903C30.0524 1.50111 29.8795 1.08078 29.5708 0.770169C29.2621 0.459557 28.8428 0.284003 28.4049 0.281982Z" fill="white"/>
</svg>
