<svg width="31" height="31" viewBox="0 0 31 31" fill="none" xmlns="http://www.w3.org/2000/svg">
<path d="M8.73003 0.281982H21.33C26.13 0.281982 30.03 4.18198 30.03 8.98198V21.582C30.03 23.8894 29.1134 26.1022 27.4819 27.7338C25.8503 29.3654 23.6374 30.282 21.33 30.282H8.73003C3.93003 30.282 0.0300293 26.382 0.0300293 21.582V8.98198C0.0300293 6.6746 0.946634 4.46172 2.5782 2.83015C4.20977 1.19859 6.42265 0.281982 8.73003 0.281982ZM8.43003 3.28198C6.99786 3.28198 5.62435 3.85091 4.61165 4.86361C3.59896 5.8763 3.03003 7.24981 3.03003 8.68198V21.882C3.03003 24.867 5.44503 27.282 8.43003 27.282H21.63C23.0622 27.282 24.4357 26.7131 25.4484 25.7004C26.4611 24.6877 27.03 23.3142 27.03 21.882V8.68198C27.03 5.69698 24.615 3.28198 21.63 3.28198H8.43003ZM22.905 5.53198C23.4023 5.53198 23.8792 5.72953 24.2309 6.08116C24.5825 6.43279 24.78 6.9097 24.78 7.40698C24.78 7.90426 24.5825 8.38118 24.2309 8.73281C23.8792 9.08444 23.4023 9.28198 22.905 9.28198C22.4077 9.28198 21.9308 9.08444 21.5792 8.73281C21.2276 8.38118 21.03 7.90426 21.03 7.40698C21.03 6.9097 21.2276 6.43279 21.5792 6.08116C21.9308 5.72953 22.4077 5.53198 22.905 5.53198ZM15.03 7.78198C17.0192 7.78198 18.9268 8.57216 20.3333 9.97868C21.7399 11.3852 22.53 13.2929 22.53 15.282C22.53 17.2711 21.7399 19.1788 20.3333 20.5853C18.9268 21.9918 17.0192 22.782 15.03 22.782C13.0409 22.782 11.1333 21.9918 9.72673 20.5853C8.32021 19.1788 7.53003 17.2711 7.53003 15.282C7.53003 13.2929 8.32021 11.3852 9.72673 9.97868C11.1333 8.57216 13.0409 7.78198 15.03 7.78198ZM15.03 10.782C13.8366 10.782 12.692 11.2561 11.848 12.1C11.0041 12.9439 10.53 14.0885 10.53 15.282C10.53 16.4755 11.0041 17.62 11.848 18.464C12.692 19.3079 13.8366 19.782 15.03 19.782C16.2235 19.782 17.3681 19.3079 18.212 18.464C19.0559 17.62 19.53 16.4755 19.53 15.282C19.53 14.0885 19.0559 12.9439 18.212 12.1C17.3681 11.2561 16.2235 10.782 15.03 10.782Z" fill="white"/>
</svg>
