<svg width="31" height="31" viewBox="0 0 31 31" fill="none" xmlns="http://www.w3.org/2000/svg">
<path fill-rule="evenodd" clip-rule="evenodd" d="M25.8006 5.18129C24.4227 3.79484 22.7834 2.69557 20.9777 1.94713C19.1719 1.19868 17.2356 0.815952 15.2809 0.821096C7.08691 0.821096 0.410995 7.49079 0.410995 15.6848C0.404784 18.2939 1.08911 20.8582 2.39448 23.1173L0.28656 30.821L8.17074 28.7505C10.3508 29.938 12.7934 30.5613 15.276 30.5635H15.2822C23.4774 30.5635 30.1459 23.895 30.1509 15.6948C30.1509 11.7241 28.6054 7.99102 25.8006 5.18004V5.18129ZM15.2809 28.0511H15.276C13.063 28.0511 10.8906 27.4568 8.98579 26.3302L8.53409 26.0627L3.85286 27.2883L5.10218 22.7278L4.811 22.2612C3.57238 20.2916 2.91663 18.0115 2.9196 15.6848C2.9196 8.87575 8.46565 3.33468 15.2859 3.33468C16.9091 3.33062 18.5169 3.64857 20.0163 4.27013C21.5157 4.89169 22.877 5.8045 24.0212 6.95572C25.1711 8.10142 26.0826 9.4636 26.703 10.9636C27.3235 12.4635 27.6406 14.0716 27.6361 15.6948C27.6361 22.5101 22.0912 28.0511 15.2809 28.0511ZM22.0564 18.7957C21.6868 18.6115 19.8589 17.7131 19.5192 17.5912C19.1795 17.4642 18.9306 17.4057 18.683 17.7753C18.4341 18.1486 17.7248 18.9861 17.5071 19.2337C17.293 19.4763 17.074 19.5112 16.7045 19.3258C16.3312 19.1416 15.1353 18.7472 13.7155 17.4792C12.6118 16.4961 11.864 15.2767 11.6499 14.9071C11.4309 14.5338 11.625 14.3347 11.8105 14.148C11.9797 13.9838 12.1838 13.7163 12.3692 13.4973C12.5533 13.2845 12.618 13.1289 12.7425 12.8801C12.8644 12.6324 12.8022 12.4134 12.7089 12.2293C12.6168 12.0451 11.8739 10.2122 11.5628 9.46806C11.2605 8.74385 10.9543 8.84589 10.7266 8.8322C10.5126 8.82224 10.265 8.82224 10.0173 8.82224C9.76848 8.82224 9.36531 8.91433 9.02436 9.28887C8.68465 9.65845 7.72651 10.5581 7.72651 12.3848C7.72651 14.2128 9.05796 15.981 9.24461 16.2298C9.42877 16.4725 11.864 20.2242 15.5908 21.8344C16.2814 22.133 16.9875 22.3943 17.7062 22.6171C18.5959 22.8983 19.4072 22.8597 20.0493 22.7664C20.7635 22.6606 22.2455 21.868 22.5566 20.9982C22.864 20.1334 22.864 19.3892 22.7707 19.2337C22.6786 19.0781 22.431 18.9848 22.0564 18.7957Z" fill="white"/>
</svg>
