<svg width="129" height="42" viewBox="0 0 129 42" fill="none" xmlns="http://www.w3.org/2000/svg">
<path d="M95.6598 6.71866V3.60322V0.487793H91.531H87.4023V3.60322V6.71866H91.531H95.6598Z" fill="url(#paint0_linear_1451_41)"/>
<path d="M128.517 6.71866V3.60322V0.487793H124.389H120.26V3.60322V6.71866H124.389H128.517Z" fill="url(#paint1_linear_1451_41)"/>
<path d="M95.6598 32.3954V20.5481V8.70947H91.531H87.4023V25.3337V41.9667L92.2708 41.9234L97.1392 41.8802L102.55 36.4368L107.96 30.9935L113.37 36.4368L118.781 41.8802L123.649 41.9234L128.518 41.9667V25.3337V8.70947H124.389H120.26V20.5394V32.3781L114.11 26.1905L107.96 20.0029L101.81 26.1992L95.6598 32.3954Z" fill="url(#paint2_linear_1451_41)"/>
<path d="M68.7516 2.5561C66.3518 1.39646 64.0724 0.782029 61.3973 0.57433C60.8038 0.531064 57.4492 0.487793 53.9398 0.487793H47.5488V4.6417V8.78699L54.2838 8.81294L61.0102 8.84752L61.879 9.07252C65.5432 10.0504 68.4076 12.3957 70.0418 15.7447C70.9622 17.6313 71.3148 19.1977 71.3148 21.3006C71.3148 23.2824 70.9364 24.9439 70.0934 26.692C68.3301 30.3094 65.053 32.7931 61.0962 33.5113C60.5716 33.6066 59.5909 33.6671 58.0685 33.6931L55.8063 33.745V22.3477V10.9591H51.6776H47.5488V26.4064V41.8538L53.7247 41.8711C61.4145 41.9057 61.5952 41.8971 62.8337 41.724C67.2033 41.0923 71.3148 38.998 74.4716 35.796C77.7316 32.4815 79.8218 28.0853 80.312 23.4901C80.4496 22.2699 80.4239 19.9939 80.2777 18.7477C79.4089 11.7466 75.0307 5.58499 68.7516 2.5561Z" fill="url(#paint3_linear_1451_41)"/>
<path d="M66.093 19.8906C65.8005 19.3108 65.3102 18.8175 64.7339 18.5233C64.364 18.333 64.1404 18.281 63.5469 18.2637C62.7126 18.2291 62.4803 18.2897 61.8266 18.6791C60.2009 19.6656 59.9428 21.9676 61.3019 23.3436C62.1706 24.2176 63.392 24.4686 64.5361 24.0273C65.2328 23.759 65.9467 23.0234 66.2134 22.3225C66.48 21.6128 66.4284 20.5484 66.093 19.8906Z" fill="url(#paint4_linear_1451_41)"/>
<path fill-rule="evenodd" clip-rule="evenodd" d="M19.6055 0.535904C16.2961 0.742363 13.284 1.61423 10.5692 3.15151C7.47107 4.92728 5.03412 7.38313 3.25835 10.5191C1.52036 13.655 0.651367 17.2065 0.651367 21.1737C0.651367 25.1408 1.52036 28.6924 3.25835 31.8283C5.03412 34.9642 7.47107 37.4201 10.5692 39.1958C13.284 40.7331 16.2961 41.605 19.6055 41.8114V32.884C18.0269 32.7102 16.5827 32.2449 15.2731 31.4882C13.6107 30.4681 12.3072 29.0702 11.3627 27.2944C10.4181 25.4809 9.94582 23.4406 9.94582 21.1737C9.94582 18.9067 10.4181 16.8854 11.3627 15.1096C12.3072 13.2961 13.6107 11.8792 15.2731 10.8591C16.5827 10.0733 18.0269 9.59019 19.6055 9.40968V0.535904ZM21.5955 32.9516V41.8557C24.8662 41.7984 27.8594 41.0818 30.575 39.7059C33.4464 38.2324 35.7511 36.1921 37.4891 33.5852C39.2649 30.9782 40.285 28.0501 40.5495 24.8008H31.3684C31.0283 26.4632 30.3672 27.9178 29.3848 29.1646C28.4403 30.3737 27.2501 31.3182 25.8144 31.9983C24.5601 32.5746 23.1538 32.8923 21.5955 32.9516ZM21.5955 9.3397V0.491699C24.8662 0.550552 27.8594 1.28603 30.575 2.69812C33.4464 4.13385 35.7511 6.15521 37.4891 8.76219C39.2649 11.3692 40.285 14.2973 40.5495 17.5466H31.3684C31.0283 15.8842 30.3672 14.4484 29.3848 13.2394C28.4403 11.9926 27.2501 11.0291 25.8144 10.349C24.5601 9.73887 23.1538 9.40243 21.5955 9.3397Z" fill="url(#paint5_linear_1451_41)"/>
<defs>
<linearGradient id="paint0_linear_1451_41" x1="87.7688" y1="1.03239" x2="93.1989" y2="8.5033" gradientUnits="userSpaceOnUse">
<stop offset="0.0116797" stop-color="#FEEA51"/>
<stop offset="1" stop-color="#F9DD04"/>
</linearGradient>
<linearGradient id="paint1_linear_1451_41" x1="120.626" y1="1.03239" x2="126.056" y2="8.50321" gradientUnits="userSpaceOnUse">
<stop offset="0.0116797" stop-color="#FEEA51"/>
<stop offset="1" stop-color="#F9DD04"/>
</linearGradient>
<linearGradient id="paint2_linear_1451_41" x1="89.227" y1="11.6163" x2="118.773" y2="49.5375" gradientUnits="userSpaceOnUse">
<stop offset="0.0116797" stop-color="#FEEA51"/>
<stop offset="1" stop-color="#F9DD04"/>
</linearGradient>
<linearGradient id="paint3_linear_1451_41" x1="49.0069" y1="4.10626" x2="86.2369" y2="34.7788" gradientUnits="userSpaceOnUse">
<stop offset="0.0116797" stop-color="#FEEA51"/>
<stop offset="1" stop-color="#F9DD04"/>
</linearGradient>
<linearGradient id="paint4_linear_1451_41" x1="60.6902" y1="18.7785" x2="66.171" y2="24.4424" gradientUnits="userSpaceOnUse">
<stop offset="0.0116797" stop-color="#FEEA51"/>
<stop offset="1" stop-color="#F9DD04"/>
</linearGradient>
<linearGradient id="paint5_linear_1451_41" x1="2.42203" y1="4.10707" x2="40.3204" y2="42.0577" gradientUnits="userSpaceOnUse">
<stop offset="0.0116797" stop-color="#FEEA51"/>
<stop offset="1" stop-color="#F9DD04"/>
</linearGradient>
</defs>
</svg>
