<svg width="142" height="143" viewBox="0 0 142 143" fill="none" xmlns="http://www.w3.org/2000/svg">
<path d="M79.1796 57.1282V54.0421V50.9561H75.0898H71V54.0421V57.1282H75.0898H79.1796Z" fill="url(#paint0_linear_1467_159)"/>
<path d="M111.729 57.1282V54.0421V50.9561H107.639H103.549V54.0421V57.1282H107.639H111.729Z" fill="url(#paint1_linear_1467_159)"/>
<path d="M79.1799 82.5651V70.829V59.1016H75.0899H71V75.5697V92.0464L75.8227 92.0036L80.6454 91.9607L86.005 86.5685L91.3645 81.1763L96.7241 86.5685L102.084 91.9607L106.906 92.0036L111.729 92.0464V75.5697V59.1016H107.639H103.549V70.8204V82.5479L97.4568 76.4184L91.3645 70.2889L85.2722 76.427L79.1799 82.5651Z" fill="url(#paint2_linear_1467_159)"/>
<path d="M52.5231 53.0049C50.1458 51.8562 47.8879 51.2475 45.2379 51.0418C44.65 50.9989 41.3269 50.9561 37.8504 50.9561H31.5195V55.0709V59.1773L38.1913 59.203L44.8545 59.2373L45.7151 59.4601C49.3449 60.4289 52.1824 62.7521 53.8013 66.0697C54.713 67.9385 55.0623 69.4902 55.0623 71.5734C55.0623 73.5365 54.6874 75.1825 53.8524 76.9142C52.1056 80.4975 48.8592 82.9579 44.9397 83.6694C44.42 83.7638 43.4485 83.8237 41.9404 83.8495L39.6994 83.9009V72.6107V61.329H35.6095H31.5195V76.6313V91.9335L37.6374 91.9507C45.2549 91.9849 45.4339 91.9764 46.6609 91.8049C50.9894 91.1791 55.0623 89.1045 58.1894 85.9326C61.4188 82.6493 63.4893 78.2944 63.975 73.7423C64.1113 72.5336 64.0858 70.2789 63.941 69.0444C63.0804 62.1092 58.7433 56.0054 52.5231 53.0049Z" fill="url(#paint3_linear_1467_159)"/>
<path d="M49.8911 70.1765C49.6014 69.6021 49.1157 69.1135 48.5449 68.8221C48.1785 68.6335 47.957 68.582 47.369 68.5649C46.5426 68.5306 46.3125 68.5906 45.6649 68.9764C44.0546 69.9536 43.7989 72.2339 45.1452 73.5969C46.0057 74.4627 47.2156 74.7113 48.3489 74.2741C49.039 74.0084 49.7462 73.2797 50.0104 72.5854C50.2745 71.8824 50.2234 70.8281 49.8911 70.1765Z" fill="url(#paint4_linear_1467_159)"/>
<path fill-rule="evenodd" clip-rule="evenodd" d="M66.9574 6.92896C56.5905 7.68198 47.14 10.3903 38.6059 15.054C28.4285 20.4974 20.4851 28.13 14.7758 37.9517C9.06656 47.7734 6.21191 58.956 6.21191 71.4994C6.21191 84.0429 9.06656 95.2254 14.7758 105.047C20.4851 114.869 28.4285 122.561 38.6059 128.122C47.14 132.687 56.5905 135.338 66.9574 136.075V125.56C58.5989 124.843 51.0101 122.621 44.1911 118.892C35.8754 114.277 29.3593 107.887 24.643 99.7221C19.9266 91.4387 17.5684 82.0312 17.5684 71.4994C17.5684 60.9677 19.9266 51.5601 24.643 43.2767C29.3593 34.9933 35.8754 28.6033 44.1911 24.1066C51.0101 20.3778 58.5989 18.1554 66.9574 17.4393V6.92896ZM75.0421 125.788V136.265C85.4179 136.032 94.8064 133.969 103.208 130.075C112.144 125.815 119.467 119.839 125.176 112.147C130.885 104.455 134.423 95.5804 135.788 85.522H124.618C123.128 93.6871 120.025 100.787 115.309 106.822C110.717 112.857 104.759 117.531 97.4363 120.845C90.7699 123.913 83.3051 125.561 75.0421 125.788ZM75.0421 17.2112V6.73438C85.4179 6.97416 94.8064 9.09654 103.208 13.1015C112.144 17.2432 119.467 23.1599 125.176 30.8516C130.885 38.5434 134.423 47.4184 135.788 57.4768H124.618C123.128 49.3118 120.025 42.2117 115.309 36.1767C110.717 30.1416 104.759 25.4674 97.4363 22.1541C90.7699 19.0857 83.3051 17.4381 75.0421 17.2112Z" fill="url(#paint5_linear_1467_159)"/>
<defs>
<linearGradient id="paint0_linear_1467_159" x1="71.1424" y1="51.2797" x2="76.3042" y2="52.6931" gradientUnits="userSpaceOnUse">
<stop stop-color="#FBFC56"/>
<stop offset="1" stop-color="#F9DD04"/>
</linearGradient>
<linearGradient id="paint1_linear_1467_159" x1="103.692" y1="51.2797" x2="108.853" y2="52.6931" gradientUnits="userSpaceOnUse">
<stop stop-color="#FBFC56"/>
<stop offset="1" stop-color="#F9DD04"/>
</linearGradient>
<linearGradient id="paint2_linear_1467_159" x1="71.709" y1="60.8293" x2="97.6461" y2="67.4545" gradientUnits="userSpaceOnUse">
<stop stop-color="#FBFC56"/>
<stop offset="1" stop-color="#F9DD04"/>
</linearGradient>
<linearGradient id="paint3_linear_1467_159" x1="32.086" y1="53.1068" x2="53.5857" y2="56.632" gradientUnits="userSpaceOnUse">
<stop stop-color="#FBFC56"/>
<stop offset="1" stop-color="#F9DD04"/>
</linearGradient>
<linearGradient id="paint4_linear_1467_159" x1="44.3801" y1="68.8676" x2="48.2211" y2="69.6575" gradientUnits="userSpaceOnUse">
<stop stop-color="#FBFC56"/>
<stop offset="1" stop-color="#F9DD04"/>
</linearGradient>
<linearGradient id="paint5_linear_1467_159" x1="11.9625" y1="18.0558" x2="130.556" y2="141.219" gradientUnits="userSpaceOnUse">
<stop offset="0.0116797" stop-color="#FEEA51"/>
<stop offset="1" stop-color="#F9DD04"/>
</linearGradient>
</defs>
</svg>
