<svg width="81" height="43" viewBox="0 0 81 43" fill="none" xmlns="http://www.w3.org/2000/svg">
<path d="M47.8813 7.12817V4.04211V0.956055H43.7914H39.7017V4.04211V7.12817H43.7914H47.8813Z" fill="url(#paint0_linear_1468_176)"/>
<path d="M80.4305 7.12817V4.04211V0.956055H76.341H72.251V4.04211V7.12817H76.341H80.4305Z" fill="url(#paint1_linear_1468_176)"/>
<path d="M47.8816 32.5651V20.829V9.10156H43.7916H39.7017V25.5697V42.0464L44.5243 42.0036L49.3471 41.9607L54.7066 36.5685L60.0662 31.1763L65.4257 36.5685L70.7853 41.9607L75.6078 42.0036L80.4306 42.0464V25.5697V9.10156H76.3411H72.2509V20.8204V32.5479L66.1585 26.4184L60.0662 20.2889L53.9739 26.427L47.8816 32.5651Z" fill="url(#paint2_linear_1468_176)"/>
<path d="M21.2248 3.00493C18.8475 1.85619 16.5895 1.24753 13.9396 1.04178C13.3516 0.998919 10.0285 0.956055 6.5521 0.956055H0.221191V5.07095V9.1773L6.89293 9.20301L13.5561 9.23726L14.4167 9.46014C18.0466 10.4289 20.884 12.7521 22.5029 16.0697C23.4146 17.9385 23.764 19.4902 23.764 21.5734C23.764 23.5365 23.3891 25.1825 22.554 26.9142C20.8073 30.4975 17.5609 32.9579 13.6413 33.6694C13.1216 33.7638 12.1502 33.8237 10.642 33.8495L8.40106 33.9009V22.6107V11.329H4.31114H0.221191V26.6313V41.9335L6.33908 41.9507C13.9566 41.9849 14.1356 41.9764 15.3625 41.8049C19.691 41.1791 23.764 39.1045 26.8911 35.9326C30.1204 32.6493 32.191 28.2944 32.6767 23.7423C32.813 22.5336 32.7874 20.2789 32.6426 19.0444C31.782 12.1092 27.4449 6.00537 21.2248 3.00493Z" fill="url(#paint3_linear_1468_176)"/>
<path d="M18.5928 20.1765C18.303 19.6021 17.8173 19.1135 17.2465 18.8221C16.8801 18.6335 16.6586 18.582 16.0707 18.5649C15.2442 18.5306 15.0141 18.5906 14.3666 18.9764C12.7562 19.9536 12.5006 22.2339 13.8468 23.5969C14.7074 24.4627 15.9173 24.7113 17.0506 24.2741C17.7407 24.0084 18.4479 23.2797 18.712 22.5854C18.9762 21.8824 18.9251 20.8281 18.5928 20.1765Z" fill="url(#paint4_linear_1468_176)"/>
<defs>
<linearGradient id="paint0_linear_1468_176" x1="39.844" y1="1.27974" x2="45.0059" y2="2.69314" gradientUnits="userSpaceOnUse">
<stop stop-color="#FBFC56"/>
<stop offset="1" stop-color="#F9DD04"/>
</linearGradient>
<linearGradient id="paint1_linear_1468_176" x1="72.3934" y1="1.27974" x2="77.5551" y2="2.6931" gradientUnits="userSpaceOnUse">
<stop stop-color="#FBFC56"/>
<stop offset="1" stop-color="#F9DD04"/>
</linearGradient>
<linearGradient id="paint2_linear_1468_176" x1="40.4106" y1="10.8293" x2="66.3478" y2="17.4545" gradientUnits="userSpaceOnUse">
<stop stop-color="#FBFC56"/>
<stop offset="1" stop-color="#F9DD04"/>
</linearGradient>
<linearGradient id="paint3_linear_1468_176" x1="0.787699" y1="3.10676" x2="22.2874" y2="6.63197" gradientUnits="userSpaceOnUse">
<stop stop-color="#FBFC56"/>
<stop offset="1" stop-color="#F9DD04"/>
</linearGradient>
<linearGradient id="paint4_linear_1468_176" x1="13.0817" y1="18.8676" x2="16.9228" y2="19.6575" gradientUnits="userSpaceOnUse">
<stop stop-color="#FBFC56"/>
<stop offset="1" stop-color="#F9DD04"/>
</linearGradient>
</defs>
</svg>
