<svg width="110" height="56" viewBox="0 0 110 56" fill="none" xmlns="http://www.w3.org/2000/svg">
<path d="M29.2207 2.97844C26.0014 1.43226 22.9437 0.613018 19.3552 0.336086C18.559 0.278398 14.0589 0.220703 9.35116 0.220703H0.777954V5.75925V11.2863L9.81271 11.3209L18.8359 11.367L20.0013 11.667C24.9168 12.9709 28.7592 16.0979 30.9515 20.5633C32.1861 23.0787 32.6592 25.1672 32.6592 27.9711C32.6592 30.6135 32.1515 32.8289 31.0207 35.1597C28.6553 39.9828 24.2591 43.2944 18.9513 44.2521C18.2475 44.3791 16.932 44.4598 14.8897 44.4945L11.855 44.5637V29.3673V14.1825H6.3165H0.777954V34.7789V55.3754L9.0627 55.3985C19.3782 55.4446 19.6206 55.4331 21.2821 55.2023C27.1437 54.36 32.6592 51.5676 36.8939 47.2983C41.267 42.879 44.0709 37.0174 44.7286 30.8904C44.9132 29.2635 44.8786 26.2288 44.6825 24.5672C43.5171 15.2325 37.6439 7.01696 29.2207 2.97844Z" fill="#29292E"/>
<path d="M65.1636 8.52852V4.37461V0.220703H59.625H54.0865V4.37461V8.52852H59.625H65.1636Z" fill="#29292E"/>
<path d="M109.241 8.52852V4.37461V0.220703H103.703H98.1641V4.37461V8.52852H103.703H109.241Z" fill="#29292E"/>
<path d="M65.1636 42.7637V26.9673V11.1824H59.625H54.0865V33.3481V55.5254L60.6173 55.4677L67.1482 55.41L74.406 48.1522L81.6638 40.8944L88.9216 48.1522L96.1794 55.41L102.71 55.4677L109.241 55.5254V33.3481V11.1824H103.703H98.1641V26.9557V42.7406L89.9139 34.4905L81.6638 26.2403L73.4137 34.502L65.1636 42.7637Z" fill="#29292E"/>
<path d="M25.6553 26.0903C25.2629 25.3172 24.6052 24.6595 23.8322 24.2672C23.336 24.0134 23.036 23.9441 22.2398 23.9211C21.1206 23.8749 20.809 23.9557 19.9321 24.4749C17.7513 25.7903 17.4051 28.8596 19.2282 30.6942C20.3936 31.8596 22.0321 32.1943 23.5668 31.6058C24.5014 31.2481 25.4591 30.2673 25.8168 29.3327C26.1745 28.3865 26.1053 26.9673 25.6553 26.0903Z" fill="#29292E"/>
</svg>
