<svg width="97" height="97" viewBox="0 0 97 97" fill="none" xmlns="http://www.w3.org/2000/svg">
<circle cx="48.5374" cy="48.3804" r="48.3745" fill="#D4EB01"/>
<path d="M46.1738 0.016573C46.0184 0.0290105 45.4587 0.0663231 44.9301 0.103636C32.0137 0.999137 19.7939 7.2863 11.3675 17.3669C3.06542 27.3045 -0.883496 40.1462 0.372693 53.1186C1.47341 64.4243 6.59145 75.0646 14.7567 83.0059C25.0425 93.0119 38.9974 97.9061 53.2943 96.5255C66.7579 95.2196 79.0338 88.2981 87.255 77.3842C94.5123 67.7513 97.8766 55.7242 96.7013 43.6039C95.3891 30.0843 88.393 17.7214 77.4231 9.53749C70.7006 4.51895 62.7841 1.34739 54.4448 0.321292C52.5729 0.0911981 51.4536 0.0290105 48.9723 0.0103543C47.5855 0.0041355 46.3293 0.0041355 46.1738 0.016573ZM52.517 0.936949C58.8166 1.51529 64.2891 3.04511 69.7429 5.76893C84.4254 13.0946 94.2946 27.3978 95.8866 43.666C96.2224 47.0988 96.1664 50.9731 95.7374 54.4245C93.6416 71.0783 82.678 85.5618 67.1622 92.1599C62.4732 94.1499 57.8402 95.2942 52.4548 95.7917C50.7322 95.9472 46.3418 95.9472 44.6192 95.7917C40.067 95.375 36.2425 94.5355 32.2252 93.0679C16.2678 87.2533 4.52682 73.2176 1.65376 56.5078C0.9386 52.3785 0.776912 47.8451 1.18735 43.666C2.9597 25.5259 15.0863 9.89818 32.2252 3.65455C36.6902 2.02523 41.2113 1.11107 46.1738 0.825012C47.1875 0.769043 51.4847 0.843668 52.517 0.936949Z" fill="black"/>
<path d="M46.0187 1.60334C37.5301 2.09462 29.595 4.73137 22.6051 9.38922C19.9746 11.1367 17.7856 12.9401 15.4473 15.2722C11.0009 19.7248 7.6801 24.6749 5.27344 30.4522C0.528527 41.8449 0.528527 54.9478 5.28588 66.3593C6.97738 70.4263 9.26588 74.2882 11.9959 77.6836C14.0419 80.2395 16.7222 82.9198 19.2781 84.9658C30.0863 93.6472 44.178 97.0613 57.8966 94.3188C65.1166 92.8698 72.0753 89.6112 77.8588 84.9658C80.4147 82.9198 83.095 80.2395 85.141 77.6836C93.8223 66.8754 97.2364 52.7775 94.4877 39.0651C93.045 31.8327 89.7926 24.8926 85.141 19.1029C83.095 16.547 80.4147 13.8667 77.8588 11.8208C69.5194 5.11693 59.0595 1.47896 48.357 1.54115C47.5486 1.54736 46.4976 1.57846 46.0187 1.60334ZM29.1348 27.6537C31.0689 27.803 32.7168 28.2445 34.4519 29.0778C38.9915 31.2544 42.1569 35.6821 42.785 40.7131C42.8907 41.6086 42.9094 43.2441 42.8099 44.121C42.4554 47.4231 40.9442 50.5823 38.5873 52.9641C36.305 55.265 33.3325 56.7699 30.1734 57.2239C29.2778 57.3483 29.1473 57.3545 23.5877 57.3296L19.1226 57.3172V46.2167V35.1162H22.1076H25.0926V43.3001V51.4902L26.7282 51.4529C27.8289 51.4342 28.5378 51.3907 28.9172 51.3223C31.7778 50.8062 34.1471 49.0214 35.422 46.4219C36.0314 45.1657 36.305 43.9717 36.305 42.5476C36.305 41.0365 36.0501 39.9109 35.3847 38.5552C34.2031 36.1485 32.1323 34.4633 29.4831 33.7605L28.855 33.5988L23.9919 33.574L19.1226 33.5553V30.5765V27.5915H23.7432C26.2804 27.5915 28.7057 27.6226 29.1348 27.6537ZM53.8233 29.8303V32.069H50.8383H47.8533V29.8303V27.5915H50.8383H53.8233V29.8303ZM77.5789 29.8303V32.069H74.5939H71.6089V29.8303V27.5915H74.5939H77.5789V29.8303ZM53.8233 42.0066V50.5201L58.2697 46.0675L62.7161 41.6148L67.1625 46.0612L71.6089 50.5077V42.0004V33.4994H74.5939H77.5789V45.4456V57.398L74.0591 57.3669L70.5393 57.3358L66.6277 53.4243L62.7161 49.5127L58.8045 53.4243L54.8929 57.3358L51.3731 57.3669L47.8533 57.398V45.4456V33.4994H50.8383H53.8233V42.0066ZM31.5477 40.5514C31.9644 40.7629 32.3188 41.1173 32.5303 41.534C32.7728 42.0066 32.8101 42.7715 32.6173 43.2815C32.4245 43.7852 31.9084 44.3138 31.4047 44.5065C30.5776 44.8237 29.6945 44.6434 29.0664 44.0153C28.0838 43.0265 28.2704 41.3723 29.4458 40.6634C29.9184 40.3835 30.0863 40.34 30.6895 40.3649C31.1186 40.3773 31.2803 40.4146 31.5477 40.5514ZM82.5726 61.1355C82.9768 61.4091 82.9582 61.1666 82.9457 66.2349C82.9395 70.6502 82.9333 70.8368 82.8214 70.986C82.753 71.0731 82.6348 71.1975 82.5477 71.2534C82.4047 71.3529 80.4893 71.3592 48.556 71.384L14.7135 71.4027L14.5456 71.2721C14.4523 71.2037 14.3155 71.0669 14.2471 70.9736C14.1165 70.8057 14.1165 70.7373 14.0979 66.3593C14.0854 63.225 14.1041 61.8382 14.1538 61.6579C14.2285 61.378 14.5083 61.0733 14.726 61.0298C14.8006 61.0174 30.0614 61.0049 48.6306 61.0111C81.6895 61.0174 82.4047 61.0174 82.5726 61.1355Z" fill="black"/>
<path d="M14.7258 61.4215C14.6512 61.4526 14.5641 61.5334 14.5268 61.6018C14.477 61.6827 14.4584 63.1627 14.4584 66.241V70.7558L14.6138 70.9051L14.7631 71.0605H48.531H82.2988L82.4729 70.9113L82.6471 70.762L82.6222 66.2286C82.6098 63.5732 82.5787 61.6578 82.5414 61.5894C82.5103 61.5272 82.417 61.4526 82.3299 61.4215C82.1247 61.3406 14.9186 61.3468 14.7258 61.4215ZM68.9845 62.2921L68.5305 62.7896H68.2009H67.8651L68.0392 62.4911C68.4745 61.7511 68.4123 61.7946 68.9534 61.7946H69.4384L68.9845 62.2921ZM24.427 63.1752C24.9681 63.3368 25.3412 63.9338 25.3412 64.6366V64.904H24.8748H24.4084V64.649C24.4084 64.394 24.3213 64.1639 24.197 64.0831C24.1596 64.0582 24.029 64.0333 23.9109 64.0333C23.7927 64.0333 23.6621 64.0582 23.6248 64.0831C23.4072 64.2261 23.3512 64.6988 23.5129 65.0781C23.5626 65.2087 23.9047 65.6129 24.284 65.9985C24.7815 66.5022 25.0054 66.782 25.1298 67.0432C25.3412 67.5096 25.391 68.0631 25.2541 68.5233C25.0551 69.2136 24.6758 69.4748 23.8487 69.4748C23.2641 69.4748 22.9159 69.3442 22.6734 69.0332C22.493 68.8031 22.3562 68.3056 22.3562 67.8765V67.5159H22.8226H23.289V67.8828C23.289 68.374 23.4383 68.573 23.8052 68.573C23.9482 68.573 24.0975 68.5482 24.1348 68.5233C24.3524 68.3803 24.4084 67.9139 24.2529 67.5407C24.2032 67.4226 23.8487 66.9935 23.4569 66.5955C22.6671 65.7746 22.4868 65.4761 22.437 64.848C22.3686 64.0209 22.7355 63.3368 23.3325 63.1752C23.6684 63.0881 24.1348 63.0881 24.427 63.1752ZM27.7852 63.1752C28.3262 63.3368 28.6993 63.9338 28.6993 64.6366V64.904H28.2329H27.7665V64.649C27.7665 64.394 27.6795 64.1639 27.5551 64.0831C27.5178 64.0582 27.3872 64.0333 27.269 64.0333C27.1509 64.0333 27.0203 64.0582 26.983 64.0831C26.7653 64.2261 26.7093 64.6988 26.871 65.0781C26.9208 65.2087 27.2628 65.6129 27.6421 65.9985C28.1396 66.5022 28.3635 66.782 28.4879 67.0432C28.6993 67.5096 28.7491 68.0631 28.6123 68.5233C28.4133 69.2136 28.0339 69.4748 27.2068 69.4748C26.6223 69.4748 26.274 69.3442 26.0315 69.0332C25.8511 68.8031 25.7143 68.3056 25.7143 67.8765V67.5159H26.1807H26.6471V67.8828C26.6471 68.374 26.7964 68.573 27.1633 68.573C27.3063 68.573 27.4556 68.5482 27.4929 68.5233C27.7106 68.3803 27.7665 67.9139 27.611 67.5407C27.5613 67.4226 27.2068 66.9935 26.815 66.5955C26.0253 65.7746 25.8449 65.4761 25.7952 64.848C25.7268 64.0209 26.0937 63.3368 26.6907 63.1752C27.0265 63.0881 27.4929 63.0881 27.7852 63.1752ZM34.4392 63.1752C34.9803 63.3368 35.3534 63.9338 35.3534 64.6366V64.904H34.887H34.4206V64.649C34.4206 64.394 34.3335 64.1639 34.2092 64.0831C34.1718 64.0582 34.0412 64.0333 33.9231 64.0333C33.8049 64.0333 33.6743 64.0582 33.637 64.0831C33.4194 64.2261 33.3634 64.6988 33.5251 65.0781C33.5748 65.2087 33.9169 65.6129 34.2962 65.9985C34.7937 66.5022 35.0176 66.782 35.142 67.0432C35.3534 67.5096 35.4032 68.0631 35.2663 68.5233C35.0673 69.2136 34.688 69.4748 33.8609 69.4748C33.2763 69.4748 32.9281 69.3442 32.6856 69.0332C32.5052 68.8031 32.3684 68.3056 32.3684 67.8765V67.5159H32.8348H33.3012V67.8828C33.3012 68.374 33.4505 68.573 33.8174 68.573C33.9604 68.573 34.1097 68.5482 34.147 68.5233C34.3646 68.3803 34.4206 67.9139 34.2651 67.5407C34.2154 67.4226 33.8609 66.9935 33.4691 66.5955C32.6793 65.7746 32.499 65.4761 32.4492 64.848C32.3808 64.0209 32.7477 63.3368 33.3447 63.1752C33.6806 63.0881 34.147 63.0881 34.4392 63.1752ZM37.7974 63.1752C38.3384 63.3368 38.7115 63.9338 38.7115 64.6366V64.904H38.2451H37.7787V64.649C37.7787 64.394 37.6917 64.1639 37.5673 64.0831C37.53 64.0582 37.3994 64.0333 37.2812 64.0333C37.1631 64.0333 37.0325 64.0582 36.9952 64.0831C36.7775 64.2261 36.7215 64.6988 36.8832 65.0781C36.933 65.2087 37.275 65.6129 37.6543 65.9985C38.1518 66.5022 38.3757 66.782 38.5001 67.0432C38.7115 67.5096 38.7613 68.0631 38.6245 68.5233C38.4255 69.2136 38.0461 69.4748 37.219 69.4748C36.6345 69.4748 36.2862 69.3442 36.0437 69.0332C35.8633 68.8031 35.7265 68.3056 35.7265 67.8765V67.5159H36.1929H36.6593V67.8828C36.6593 68.374 36.8086 68.573 37.1755 68.573C37.3185 68.573 37.4678 68.5482 37.5051 68.5233C37.7228 68.3803 37.7787 67.9139 37.6233 67.5407C37.5735 67.4226 37.219 66.9935 36.8273 66.5955C36.0375 65.7746 35.8571 65.4761 35.8074 64.848C35.739 64.0209 36.1059 63.3368 36.7029 63.1752C37.0387 63.0881 37.5051 63.0881 37.7974 63.1752ZM41.4416 63.2498C41.5597 63.312 41.7339 63.4488 41.8334 63.5607C42.1629 63.9152 42.194 64.1702 42.194 66.3032C42.194 68.4362 42.1629 68.6912 41.8334 69.0457C41.5162 69.3939 41.2923 69.4748 40.6704 69.4748C40.0486 69.4748 39.8247 69.3939 39.5075 69.0457C39.1779 68.6912 39.1469 68.4362 39.1469 66.3032C39.1469 64.2448 39.1779 63.9712 39.4516 63.6229C39.7563 63.2373 40.1356 63.0881 40.7637 63.1192C41.0498 63.1316 41.311 63.1814 41.4416 63.2498ZM55.3592 63.2747C55.8442 63.5234 56.0619 64.0085 56.0619 64.8231V65.2771H55.5955H55.1291V64.8169C55.1291 64.2199 55.0047 64.0333 54.6005 64.0333C54.3828 64.0333 54.302 64.0644 54.2025 64.195C54.0781 64.3567 54.0719 64.4313 54.0719 66.2845C54.0719 68.5544 54.0781 68.573 54.6129 68.573C54.8181 68.573 54.899 68.5419 54.9985 68.4114C55.1104 68.2683 55.1291 68.1564 55.1291 67.6651V67.0805H55.6017H56.0743L56.0494 67.8144C56.0308 68.4424 56.0059 68.5793 55.8753 68.8218C55.6017 69.3069 55.0917 69.5432 54.4139 69.4872C53.9848 69.4561 53.5868 69.2758 53.394 69.0332C53.1017 68.6601 53.0707 68.3554 53.0893 66.1664C53.108 64.1266 53.108 64.1204 53.2634 63.8219C53.4376 63.4861 53.6179 63.3244 53.9848 63.1876C54.3268 63.0632 55.0233 63.1068 55.3592 63.2747ZM58.8541 63.2498C58.9723 63.312 59.1464 63.4488 59.2459 63.5607C59.5755 63.9152 59.6066 64.1702 59.6066 66.3032C59.6066 68.4362 59.5755 68.6912 59.2459 69.0457C58.9287 69.3939 58.7048 69.4748 58.083 69.4748C57.4611 69.4748 57.2372 69.3939 56.9201 69.0457C56.5905 68.6912 56.5594 68.4362 56.5594 66.3032C56.5594 64.2448 56.5905 63.9712 56.8641 63.6229C57.1688 63.2373 57.5482 63.0881 58.1763 63.1192C58.4623 63.1316 58.7235 63.1814 58.8541 63.2498ZM21.0503 63.2063C21.0503 63.2622 21.9769 69.0581 22.0204 69.2695L22.0577 69.4437H21.554C20.9943 69.4437 21.0254 69.4685 20.957 68.884C20.8886 68.2808 20.9321 68.3181 20.2543 68.3367C19.7754 68.3492 19.651 68.374 19.6386 68.4487C19.6324 68.4984 19.5951 68.7472 19.5578 68.9897L19.4831 69.4437H19.0167C18.6685 69.4437 18.5565 69.425 18.5752 69.3628C18.5938 69.3255 18.8239 67.9076 19.0976 66.2224L19.5826 63.1627H20.3164C20.7207 63.1627 21.0503 63.1814 21.0503 63.2063ZM31.9331 63.6291V64.0955H31.0936H30.254V64.9351V65.7684L30.9256 65.787L31.5911 65.8057L31.6097 66.2534L31.6284 66.7074H30.9381H30.254V67.6091V68.5109H31.0936H31.9331V68.9773V69.4437H30.5961H29.259V66.3032V63.1627H30.5961H31.9331V63.6291ZM44.8992 63.2311C45.5024 63.399 45.745 63.7784 45.7885 64.6241C45.8258 65.4139 45.7263 65.8679 45.434 66.1477L45.2101 66.3716L45.434 66.5955C45.7325 66.8878 45.8009 67.1925 45.8009 68.2559C45.8009 68.7347 45.8258 69.1949 45.8631 69.282L45.9253 69.4437H45.3967C45.1044 69.4437 44.8619 69.4375 44.8619 69.425C44.8557 69.4188 44.837 68.9151 44.8121 68.3056L44.7748 67.1925L44.6007 67.0432C44.4639 66.9313 44.352 66.894 44.1156 66.894H43.8109V68.1688V69.4437H43.3134H42.8159V66.3032V63.1627H43.7363C44.24 63.1627 44.7624 63.1938 44.8992 63.2311ZM47.4178 66.3032V69.4437H46.9203H46.4228V66.3032V63.1627H46.9203H47.4178V66.3032ZM50.3406 63.2063C50.3406 63.2622 51.2672 69.0581 51.3107 69.2695L51.3481 69.4437H50.8443C50.2846 69.4437 50.3157 69.4685 50.2473 68.884C50.1789 68.2808 50.2225 68.3181 49.5446 68.3367C49.0658 68.3492 48.9414 68.374 48.929 68.4487C48.9227 68.4984 48.8854 68.7472 48.8481 68.9897L48.7735 69.4437H48.3071C47.9588 69.4437 47.8469 69.425 47.8656 69.3628C47.8842 69.3255 48.1143 67.9076 48.3879 66.2224L48.873 63.1627H49.6068C50.011 63.1627 50.3406 63.1814 50.3406 63.2063ZM61.9013 64.8418C62.1438 65.7684 62.3739 66.5893 62.405 66.6639C62.4361 66.7509 62.461 66.1166 62.461 64.9786L62.4672 63.1627H62.9025H63.3378V66.3032V69.4437H62.8279H62.3117L61.7209 67.2298L61.1302 65.0159L61.1115 67.2298L61.0991 69.4437H60.6638H60.2284V66.3032V63.1627H60.8379H61.4535L61.9013 64.8418ZM66.8701 63.6105L66.8514 64.0644L66.3415 64.0831L65.8253 64.1018V66.7696V69.4437H65.3278H64.8303V66.7696V64.1018L64.3204 64.0831L63.8042 64.0644L63.7856 63.6105L63.7669 63.1627H65.3278H66.8887L66.8701 63.6105ZM69.1213 63.2063C69.1213 63.2622 70.0479 69.0581 70.0914 69.2695L70.1287 69.4437H69.625C69.0653 69.4437 69.0964 69.4685 69.028 68.884C68.9596 68.2808 69.0031 68.3181 68.3253 68.3367C67.8464 68.3492 67.722 68.374 67.7096 68.4487C67.7034 68.4984 67.6661 68.7472 67.6288 68.9897L67.5541 69.4437H67.0877C66.7395 69.4437 66.6275 69.425 66.6462 69.3628C66.6649 69.3255 66.895 67.9076 67.1686 66.2224L67.6536 63.1627H68.3875C68.7917 63.1627 69.1213 63.1814 69.1213 63.2063ZM72.6971 63.2498C73.2692 63.4239 73.5366 63.8841 73.5366 64.6988C73.5366 65.2647 73.4309 65.6254 73.1821 65.8803C73.0702 66.0047 72.9831 66.1104 72.9893 66.1166C73.4868 66.3965 73.6174 66.6701 73.6485 67.5221C73.6796 68.3989 73.5739 68.7907 73.2194 69.0892C72.8836 69.3815 72.5851 69.4437 71.5217 69.4437H70.6138V66.3032V63.1627H71.5031C72.1063 63.1627 72.4981 63.1938 72.6971 63.2498ZM75.2157 66.3032V69.4437H74.7182H74.2207V66.3032V63.1627H74.7182H75.2157V66.3032ZM76.9569 65.8368V68.5109H77.7653H78.5738V68.9773V69.4437H77.2678H75.9619V66.3032V63.1627H76.4594H76.9569V65.8368Z" fill="black"/>
<path d="M40.2724 64.1952C40.1481 64.3569 40.1418 64.4315 40.1418 66.3034C40.1418 68.1752 40.1481 68.2499 40.2724 68.4116C40.3719 68.5421 40.4528 68.5732 40.6704 68.5732C40.8881 68.5732 40.9689 68.5421 41.0684 68.4116C41.1928 68.2499 41.199 68.1752 41.199 66.3034C41.199 64.4315 41.1928 64.3569 41.0684 64.1952C40.9689 64.0646 40.8881 64.0335 40.6704 64.0335C40.4528 64.0335 40.3719 64.0646 40.2724 64.1952Z" fill="black"/>
<path d="M57.685 64.1952C57.5607 64.3569 57.5544 64.4315 57.5544 66.3034C57.5544 68.1752 57.5607 68.2499 57.685 68.4116C57.7845 68.5421 57.8654 68.5732 58.083 68.5732C58.3007 68.5732 58.3815 68.5421 58.481 68.4116C58.6054 68.2499 58.6116 68.1752 58.6116 66.3034C58.6116 64.4315 58.6054 64.3569 58.481 64.1952C58.3815 64.0646 58.3007 64.0335 58.083 64.0335C57.8654 64.0335 57.7845 64.0646 57.685 64.1952Z" fill="black"/>
<path d="M20.2481 64.4059C20.2418 64.4246 20.1423 65.0838 20.0242 65.8673C19.906 66.6571 19.8065 67.335 19.8065 67.3723C19.8065 67.4282 19.9433 67.4531 20.2791 67.4531H20.7518L20.7145 67.279C20.6958 67.1857 20.5963 66.5203 20.4906 65.8052C20.3165 64.6236 20.2605 64.3127 20.2481 64.4059Z" fill="black"/>
<path d="M43.8108 65.0271V65.96H44.1528C44.7187 65.96 44.8307 65.761 44.7996 64.8779C44.7685 64.2001 44.6876 64.0943 44.1715 64.0943H43.8108V65.0271Z" fill="black"/>
<path d="M49.5385 64.4059C49.5322 64.4246 49.4327 65.0838 49.3146 65.8673C49.1964 66.6571 49.0969 67.335 49.0969 67.3723C49.0969 67.4282 49.2337 67.4531 49.5695 67.4531H50.0422L50.0049 67.279C49.9862 67.1857 49.8867 66.5203 49.781 65.8052C49.6069 64.6236 49.5509 64.3127 49.5385 64.4059Z" fill="black"/>
<path d="M68.319 64.4059C68.3128 64.4246 68.2133 65.0838 68.0951 65.8673C67.9769 66.6571 67.8774 67.335 67.8774 67.3723C67.8774 67.4282 68.0143 67.4531 68.3501 67.4531H68.8227L68.7854 67.279C68.7667 67.1857 68.6672 66.5203 68.5615 65.8052C68.3874 64.6236 68.3314 64.3127 68.319 64.4059Z" fill="black"/>
<path d="M71.6089 64.9035V65.7119H71.9198C72.436 65.7119 72.5728 65.4818 72.5293 64.7231C72.4982 64.1697 72.436 64.095 71.9758 64.095H71.6089V64.9035Z" fill="black"/>
<path d="M71.6089 67.5779V68.5107H72.0007C72.6101 68.5107 72.635 68.4734 72.635 67.609C72.635 66.9187 72.6288 66.8752 72.4857 66.7633C72.38 66.6762 72.2432 66.6451 71.9758 66.6451H71.6089V67.5779Z" fill="black"/>
</svg>
