<svg width="137" height="65" viewBox="0 0 137 65" fill="none" xmlns="http://www.w3.org/2000/svg">
<path d="M99.2453 6.65664V3.54121V0.425781H95.1165H90.9878V3.54121V6.65664H95.1165H99.2453Z" fill="url(#paint0_linear_1448_77)"/>
<path d="M132.103 6.65664V3.54121V0.425781H127.975H123.846V3.54121V6.65664H127.975H132.103Z" fill="url(#paint1_linear_1448_77)"/>
<path d="M99.2453 32.3334V20.4861V8.64746H95.1165H90.9878V25.2717V41.9047L95.8562 41.8614L100.725 41.8182L106.135 36.3748L111.545 30.9315L116.956 36.3748L122.366 41.8182L127.234 41.8614L132.103 41.9047V25.2717V8.64746H127.975H123.846V20.4774V32.3161L117.695 26.1285L111.545 19.9409L105.395 26.1372L99.2453 32.3334Z" fill="url(#paint2_linear_1448_77)"/>
<path d="M72.3371 2.49408C69.9372 1.33445 67.6578 0.720018 64.9828 0.512318C64.3892 0.469052 61.0346 0.425781 57.5252 0.425781H51.1343V4.57969V8.72498L57.8693 8.75093L64.5957 8.7855L65.4644 9.0105C69.1287 9.98843 71.993 12.3337 73.6273 15.6827C74.5476 17.5693 74.9003 19.1357 74.9003 21.2386C74.9003 23.2204 74.5218 24.8819 73.6789 26.63C71.9156 30.2474 68.6384 32.7311 64.6817 33.4493C64.157 33.5446 63.1764 33.6051 61.6539 33.6311L59.3917 33.683V22.2857V10.8971H55.263H51.1343V26.3444V41.7918L57.3102 41.8091C64.9999 41.8437 65.1806 41.8351 66.4192 41.662C70.7887 41.0303 74.9003 38.936 78.0571 35.734C81.317 32.4195 83.4072 28.0233 83.8975 23.4281C84.0351 22.2079 84.0093 19.9319 83.8631 18.6857C82.9944 11.6846 78.6162 5.52297 72.3371 2.49408Z" fill="url(#paint3_linear_1448_77)"/>
<path d="M69.6789 19.8286C69.3864 19.2488 68.8961 18.7555 68.3199 18.4613C67.95 18.271 67.7263 18.219 67.1328 18.2017C66.2985 18.1671 66.0662 18.2277 65.4125 18.6171C63.7868 19.6036 63.5288 21.9056 64.8878 23.2816C65.7566 24.1556 66.978 24.4066 68.122 23.9653C68.8187 23.697 69.5327 22.9614 69.7993 22.2604C70.066 21.5508 70.0144 20.4864 69.6789 19.8286Z" fill="url(#paint4_linear_1448_77)"/>
<path fill-rule="evenodd" clip-rule="evenodd" d="M23.1904 0.473892C19.881 0.680351 16.869 1.55222 14.1542 3.0895C11.056 4.86527 8.61908 7.32112 6.84331 10.4571C5.10532 13.593 4.23633 17.1445 4.23633 21.1117C4.23633 25.0788 5.10532 28.6303 6.84331 31.7663C8.61908 34.9022 11.056 37.3581 14.1542 39.1338C16.869 40.6711 19.881 41.543 23.1904 41.7494V32.822C21.6118 32.6481 20.1677 32.1829 18.8581 31.4262C17.1957 30.4061 15.8922 29.0082 14.9476 27.2324C14.0031 25.4188 13.5308 23.3786 13.5308 21.1117C13.5308 18.8447 14.0031 16.8234 14.9476 15.0476C15.8922 13.2341 17.1957 11.8172 18.8581 10.7971C20.1677 10.0113 21.6118 9.52818 23.1904 9.34767V0.473892ZM25.1804 32.8896V41.7937C28.4512 41.7364 31.4443 41.0198 34.1599 39.6439C37.0314 38.1704 39.3361 36.1301 41.0741 33.5232C42.8498 30.9162 43.87 27.988 44.1344 24.7388H34.9533C34.6133 26.4012 33.9521 27.8558 32.9698 29.1026C32.0252 30.3117 30.8351 31.2562 29.3993 31.9363C28.1451 32.5126 26.7388 32.8303 25.1804 32.8896ZM25.1804 9.27769V0.429688C28.4512 0.48854 31.4443 1.22402 34.1599 2.63611C37.0314 4.07184 39.3361 6.0932 41.0741 8.70018C42.8498 11.3072 43.87 14.2353 44.1344 17.4846H34.9533C34.6133 15.8221 33.9521 14.3864 32.9698 13.1774C32.0252 11.9306 30.8351 10.9671 29.3993 10.287C28.1451 9.67686 26.7388 9.34042 25.1804 9.27769Z" fill="url(#paint5_linear_1448_77)"/>
<rect x="0.292969" y="45.6533" width="135.752" height="18.4404" rx="0.75" stroke="url(#paint6_linear_1448_77)" stroke-width="0.5"/>
<path d="M9.03343 61.001C8.54277 61.001 8.1241 60.8917 7.77743 60.673C7.4361 60.449 7.17477 60.145 6.99343 59.761C6.81743 59.377 6.72943 58.9424 6.72943 58.457V51.529C6.72943 51.049 6.8201 50.617 7.00143 50.233C7.1881 49.849 7.45477 49.545 7.80143 49.321C8.1481 49.097 8.55877 48.985 9.03343 48.985C9.39077 48.985 9.71077 49.0517 9.99343 49.185C10.2761 49.3184 10.5161 49.5024 10.7134 49.737C10.9161 49.9664 11.0708 50.2357 11.1774 50.545C11.2841 50.849 11.3374 51.177 11.3374 51.529V53.145H9.72143V51.529C9.72143 51.2837 9.67077 51.0784 9.56943 50.913C9.4681 50.7477 9.3001 50.665 9.06543 50.665C8.8521 50.665 8.69743 50.7504 8.60143 50.921C8.50543 51.0917 8.45743 51.2944 8.45743 51.529V58.457C8.45743 58.6917 8.5081 58.8944 8.60943 59.065C8.7161 59.2357 8.8681 59.321 9.06543 59.321C9.30543 59.321 9.47343 59.2384 9.56943 59.073C9.67077 58.9077 9.72143 58.7024 9.72143 58.457V56.841H11.3374V58.457C11.3374 58.937 11.2441 59.369 11.0574 59.753C10.8708 60.137 10.6041 60.441 10.2574 60.665C9.9161 60.889 9.5081 61.001 9.03343 61.001ZM14.7678 61.001C14.2878 61.001 13.8745 60.889 13.5278 60.665C13.1865 60.441 12.9225 60.137 12.7358 59.753C12.5545 59.369 12.4638 58.937 12.4638 58.457V51.529C12.4638 51.0437 12.5545 50.6117 12.7358 50.233C12.9225 49.849 13.1865 49.545 13.5278 49.321C13.8745 49.097 14.2878 48.985 14.7678 48.985C15.2478 48.985 15.6585 49.097 15.9998 49.321C16.3465 49.545 16.6105 49.849 16.7918 50.233C16.9785 50.617 17.0718 51.049 17.0718 51.529V58.457C17.0718 58.937 16.9785 59.369 16.7918 59.753C16.6105 60.137 16.3465 60.441 15.9998 60.665C15.6585 60.889 15.2478 61.001 14.7678 61.001ZM14.7678 59.321C14.9811 59.321 15.1305 59.233 15.2158 59.057C15.3011 58.8757 15.3438 58.6757 15.3438 58.457V51.529C15.3438 51.3104 15.2985 51.113 15.2078 50.937C15.1171 50.7557 14.9705 50.665 14.7678 50.665C14.5705 50.665 14.4238 50.7557 14.3278 50.937C14.2371 51.113 14.1918 51.3104 14.1918 51.529V58.457C14.1918 58.6757 14.2371 58.8757 14.3278 59.057C14.4185 59.233 14.5651 59.321 14.7678 59.321ZM18.2782 60.873V49.113H19.8942L21.4942 55.241L21.6382 55.785H21.7342V49.113H23.3182V60.873H21.8622L20.1022 54.745L19.9582 54.201H19.8622V60.873H18.2782ZM25.7427 60.873V50.889H24.1107V49.113H29.1027V50.889H27.4707V60.873H25.7427ZM28.7463 60.873L30.5223 49.113H32.6343L34.4103 60.873H32.7303L32.4103 58.473H30.7463L30.4263 60.873H28.7463ZM30.9863 56.649H32.1703L31.6743 52.697L31.6263 52.073H31.5303L31.4823 52.697L30.9863 56.649ZM35.3251 60.873V49.113H37.0851C37.6824 49.113 38.1971 49.2197 38.6291 49.433C39.0664 49.641 39.4024 49.969 39.6371 50.417C39.8771 50.865 39.9971 51.4437 39.9971 52.153C39.9971 52.7184 39.9224 53.2117 39.7731 53.633C39.6291 54.0544 39.3464 54.3984 38.9251 54.665C39.3517 54.8997 39.6584 55.273 39.8451 55.785C40.0317 56.2917 40.1251 56.8784 40.1251 57.545C40.1251 58.201 40.0184 58.7797 39.8051 59.281C39.5971 59.7824 39.2877 60.1744 38.8771 60.457C38.4717 60.7344 37.9704 60.873 37.3731 60.873H35.3251ZM37.0531 59.161C37.5757 59.161 37.9197 59.0064 38.0851 58.697C38.2504 58.3824 38.3331 57.9344 38.3331 57.353C38.3331 56.761 38.2504 56.313 38.0851 56.009C37.9197 55.6997 37.5757 55.545 37.0531 55.545V59.161ZM37.0531 53.961C37.5384 53.961 37.8717 53.8277 38.0531 53.561C38.2397 53.2944 38.3331 52.8997 38.3331 52.377C38.3331 51.849 38.2371 51.4597 38.0451 51.209C37.8584 50.953 37.5277 50.825 37.0531 50.825V53.961ZM41.1532 60.873V49.113H42.8812V60.873H41.1532ZM44.1688 60.873V49.113H45.8968V59.273H48.1848V60.873H44.1688ZM48.8876 60.873V49.113H50.6156V60.873H48.8876ZM51.9032 60.873V49.113H53.6632C54.2179 49.113 54.6872 49.2037 55.0712 49.385C55.4552 49.5664 55.7645 49.8757 55.9992 50.313C56.2339 50.7504 56.4019 51.3504 56.5032 52.113C56.6099 52.8757 56.6632 53.8384 56.6632 55.001C56.6632 56.169 56.6099 57.1344 56.5032 57.897C56.4019 58.6544 56.2339 59.2517 55.9992 59.689C55.7645 60.121 55.4552 60.4277 55.0712 60.609C54.6872 60.785 54.2179 60.873 53.6632 60.873H51.9032ZM53.6312 59.145C54.0579 59.145 54.3592 58.977 54.5352 58.641C54.7112 58.305 54.8179 57.825 54.8552 57.201C54.8925 56.577 54.9112 55.8357 54.9112 54.977C54.9112 54.1077 54.8925 53.3664 54.8552 52.753C54.8179 52.1344 54.7085 51.6624 54.5272 51.337C54.3512 51.0064 54.0525 50.841 53.6312 50.841V59.145ZM57.4963 60.873L59.2723 49.113H61.3843L63.1603 60.873H61.4803L61.1603 58.473H59.4963L59.1763 60.873H57.4963ZM59.7363 56.649H60.9203L60.4243 52.697L60.3763 52.073H60.2803L60.2323 52.697L59.7363 56.649ZM64.0751 60.873V49.113H65.8351C66.3897 49.113 66.8591 49.2037 67.2431 49.385C67.6271 49.5664 67.9364 49.8757 68.1711 50.313C68.4057 50.7504 68.5737 51.3504 68.6751 52.113C68.7817 52.8757 68.8351 53.8384 68.8351 55.001C68.8351 56.169 68.7817 57.1344 68.6751 57.897C68.5737 58.6544 68.4057 59.2517 68.1711 59.689C67.9364 60.121 67.6271 60.4277 67.2431 60.609C66.8591 60.785 66.3897 60.873 65.8351 60.873H64.0751ZM65.8031 59.145C66.2297 59.145 66.5311 58.977 66.7071 58.641C66.8831 58.305 66.9897 57.825 67.0271 57.201C67.0644 56.577 67.0831 55.8357 67.0831 54.977C67.0831 54.1077 67.0644 53.3664 67.0271 52.753C66.9897 52.1344 66.8804 51.6624 66.6991 51.337C66.5231 51.0064 66.2244 50.841 65.8031 50.841V59.145ZM70.0282 60.873V49.113H73.9802V50.889H71.7562V54.057H73.3562V55.785H71.7562V59.097H73.9802V60.873H70.0282ZM77.7313 60.873V49.113H79.4593C80.1153 49.113 80.662 49.257 81.0993 49.545C81.542 49.833 81.8726 50.241 82.0913 50.769C82.31 51.297 82.4193 51.9184 82.4193 52.633C82.4193 53.3477 82.3046 53.9637 82.0753 54.481C81.846 54.9984 81.51 55.4037 81.0673 55.697C80.63 55.985 80.094 56.1424 79.4593 56.169V60.873H77.7313ZM79.4593 54.409C79.7633 54.409 80.0033 54.3504 80.1793 54.233C80.3553 54.1104 80.4806 53.9184 80.5553 53.657C80.6353 53.3957 80.6753 53.0597 80.6753 52.649C80.6753 52.233 80.6353 51.8944 80.5553 51.633C80.4806 51.3717 80.3526 51.1797 80.1713 51.057C79.9953 50.9344 79.758 50.873 79.4593 50.873V54.409ZM82.9963 60.873L84.7723 49.113H86.8843L88.6603 60.873H86.9803L86.6603 58.473H84.9963L84.6763 60.873H82.9963ZM85.2363 56.649H86.4203L85.9243 52.697L85.8763 52.073H85.7803L85.7323 52.697L85.2363 56.649ZM89.5751 60.873V49.113H91.3031C92.3377 49.113 93.1004 49.401 93.5911 49.977C94.0817 50.5477 94.3271 51.3904 94.3271 52.505C94.3271 53.1664 94.2097 53.7397 93.9751 54.225C93.7457 54.705 93.4657 55.057 93.1351 55.281L94.3111 60.873H92.5831L91.6071 55.913H91.3031V60.873H89.5751ZM91.3031 54.313C91.6231 54.313 91.8764 54.2437 92.0631 54.105C92.2497 53.961 92.3831 53.7584 92.4631 53.497C92.5431 53.2357 92.5831 52.9264 92.5831 52.569C92.5831 52.009 92.4897 51.5797 92.3031 51.281C92.1217 50.977 91.7884 50.825 91.3031 50.825V54.313ZM96.4458 60.873V50.889H94.8138V49.113H99.8058V50.889H98.1738V60.873H96.4458ZM100.606 60.873V49.113H102.334V60.873H100.606ZM103.622 60.873V49.113H105.382C105.937 49.113 106.406 49.2037 106.79 49.385C107.174 49.5664 107.483 49.8757 107.718 50.313C107.953 50.7504 108.121 51.3504 108.222 52.113C108.329 52.8757 108.382 53.8384 108.382 55.001C108.382 56.169 108.329 57.1344 108.222 57.897C108.121 58.6544 107.953 59.2517 107.718 59.689C107.483 60.121 107.174 60.4277 106.79 60.609C106.406 60.785 105.937 60.873 105.382 60.873H103.622ZM105.35 59.145C105.777 59.145 106.078 58.977 106.254 58.641C106.43 58.305 106.537 57.825 106.574 57.201C106.611 56.577 106.63 55.8357 106.63 54.977C106.63 54.1077 106.611 53.3664 106.574 52.753C106.537 52.1344 106.427 51.6624 106.246 51.337C106.07 51.0064 105.771 50.841 105.35 50.841V59.145ZM109.215 60.873L110.991 49.113H113.103L114.879 60.873H113.199L112.879 58.473H111.215L110.895 60.873H109.215ZM111.455 56.649H112.639L112.143 52.697L112.095 52.073H111.999L111.951 52.697L111.455 56.649ZM111.263 48.073L112.335 46.633H114.015L112.511 48.073H111.263ZM115.794 60.873V49.113H117.522C118.556 49.113 119.319 49.401 119.81 49.977C120.3 50.5477 120.546 51.3904 120.546 52.505C120.546 53.1664 120.428 53.7397 120.194 54.225C119.964 54.705 119.684 55.057 119.354 55.281L120.53 60.873H118.802L117.826 55.913H117.522V60.873H115.794ZM117.522 54.313C117.842 54.313 118.095 54.2437 118.282 54.105C118.468 53.961 118.602 53.7584 118.682 53.497C118.762 53.2357 118.802 52.9264 118.802 52.569C118.802 52.009 118.708 51.5797 118.522 51.281C118.34 50.977 118.007 50.825 117.522 50.825V54.313ZM121.513 60.873V49.113H123.241V60.873H121.513ZM124.168 60.873L125.944 49.113H128.056L129.832 60.873H128.152L127.832 58.473H126.168L125.848 60.873H124.168ZM126.408 56.649H127.592L127.096 52.697L127.048 52.073H126.952L126.904 52.697L126.408 56.649Z" fill="url(#paint7_linear_1448_77)"/>
<defs>
<linearGradient id="paint0_linear_1448_77" x1="91.3543" y1="0.970381" x2="96.7843" y2="8.44129" gradientUnits="userSpaceOnUse">
<stop offset="0.0116797" stop-color="#FEEA51"/>
<stop offset="1" stop-color="#F9DD04"/>
</linearGradient>
<linearGradient id="paint1_linear_1448_77" x1="124.212" y1="0.970381" x2="129.642" y2="8.4412" gradientUnits="userSpaceOnUse">
<stop offset="0.0116797" stop-color="#FEEA51"/>
<stop offset="1" stop-color="#F9DD04"/>
</linearGradient>
<linearGradient id="paint2_linear_1448_77" x1="92.8125" y1="11.5543" x2="122.358" y2="49.4755" gradientUnits="userSpaceOnUse">
<stop offset="0.0116797" stop-color="#FEEA51"/>
<stop offset="1" stop-color="#F9DD04"/>
</linearGradient>
<linearGradient id="paint3_linear_1448_77" x1="52.5923" y1="4.04425" x2="89.8223" y2="34.7168" gradientUnits="userSpaceOnUse">
<stop offset="0.0116797" stop-color="#FEEA51"/>
<stop offset="1" stop-color="#F9DD04"/>
</linearGradient>
<linearGradient id="paint4_linear_1448_77" x1="64.2761" y1="18.7165" x2="69.7569" y2="24.3804" gradientUnits="userSpaceOnUse">
<stop offset="0.0116797" stop-color="#FEEA51"/>
<stop offset="1" stop-color="#F9DD04"/>
</linearGradient>
<linearGradient id="paint5_linear_1448_77" x1="6.007" y1="4.04505" x2="43.9054" y2="41.9957" gradientUnits="userSpaceOnUse">
<stop offset="0.0116797" stop-color="#FEEA51"/>
<stop offset="1" stop-color="#F9DD04"/>
</linearGradient>
<linearGradient id="paint6_linear_1448_77" x1="6.08981" y1="47.0588" x2="10.6552" y2="81.1546" gradientUnits="userSpaceOnUse">
<stop offset="0.0116797" stop-color="#FEEA51"/>
<stop offset="1" stop-color="#F9DD04"/>
</linearGradient>
<linearGradient id="paint7_linear_1448_77" x1="11.6725" y1="47.4463" x2="16.196" y2="79.7976" gradientUnits="userSpaceOnUse">
<stop offset="0.0116797" stop-color="#FEEA51"/>
<stop offset="1" stop-color="#F9DD04"/>
</linearGradient>
</defs>
</svg>
