<svg width="131" height="79" viewBox="0 0 131 79" fill="none" xmlns="http://www.w3.org/2000/svg">
<path d="M38.0035 3.36613C34.7843 1.81996 31.7265 1.00071 28.138 0.723781C27.3418 0.666093 22.8418 0.608398 18.134 0.608398H9.56079V6.14694V11.674L18.5955 11.7086L27.6188 11.7547L28.7842 12.0547C33.6996 13.3586 37.542 16.4856 39.7343 20.951C40.969 23.4664 41.4421 25.5549 41.4421 28.3588C41.4421 31.0012 40.9344 33.2166 39.8036 35.5474C37.4381 40.3705 33.0419 43.6821 27.7341 44.6398C27.0303 44.7668 25.7149 44.8475 23.6725 44.8821L20.6379 44.9514V29.755V14.5701H15.0993H9.56079V35.1666V55.7631L17.8455 55.7862C28.1611 55.8323 28.4034 55.8208 30.065 55.59C35.9266 54.7477 41.4421 51.9553 45.6767 47.686C50.0499 43.2667 52.8538 37.4051 53.5115 31.2781C53.6961 29.6512 53.6615 26.6165 53.4653 24.9549C52.2999 15.6202 46.4267 7.40466 38.0035 3.36613Z" fill="url(#paint0_linear_11608_2870)"/>
<path d="M73.9464 8.91622V4.76231V0.608398H68.4078H62.8693V4.76231V8.91622H68.4078H73.9464Z" fill="url(#paint1_linear_11608_2870)"/>
<path d="M118.024 8.91622V4.76231V0.608398H112.485H106.947V4.76231V8.91622H112.485H118.024Z" fill="url(#paint2_linear_11608_2870)"/>
<path d="M73.9464 43.1514V27.355V11.5701H68.4078H62.8693V33.7358V55.9131L69.4002 55.8554L75.931 55.7977L83.1888 48.5399L90.4466 41.2821L97.7044 48.5399L104.962 55.7977L111.493 55.8554L118.024 55.9131V33.7358V11.5701H112.485H106.947V27.3434V43.1283L98.6968 34.8781L90.4466 26.628L82.1965 34.8897L73.9464 43.1514Z" fill="url(#paint3_linear_11608_2870)"/>
<path d="M34.4381 26.478C34.0458 25.7049 33.3881 25.0472 32.615 24.6549C32.1188 24.4011 31.8188 24.3318 31.0227 24.3088C29.9034 24.2626 29.5919 24.3434 28.7149 24.8626C26.5341 26.178 26.188 29.2473 28.0111 31.0819C29.1765 32.2473 30.815 32.582 32.3496 31.9935C33.2842 31.6358 34.2419 30.655 34.5996 29.7204C34.9573 28.7742 34.8881 27.355 34.4381 26.478Z" fill="url(#paint4_linear_11608_2870)"/>
<path d="M1.10287 60.3316C0.960721 60.3908 0.794882 60.5448 0.723808 60.6751C0.629043 60.8291 0.593506 63.6484 0.593506 69.512V78.1119L0.889647 78.3962L1.17394 78.6924H65.4958H129.818L130.149 78.4081L130.481 78.1238L130.434 69.4883C130.41 64.4302 130.351 60.7818 130.28 60.6515C130.22 60.533 130.043 60.3908 129.877 60.3316C129.486 60.1776 1.47008 60.1895 1.10287 60.3316ZM104.456 61.99L103.591 62.9377H102.964H102.324L102.656 62.3691C103.485 60.9594 103.366 61.0424 104.397 61.0424H105.321L104.456 61.99ZM19.5821 63.6721C20.6127 63.9801 21.3234 65.1173 21.3234 66.4558V66.9652H20.435H19.5466V66.4795C19.5466 65.9938 19.3807 65.5556 19.1438 65.4016C19.0727 65.3542 18.824 65.3068 18.5989 65.3068C18.3738 65.3068 18.1251 65.3542 18.054 65.4016C17.6394 65.674 17.5328 66.5743 17.8408 67.2969C17.9355 67.5456 18.5871 68.3156 19.3096 69.05C20.2573 70.0095 20.6837 70.5426 20.9206 71.0401C21.3234 71.9285 21.4182 72.9828 21.1576 73.8594C20.7785 75.1742 20.0559 75.6717 18.4804 75.6717C17.367 75.6717 16.7036 75.423 16.2416 74.8307C15.8981 74.3924 15.6375 73.4448 15.6375 72.6274V71.9404H16.5259H17.4143V72.6393C17.4143 73.5751 17.6986 73.9541 18.3975 73.9541C18.67 73.9541 18.9543 73.9067 19.0253 73.8594C19.4399 73.5869 19.5466 72.6985 19.2504 71.9877C19.1556 71.7627 18.4804 70.9453 17.7342 70.1872C16.2298 68.6236 15.8862 68.055 15.7915 66.8586C15.6612 65.2831 16.3601 63.9801 17.4973 63.6721C18.1369 63.5063 19.0253 63.5063 19.5821 63.6721ZM25.9787 63.6721C27.0093 63.9801 27.7201 65.1173 27.7201 66.4558V66.9652H26.8316H25.9432V66.4795C25.9432 65.9938 25.7774 65.5556 25.5405 65.4016C25.4694 65.3542 25.2206 65.3068 24.9956 65.3068C24.7705 65.3068 24.5217 65.3542 24.4507 65.4016C24.0361 65.674 23.9294 66.5743 24.2374 67.2969C24.3322 67.5456 24.9837 68.3156 25.7063 69.05C26.6539 70.0095 27.0804 70.5426 27.3173 71.0401C27.7201 71.9285 27.8148 72.9828 27.5542 73.8594C27.1752 75.1742 26.4526 75.6717 24.8771 75.6717C23.7636 75.6717 23.1002 75.423 22.6383 74.8307C22.2947 74.3924 22.0341 73.4448 22.0341 72.6274V71.9404H22.9226H23.811V72.6393C23.811 73.5751 24.0953 73.9541 24.7942 73.9541C25.0666 73.9541 25.3509 73.9067 25.422 73.8594C25.8366 73.5869 25.9432 72.6985 25.6471 71.9877C25.5523 71.7627 24.8771 70.9453 24.1308 70.1872C22.6264 68.6236 22.2829 68.055 22.1881 66.8586C22.0578 65.2831 22.7567 63.9801 23.8939 63.6721C24.5336 63.5063 25.422 63.5063 25.9787 63.6721ZM38.6536 63.6721C39.6842 63.9801 40.3949 65.1173 40.3949 66.4558V66.9652H39.5065H38.6181V66.4795C38.6181 65.9938 38.4522 65.5556 38.2153 65.4016C38.1442 65.3542 37.8955 65.3068 37.6704 65.3068C37.4453 65.3068 37.1966 65.3542 37.1255 65.4016C36.7109 65.674 36.6043 66.5743 36.9123 67.2969C37.007 67.5456 37.6586 68.3156 38.3811 69.05C39.3288 70.0095 39.7552 70.5426 39.9921 71.0401C40.3949 71.9285 40.4897 72.9828 40.2291 73.8594C39.85 75.1742 39.1274 75.6717 37.5519 75.6717C36.4385 75.6717 35.7751 75.423 35.3131 74.8307C34.9696 74.3924 34.709 73.4448 34.709 72.6274V71.9404H35.5974H36.4858V72.6393C36.4858 73.5751 36.7701 73.9541 37.469 73.9541C37.7415 73.9541 38.0258 73.9067 38.0968 73.8594C38.5114 73.5869 38.6181 72.6985 38.3219 71.9877C38.2271 71.7627 37.5519 70.9453 36.8057 70.1872C35.3013 68.6236 34.9577 68.055 34.863 66.8586C34.7327 65.2831 35.4316 63.9801 36.5688 63.6721C37.2084 63.5063 38.0968 63.5063 38.6536 63.6721ZM45.0502 63.6721C46.0808 63.9801 46.7916 65.1173 46.7916 66.4558V66.9652H45.9031H45.0147V66.4795C45.0147 65.9938 44.8489 65.5556 44.612 65.4016C44.5409 65.3542 44.2921 65.3068 44.0671 65.3068C43.842 65.3068 43.5932 65.3542 43.5222 65.4016C43.1076 65.674 43.0009 66.5743 43.3089 67.2969C43.4037 67.5456 44.0552 68.3156 44.7778 69.05C45.7254 70.0095 46.1519 70.5426 46.3888 71.0401C46.7916 71.9285 46.8863 72.9828 46.6257 73.8594C46.2467 75.1742 45.5241 75.6717 43.9486 75.6717C42.8351 75.6717 42.1718 75.423 41.7098 74.8307C41.3662 74.3924 41.1056 73.4448 41.1056 72.6274V71.9404H41.9941H42.8825V72.6393C42.8825 73.5751 43.1668 73.9541 43.8657 73.9541C44.1381 73.9541 44.4224 73.9067 44.4935 73.8594C44.9081 73.5869 45.0147 72.6985 44.7186 71.9877C44.6238 71.7627 43.9486 70.9453 43.2023 70.1872C41.6979 68.6236 41.3544 68.055 41.2596 66.8586C41.1293 65.2831 41.8282 63.9801 42.9654 63.6721C43.6051 63.5063 44.4935 63.5063 45.0502 63.6721ZM51.9918 63.8142C52.2169 63.9327 52.5485 64.1933 52.7381 64.4065C53.3659 65.0817 53.4251 65.5674 53.4251 69.6305C53.4251 73.6935 53.3659 74.1792 52.7381 74.8544C52.1339 75.5177 51.7075 75.6717 50.5229 75.6717C49.3384 75.6717 48.9119 75.5177 48.3078 74.8544C47.68 74.1792 47.6208 73.6935 47.6208 69.6305C47.6208 65.7095 47.68 65.1883 48.2012 64.525C48.7816 63.7905 49.5042 63.5063 50.7006 63.5655C51.2455 63.5892 51.743 63.6839 51.9918 63.8142ZM78.5024 63.8616C79.4263 64.3354 79.8409 65.2594 79.8409 66.8112V67.6759H78.9525H78.0641V66.7993C78.0641 65.6622 77.8272 65.3068 77.0572 65.3068C76.6426 65.3068 76.4886 65.366 76.2991 65.6148C76.0622 65.9228 76.0503 66.0649 76.0503 69.5949C76.0503 73.9186 76.0622 73.9541 77.0809 73.9541C77.4718 73.9541 77.6258 73.8949 77.8153 73.6461C78.0285 73.3737 78.0641 73.1605 78.0641 72.2247V71.1112H78.9644H79.8646L79.8172 72.509C79.7817 73.7054 79.7343 73.966 79.4856 74.4279C78.9644 75.3519 77.993 75.802 76.7018 75.6954C75.8845 75.6362 75.1264 75.2927 74.7591 74.8307C74.2024 74.12 74.1432 73.5395 74.1787 69.3699C74.2142 65.4845 74.2142 65.4726 74.5104 64.904C74.8421 64.2644 75.1856 63.9564 75.8845 63.6958C76.536 63.4589 77.8627 63.5418 78.5024 63.8616ZM85.1596 63.8142C85.3847 63.9327 85.7164 64.1933 85.9059 64.4065C86.5337 65.0817 86.593 65.5674 86.593 69.6305C86.593 73.6935 86.5337 74.1792 85.9059 74.8544C85.3018 75.5177 84.8753 75.6717 83.6908 75.6717C82.5062 75.6717 82.0798 75.5177 81.4756 74.8544C80.8478 74.1792 80.7886 73.6935 80.7886 69.6305C80.7886 65.7095 80.8478 65.1883 81.369 64.525C81.9495 63.7905 82.672 63.5063 83.8685 63.5655C84.4134 63.5892 84.9109 63.6839 85.1596 63.8142ZM13.1499 63.7313C13.1499 63.8379 14.9149 74.8781 14.9978 75.2808L15.0689 75.6125H14.1094C13.0433 75.6125 13.1025 75.6599 12.9722 74.5464C12.8419 73.3974 12.9248 73.4684 11.6337 73.504C10.7215 73.5277 10.4846 73.5751 10.4609 73.7172C10.4491 73.812 10.378 74.2858 10.3069 74.7478L10.1648 75.6125H9.27637C8.61301 75.6125 8.39979 75.577 8.43533 75.4585C8.47087 75.3874 8.90916 72.6866 9.43036 69.4765L10.3543 63.6484H11.7521C12.5221 63.6484 13.1499 63.6839 13.1499 63.7313ZM33.8798 64.5368V65.4252H32.2806H30.6815V67.0244V68.6117L31.9608 68.6473L33.2283 68.6828L33.2638 69.5357L33.2994 70.4004H31.9845H30.6815V72.118V73.8357H32.2806H33.8798V74.7241V75.6125H31.333H28.7862V69.6305V63.6484H31.333H33.8798V64.5368ZM58.578 63.7787C59.727 64.0985 60.189 64.8211 60.2719 66.4321C60.343 67.9365 60.1535 68.8013 59.5967 69.3343L59.1703 69.7608L59.5967 70.1872C60.1653 70.7439 60.2956 71.3244 60.2956 73.35C60.2956 74.2621 60.343 75.1387 60.4141 75.3045L60.5325 75.6125H59.5256C58.9689 75.6125 58.5069 75.6007 58.5069 75.577C58.4951 75.5651 58.4595 74.6056 58.4121 73.4448L58.3411 71.3244L58.0094 71.0401C57.7488 70.8269 57.5356 70.7558 57.0854 70.7558H56.505V73.1842V75.6125H55.5573H54.6097V69.6305V63.6484H56.3628C57.3223 63.6484 58.3174 63.7076 58.578 63.7787ZM63.3755 69.6305V75.6125H62.4278H61.4802V69.6305V63.6484H62.4278H63.3755V69.6305ZM68.9429 63.7313C68.9429 63.8379 70.7079 74.8781 70.7908 75.2808L70.8619 75.6125H69.9024C68.8363 75.6125 68.8955 75.6599 68.7652 74.5464C68.6349 73.3974 68.7179 73.4684 67.4267 73.504C66.5146 73.5277 66.2777 73.5751 66.254 73.7172C66.2421 73.812 66.171 74.2858 66.1 74.7478L65.9578 75.6125H65.0694C64.406 75.6125 64.1928 75.577 64.2284 75.4585C64.2639 75.3874 64.7022 72.6866 65.2234 69.4765L66.1474 63.6484H67.5451C68.3151 63.6484 68.9429 63.6839 68.9429 63.7313ZM90.964 66.8467C91.426 68.6117 91.8643 70.1754 91.9235 70.3175C91.9827 70.4833 92.0301 69.2751 92.0301 67.1073L92.042 63.6484H92.8712H93.7003V69.6305V75.6125H92.729H91.7458L90.6205 71.3955L89.4951 67.1784L89.4596 71.3955L89.4359 75.6125H88.6067H87.7775V69.6305V63.6484H88.9384H90.1111L90.964 66.8467ZM100.429 64.5013L100.393 65.366L99.4218 65.4016L98.4386 65.4371V70.5189V75.6125H97.491H96.5433V70.5189V65.4371L95.572 65.4016L94.5888 65.366L94.5532 64.5013L94.5177 63.6484H97.491H100.464L100.429 64.5013ZM104.717 63.7313C104.717 63.8379 106.482 74.8781 106.565 75.2808L106.636 75.6125H105.676C104.61 75.6125 104.669 75.6599 104.539 74.5464C104.409 73.3974 104.492 73.4684 103.201 73.504C102.288 73.5277 102.052 73.5751 102.028 73.7172C102.016 73.812 101.945 74.2858 101.874 74.7478L101.732 75.6125H100.843C100.18 75.6125 99.9667 75.577 100.002 75.4585C100.038 75.3874 100.476 72.6866 100.997 69.4765L101.921 63.6484H103.319C104.089 63.6484 104.717 63.6839 104.717 63.7313ZM111.528 63.8142C112.618 64.1459 113.127 65.0225 113.127 66.5743C113.127 67.6522 112.926 68.3393 112.452 68.825C112.239 69.0619 112.073 69.2632 112.085 69.2751C113.032 69.8081 113.281 70.3294 113.34 71.9522C113.4 73.6224 113.198 74.3687 112.523 74.9373C111.883 75.4941 111.315 75.6125 109.289 75.6125H107.56V69.6305V63.6484H109.254C110.403 63.6484 111.149 63.7076 111.528 63.8142ZM116.326 69.6305V75.6125H115.378H114.43V69.6305V63.6484H115.378H116.326V69.6305ZM119.642 68.742V73.8357H121.182H122.722V74.7241V75.6125H120.235H117.747V69.6305V63.6484H118.695H119.642V68.742Z" fill="#29292E"/>
<path d="M49.7646 65.6148C49.5277 65.9227 49.5159 66.0649 49.5159 69.6304C49.5159 73.196 49.5277 73.3381 49.7646 73.6461C49.9542 73.8949 50.1082 73.9541 50.5227 73.9541C50.9373 73.9541 51.0913 73.8949 51.2809 73.6461C51.5178 73.3381 51.5296 73.196 51.5296 69.6304C51.5296 66.0649 51.5178 65.9227 51.2809 65.6148C51.0913 65.366 50.9373 65.3068 50.5227 65.3068C50.1082 65.3068 49.9542 65.366 49.7646 65.6148Z" fill="#29292E"/>
<path d="M82.9326 65.6148C82.6957 65.9227 82.6838 66.0649 82.6838 69.6304C82.6838 73.196 82.6957 73.3381 82.9326 73.6461C83.1221 73.8949 83.2761 73.9541 83.6907 73.9541C84.1053 73.9541 84.2593 73.8949 84.4488 73.6461C84.6858 73.3381 84.6976 73.196 84.6976 69.6304C84.6976 66.0649 84.6858 65.9227 84.4488 65.6148C84.2593 65.366 84.1053 65.3068 83.6907 65.3068C83.2761 65.3068 83.1221 65.366 82.9326 65.6148Z" fill="#29292E"/>
<path d="M11.6217 66.0179C11.6098 66.0534 11.4203 67.3091 11.1952 68.8016C10.9702 70.306 10.7806 71.5972 10.7806 71.6683C10.7806 71.7749 11.0412 71.8223 11.6809 71.8223H12.5812L12.5101 71.4906C12.4746 71.3129 12.285 70.0454 12.0837 68.6832C11.752 66.4325 11.6454 65.8402 11.6217 66.0179Z" fill="#29292E"/>
<path d="M56.5049 67.2026V68.9795H57.1564C58.2343 68.9795 58.4476 68.6004 58.3883 66.9183C58.3291 65.6272 58.1751 65.4258 57.1919 65.4258H56.5049V67.2026Z" fill="#29292E"/>
<path d="M67.4148 66.0179C67.4029 66.0534 67.2134 67.3091 66.9883 68.8016C66.7633 70.306 66.5737 71.5972 66.5737 71.6683C66.5737 71.7749 66.8343 71.8223 67.474 71.8223H68.3743L68.3032 71.4906C68.2677 71.3129 68.0781 70.0454 67.8768 68.6832C67.5451 66.4325 67.4385 65.8402 67.4148 66.0179Z" fill="#29292E"/>
<path d="M103.189 66.0179C103.177 66.0534 102.987 67.3091 102.762 68.8016C102.537 70.306 102.348 71.5972 102.348 71.6683C102.348 71.7749 102.608 71.8223 103.248 71.8223H104.148L104.077 71.4906C104.042 71.3129 103.852 70.0454 103.651 68.6832C103.319 66.4325 103.212 65.8402 103.189 66.0179Z" fill="#29292E"/>
<path d="M109.455 66.9649V68.5049H110.047C111.031 68.5049 111.291 68.0666 111.208 66.6214C111.149 65.5672 111.031 65.425 110.154 65.425H109.455V66.9649Z" fill="#29292E"/>
<path d="M109.455 72.0591V73.8359H110.201C111.362 73.8359 111.41 73.7649 111.41 72.1183C111.41 70.8034 111.398 70.7205 111.125 70.5073C110.924 70.3415 110.663 70.2822 110.154 70.2822H109.455V72.0591Z" fill="#29292E"/>
<defs>
<linearGradient id="paint0_linear_11608_2870" x1="9.56079" y1="0.608398" x2="118.024" y2="55.9131" gradientUnits="userSpaceOnUse">
<stop stop-color="#FBFC56"/>
<stop offset="1" stop-color="#D4EB01"/>
</linearGradient>
<linearGradient id="paint1_linear_11608_2870" x1="9.56079" y1="0.608398" x2="118.024" y2="55.9131" gradientUnits="userSpaceOnUse">
<stop stop-color="#FBFC56"/>
<stop offset="1" stop-color="#D4EB01"/>
</linearGradient>
<linearGradient id="paint2_linear_11608_2870" x1="9.56079" y1="0.608398" x2="118.024" y2="55.9131" gradientUnits="userSpaceOnUse">
<stop stop-color="#FBFC56"/>
<stop offset="1" stop-color="#D4EB01"/>
</linearGradient>
<linearGradient id="paint3_linear_11608_2870" x1="9.56079" y1="0.608398" x2="118.024" y2="55.9131" gradientUnits="userSpaceOnUse">
<stop stop-color="#FBFC56"/>
<stop offset="1" stop-color="#D4EB01"/>
</linearGradient>
<linearGradient id="paint4_linear_11608_2870" x1="9.56079" y1="0.608398" x2="118.024" y2="55.9131" gradientUnits="userSpaceOnUse">
<stop stop-color="#FBFC56"/>
<stop offset="1" stop-color="#D4EB01"/>
</linearGradient>
</defs>
</svg>
