<svg width="255" height="46" viewBox="0 0 255 46" fill="none" xmlns="http://www.w3.org/2000/svg">
<path d="M95.7951 8.36563V5.2502V2.13477H91.6663H87.5376V5.2502V8.36563H91.6663H95.7951Z" fill="#29292E"/>
<path d="M128.653 8.36563V5.2502V2.13477H124.525H120.396V5.2502V8.36563H124.525H128.653Z" fill="#29292E"/>
<path d="M95.7951 34.0424V22.1951V10.3564H91.6663H87.5376V26.9807V43.6137L92.406 43.5704L97.2745 43.5271L102.685 38.0838L108.095 32.6404L113.506 38.0838L118.916 43.5271L123.784 43.5704L128.653 43.6137V26.9807V10.3564H124.524H120.395V22.1864V34.0251L114.245 27.8375L108.095 21.6499L101.945 27.8461L95.7951 34.0424Z" fill="#29292E"/>
<path d="M68.8869 4.20307C66.487 3.04343 64.2076 2.429 61.5326 2.2213C60.939 2.17804 57.5844 2.13477 54.075 2.13477H47.6841V6.28868V10.434L54.4191 10.4599L61.1455 10.4945L62.0142 10.7195C65.6785 11.6974 68.5428 14.0427 70.1771 17.3917C71.0974 19.2783 71.4501 20.8446 71.4501 22.9476C71.4501 24.9294 71.0716 26.5909 70.2287 28.339C68.4654 31.9563 65.1882 34.44 61.2315 35.1583C60.7068 35.2536 59.7262 35.3141 58.2037 35.3401L55.9415 35.392V23.9947V12.6061H51.8128H47.6841V28.0534V43.5008L53.86 43.5181C61.5497 43.5527 61.7304 43.5441 62.969 43.371C67.3385 42.7392 71.4501 40.6449 74.6069 37.443C77.8668 34.1285 79.957 29.7323 80.4473 25.137C80.5849 23.9169 80.5591 21.6408 80.4129 20.3946C79.5442 13.3936 75.166 7.23196 68.8869 4.20307Z" fill="#29292E"/>
<path d="M66.2287 21.5376C65.9362 20.9578 65.4459 20.4645 64.8697 20.1703C64.4998 19.9799 64.2762 19.928 63.6826 19.9107C62.8483 19.8761 62.616 19.9367 61.9623 20.3261C60.3366 21.3126 60.0786 23.6146 61.4376 24.9905C62.3064 25.8646 63.5278 26.1156 64.6718 25.6742C65.3685 25.406 66.0825 24.6704 66.3491 23.9694C66.6158 23.2598 66.5642 22.1954 66.2287 21.5376Z" fill="#29292E"/>
<path fill-rule="evenodd" clip-rule="evenodd" d="M19.7402 2.18288C16.4308 2.38934 13.4188 3.26121 10.704 4.79848C7.60584 6.57425 5.16888 9.0301 3.39311 12.166C1.65513 15.302 0.786133 18.8535 0.786133 22.8206C0.786133 26.7878 1.65513 30.3393 3.39311 33.4753C5.16888 36.6112 7.60584 39.067 10.704 40.8428C13.4188 42.3801 16.4308 43.252 19.7402 43.4584V34.531C18.1616 34.3571 16.7175 33.8919 15.4079 33.1352C13.7455 32.1151 12.442 30.7171 11.4974 28.9414C10.5529 27.1278 10.0806 25.0876 10.0806 22.8206C10.0806 20.5537 10.5529 18.5324 11.4974 16.7566C12.442 14.943 13.7455 13.5262 15.4079 12.5061C16.7175 11.7203 18.1616 11.2372 19.7402 11.0567V2.18288ZM21.7302 34.5985V43.5027C25.001 43.4454 27.9941 42.7288 30.7097 41.3529C33.5812 39.8794 35.8859 37.8391 37.6239 35.2321C39.3997 32.6252 40.4198 29.697 40.6843 26.4478H31.5032C31.1631 28.1102 30.5019 29.5648 29.5196 30.8116C28.575 32.0206 27.3849 32.9652 25.9492 33.6453C24.6949 34.2215 23.2886 34.5393 21.7302 34.5985ZM21.7302 10.9867V2.13867C25.001 2.19752 27.9941 2.933 30.7097 4.3451C33.5812 5.78083 35.8859 7.80218 37.6239 10.4092C39.3997 13.0161 40.4198 15.9443 40.6843 19.1935H31.5032C31.1631 17.5311 30.5019 16.0954 29.5196 14.8864C28.575 13.6395 27.3849 12.6761 25.9492 11.996C24.6949 11.3858 23.2886 11.0494 21.7302 10.9867Z" fill="#29292E"/>
<path d="M137.407 20.5854C136.675 20.5854 136.051 20.4224 135.534 20.0963C135.025 19.7622 134.635 19.3088 134.365 18.7361C134.102 18.1634 133.971 17.5151 133.971 16.7913V6.45883C133.971 5.74296 134.106 5.09867 134.377 4.52597C134.655 3.95327 135.053 3.49988 135.57 3.16581C136.087 2.83173 136.699 2.66469 137.407 2.66469C137.94 2.66469 138.417 2.76412 138.839 2.96297C139.26 3.16183 139.618 3.43625 139.913 3.78623C140.215 4.12826 140.446 4.52995 140.605 4.99129C140.764 5.44467 140.843 5.93386 140.843 6.45883V8.86894H138.433V6.45883C138.433 6.09294 138.358 5.7867 138.207 5.54013C138.055 5.29355 137.805 5.17026 137.455 5.17026C137.137 5.17026 136.906 5.29752 136.763 5.55206C136.62 5.80659 136.548 6.10885 136.548 6.45883V16.7913C136.548 17.1413 136.624 17.4435 136.775 17.6981C136.934 17.9526 137.161 18.0799 137.455 18.0799C137.813 18.0799 138.063 17.9566 138.207 17.71C138.358 17.4634 138.433 17.1572 138.433 16.7913V14.3812H140.843V16.7913C140.843 17.5072 140.704 18.1515 140.426 18.7242C140.147 19.2969 139.75 19.7502 139.233 20.0843C138.724 20.4184 138.115 20.5854 137.407 20.5854ZM145.959 20.5854C145.244 20.5854 144.627 20.4184 144.11 20.0843C143.601 19.7502 143.207 19.2969 142.929 18.7242C142.658 18.1515 142.523 17.5072 142.523 16.7913V6.45883C142.523 5.735 142.658 5.09071 142.929 4.52597C143.207 3.95327 143.601 3.49988 144.11 3.16581C144.627 2.83173 145.244 2.66469 145.959 2.66469C146.675 2.66469 147.288 2.83173 147.797 3.16581C148.314 3.49988 148.708 3.95327 148.978 4.52597C149.256 5.09867 149.396 5.74296 149.396 6.45883V16.7913C149.396 17.5072 149.256 18.1515 148.978 18.7242C148.708 19.2969 148.314 19.7502 147.797 20.0843C147.288 20.4184 146.675 20.5854 145.959 20.5854ZM145.959 18.0799C146.278 18.0799 146.5 17.9486 146.628 17.6861C146.755 17.4157 146.818 17.1174 146.818 16.7913V6.45883C146.818 6.13271 146.751 5.83841 146.616 5.57592C146.48 5.30548 146.262 5.17026 145.959 5.17026C145.665 5.17026 145.446 5.30548 145.303 5.57592C145.168 5.83841 145.1 6.13271 145.1 6.45883V16.7913C145.1 17.1174 145.168 17.4157 145.303 17.6861C145.438 17.9486 145.657 18.0799 145.959 18.0799ZM151.195 20.3945V2.85559H153.605L155.991 11.9949L156.206 12.8063H156.349V2.85559H158.711V20.3945H156.54L153.915 11.2552L153.7 10.4439H153.557V20.3945H151.195ZM162.327 20.3945V5.50433H159.893V2.85559H167.339V5.50433H164.905V20.3945H162.327ZM166.807 20.3945L169.456 2.85559H172.606L175.254 20.3945H172.749L172.272 16.8152H169.79L169.313 20.3945H166.807ZM170.148 14.0948H171.914L171.174 8.20079L171.102 7.27016H170.959L170.888 8.20079L170.148 14.0948ZM176.619 20.3945V2.85559H179.243C180.134 2.85559 180.902 3.01468 181.546 3.33284C182.198 3.64306 182.7 4.13224 183.05 4.80039C183.408 5.46854 183.586 6.33156 183.586 7.38947C183.586 8.23261 183.475 8.96837 183.252 9.59675C183.038 10.2251 182.616 10.7382 181.988 11.1359C182.624 11.4859 183.081 12.0427 183.36 12.8063C183.638 13.5619 183.777 14.4369 183.777 15.4311C183.777 16.4095 183.618 17.2725 183.3 18.0202C182.99 18.7679 182.529 19.3525 181.916 19.7741C181.312 20.1877 180.564 20.3945 179.673 20.3945H176.619ZM179.196 17.8412C179.975 17.8412 180.488 17.6106 180.735 17.1492C180.981 16.6799 181.105 16.0118 181.105 15.1448C181.105 14.2619 180.981 13.5937 180.735 13.1403C180.488 12.679 179.975 12.4483 179.196 12.4483V17.8412ZM179.196 10.0859C179.92 10.0859 180.417 9.88708 180.687 9.48937C180.966 9.09166 181.105 8.50305 181.105 7.72354C181.105 6.93608 180.962 6.35543 180.675 5.98158C180.397 5.59978 179.904 5.40888 179.196 5.40888V10.0859ZM185.311 20.3945V2.85559H187.888V20.3945H185.311ZM189.808 20.3945V2.85559H192.385V18.0083H195.798V20.3945H189.808ZM196.846 20.3945V2.85559H199.423V20.3945H196.846ZM201.343 20.3945V2.85559H203.968C204.795 2.85559 205.495 2.99081 206.068 3.26126C206.641 3.5317 207.102 3.99304 207.452 4.64528C207.802 5.29752 208.053 6.19237 208.204 7.32981C208.363 8.46726 208.442 9.90299 208.442 11.637C208.442 13.379 208.363 14.8187 208.204 15.9561C208.053 17.0856 207.802 17.9765 207.452 18.6287C207.102 19.273 206.641 19.7304 206.068 20.0008C205.495 20.2633 204.795 20.3945 203.968 20.3945H201.343ZM203.92 17.8174C204.557 17.8174 205.006 17.5668 205.269 17.0657C205.531 16.5646 205.69 15.8487 205.746 14.9181C205.802 13.9874 205.829 12.8818 205.829 11.6012C205.829 10.3047 205.802 9.19904 205.746 8.28431C205.69 7.36163 205.527 6.65769 205.257 6.17248C204.994 5.67932 204.549 5.43274 203.92 5.43274V17.8174ZM209.685 20.3945L212.334 2.85559H215.484L218.132 20.3945H215.627L215.149 16.8152H212.668L212.191 20.3945H209.685ZM213.026 14.0948H214.792L214.052 8.20079L213.98 7.27016H213.837L213.765 8.20079L213.026 14.0948ZM219.497 20.3945V2.85559H222.121C222.949 2.85559 223.649 2.99081 224.221 3.26126C224.794 3.5317 225.255 3.99304 225.605 4.64528C225.955 5.29752 226.206 6.19237 226.357 7.32981C226.516 8.46726 226.596 9.90299 226.596 11.637C226.596 13.379 226.516 14.8187 226.357 15.9561C226.206 17.0856 225.955 17.9765 225.605 18.6287C225.255 19.273 224.794 19.7304 224.221 20.0008C223.649 20.2633 222.949 20.3945 222.121 20.3945H219.497ZM222.074 17.8174C222.71 17.8174 223.159 17.5668 223.422 17.0657C223.684 16.5646 223.843 15.8487 223.899 14.9181C223.955 13.9874 223.983 12.8818 223.983 11.6012C223.983 10.3047 223.955 9.19904 223.899 8.28431C223.843 7.36163 223.68 6.65769 223.41 6.17248C223.148 5.67932 222.702 5.43274 222.074 5.43274V17.8174ZM228.375 20.3945V2.85559H234.269V5.50433H230.952V10.2291H233.338V12.8063H230.952V17.7458H234.269V20.3945H228.375ZM134.09 42.3945V24.8556H136.667C137.646 24.8556 138.461 25.0704 139.113 25.4999C139.773 25.9294 140.267 26.5379 140.593 27.3254C140.919 28.1128 141.082 29.0395 141.082 30.1053C141.082 31.1712 140.911 32.0899 140.569 32.8615C140.227 33.633 139.726 34.2375 139.066 34.675C138.413 35.1045 137.614 35.3392 136.667 35.379V42.3945H134.09ZM136.667 32.7541C137.121 32.7541 137.479 32.6666 137.741 32.4916C138.004 32.3086 138.191 32.0223 138.302 31.6325C138.421 31.2428 138.481 30.7417 138.481 30.1292C138.481 29.5088 138.421 29.0037 138.302 28.6139C138.191 28.2242 138 27.9378 137.729 27.7549C137.467 27.5719 137.113 27.4805 136.667 27.4805V32.7541ZM141.942 42.3945L144.591 24.8556H147.741L150.39 42.3945H147.884L147.407 38.8152H144.925L144.448 42.3945H141.942ZM145.283 36.0948H147.049L146.309 30.2008L146.238 29.2702H146.095L146.023 30.2008L145.283 36.0948ZM151.754 42.3945V24.8556H154.331C155.874 24.8556 157.012 25.2851 157.744 26.1442C158.475 26.9953 158.841 28.252 158.841 29.9144C158.841 30.9008 158.666 31.7558 158.316 32.4797C157.974 33.1955 157.557 33.7205 157.063 34.0546L158.817 42.3945H156.24L154.785 34.9972H154.331V42.3945H151.754ZM154.331 32.6109C154.808 32.6109 155.186 32.5075 155.465 32.3007C155.743 32.0859 155.942 31.7837 156.061 31.3939C156.181 31.0042 156.24 30.5428 156.24 30.0099C156.24 29.1747 156.101 28.5344 155.823 28.089C155.552 27.6356 155.055 27.4089 154.331 27.4089V32.6109ZM162.001 42.3945V27.5043H159.567V24.8556H167.012V27.5043H164.578V42.3945H162.001ZM168.206 42.3945V24.8556H170.783V42.3945H168.206ZM172.704 42.3945V24.8556H175.329C176.156 24.8556 176.856 24.9908 177.428 25.2613C178.001 25.5317 178.462 25.993 178.812 26.6453C179.162 27.2975 179.413 28.1924 179.564 29.3298C179.723 30.4673 179.803 31.903 179.803 33.637C179.803 35.379 179.723 36.8187 179.564 37.9561C179.413 39.0856 179.162 39.9765 178.812 40.6287C178.462 41.273 178.001 41.7304 177.428 42.0008C176.856 42.2633 176.156 42.3945 175.329 42.3945H172.704ZM175.281 39.8174C175.917 39.8174 176.367 39.5668 176.629 39.0657C176.892 38.5646 177.051 37.8487 177.106 36.9181C177.162 35.9874 177.19 34.8818 177.19 33.6012C177.19 32.3047 177.162 31.199 177.106 30.2843C177.051 29.3616 176.888 28.6577 176.617 28.1725C176.355 27.6793 175.909 27.4327 175.281 27.4327V39.8174ZM181.045 42.3945L183.694 24.8556H186.844L189.493 42.3945H186.987L186.51 38.8152H184.028L183.551 42.3945H181.045ZM184.386 36.0948H186.152L185.412 30.2008L185.341 29.2702H185.197L185.126 30.2008L184.386 36.0948ZM184.1 23.3045L185.698 21.1569H188.204L185.961 23.3045H184.1ZM190.857 42.3945V24.8556H193.434C194.977 24.8556 196.115 25.2851 196.846 26.1442C197.578 26.9953 197.944 28.252 197.944 29.9144C197.944 30.9008 197.769 31.7558 197.419 32.4797C197.077 33.1955 196.659 33.7205 196.166 34.0546L197.92 42.3945H195.343L193.887 34.9972H193.434V42.3945H190.857ZM193.434 32.6109C193.911 32.6109 194.289 32.5075 194.568 32.3007C194.846 32.0859 195.045 31.7837 195.164 31.3939C195.283 31.0042 195.343 30.5428 195.343 30.0099C195.343 29.1747 195.204 28.5344 194.925 28.089C194.655 27.6356 194.158 27.4089 193.434 27.4089V32.6109ZM199.386 42.3945V24.8556H201.963V42.3945H199.386ZM203.346 42.3945L205.995 24.8556H209.145L211.794 42.3945H209.288L208.811 38.8152H206.329L205.852 42.3945H203.346ZM206.687 36.0948H208.453L207.713 30.2008L207.642 29.2702H207.499L207.427 30.2008L206.687 36.0948Z" fill="#29292E"/>
</svg>
