<svg width="137" height="65" viewBox="0 0 137 65" fill="none" xmlns="http://www.w3.org/2000/svg">
<path d="M99.6027 6.53164V3.41621V0.300781H95.4739H91.3452V3.41621V6.53164H95.4739H99.6027Z" fill="url(#paint0_linear_1448_76)"/>
<path d="M132.46 6.53164V3.41621V0.300781H128.332H124.203V3.41621V6.53164H128.332H132.46Z" fill="url(#paint1_linear_1448_76)"/>
<path d="M99.6027 32.2084V20.3611V8.52246H95.4739H91.3452V25.1467V41.7797L96.2136 41.7364L101.082 41.6932L106.492 36.2498L111.903 30.8065L117.313 36.2498L122.724 41.6932L127.592 41.7364L132.46 41.7797V25.1467V8.52246H128.332H124.203V20.3524V32.1911L118.053 26.0035L111.903 19.8159L105.753 26.0122L99.6027 32.2084Z" fill="url(#paint2_linear_1448_76)"/>
<path d="M72.6945 2.36908C70.2946 1.20945 68.0153 0.595018 65.3402 0.387318C64.7467 0.344052 61.392 0.300781 57.8826 0.300781H51.4917V4.45469V8.59998L58.2267 8.62593L64.9531 8.6605L65.8218 8.8855C69.4861 9.86343 72.3504 12.2087 73.9847 15.5577C74.905 17.4443 75.2577 19.0107 75.2577 21.1136C75.2577 23.0954 74.8793 24.7569 74.0363 26.505C72.273 30.1224 68.9958 32.6061 65.0391 33.3243C64.5145 33.4196 63.5338 33.4801 62.0114 33.5061L59.7491 33.558V22.1607V10.7721H55.6204H51.4917V26.2194V41.6668L57.6676 41.6841C65.3573 41.7187 65.538 41.7101 66.7766 41.537C71.1462 40.9053 75.2577 38.811 78.4145 35.609C81.6744 32.2945 83.7646 27.8983 84.2549 23.3031C84.3925 22.0829 84.3667 19.8069 84.2205 18.5607C83.3518 11.5596 78.9736 5.39797 72.6945 2.36908Z" fill="url(#paint3_linear_1448_76)"/>
<path d="M70.0363 19.7036C69.7438 19.1238 69.2535 18.6305 68.6773 18.3363C68.3074 18.146 68.0838 18.094 67.4902 18.0767C66.6559 18.0421 66.4236 18.1027 65.77 18.4921C64.1443 19.4786 63.8862 21.7806 65.2452 23.1566C66.114 24.0306 67.3354 24.2816 68.4795 23.8403C69.1762 23.572 69.8901 22.8364 70.1567 22.1354C70.4234 21.4258 70.3718 20.3614 70.0363 19.7036Z" fill="url(#paint4_linear_1448_76)"/>
<path fill-rule="evenodd" clip-rule="evenodd" d="M23.5479 0.348892C20.2385 0.555351 17.2264 1.42722 14.5116 2.9645C11.4135 4.74027 8.9765 7.19612 7.20073 10.3321C5.46274 13.468 4.59375 17.0195 4.59375 20.9867C4.59375 24.9538 5.46274 28.5053 7.20073 31.6413C8.9765 34.7772 11.4135 37.2331 14.5116 39.0088C17.2264 40.5461 20.2385 41.418 23.5479 41.6244V32.697C21.9692 32.5231 20.5251 32.0579 19.2155 31.3012C17.5531 30.2811 16.2496 28.8832 15.305 27.1074C14.3605 25.2938 13.8882 23.2536 13.8882 20.9867C13.8882 18.7197 14.3605 16.6984 15.305 14.9226C16.2496 13.1091 17.5531 11.6922 19.2155 10.6721C20.5251 9.88632 21.9692 9.40318 23.5479 9.22267V0.348892ZM25.5379 32.7646V41.6687C28.8086 41.6114 31.8018 40.8948 34.5173 39.5189C37.3888 38.0454 39.6935 36.0051 41.4315 33.3982C43.2073 30.7912 44.2274 27.863 44.4919 24.6138H35.3108C34.9707 26.2762 34.3095 27.7308 33.3272 28.9776C32.3826 30.1867 31.1925 31.1312 29.7568 31.8113C28.5025 32.3876 27.0962 32.7053 25.5379 32.7646ZM25.5379 9.15269V0.304688C28.8086 0.36354 31.8018 1.09902 34.5173 2.51111C37.3888 3.94684 39.6935 5.9682 41.4315 8.57518C43.2073 11.1822 44.2274 14.1103 44.4919 17.3596H35.3108C34.9707 15.6971 34.3095 14.2614 33.3272 13.0524C32.3826 11.8056 31.1925 10.8421 29.7568 10.162C28.5025 9.55186 27.0962 9.21542 25.5379 9.15269Z" fill="url(#paint5_linear_1448_76)"/>
<rect x="0.400391" y="45.293" width="136.252" height="18.9404" rx="1" fill="#29292E"/>
<path d="M9.39086 60.3917C8.90019 60.3917 8.48152 60.2823 8.13486 60.0637C7.79352 59.8397 7.53219 59.5357 7.35086 59.1517C7.17486 58.7677 7.08686 58.333 7.08686 57.8477V50.9197C7.08686 50.4397 7.17752 50.0077 7.35886 49.6237C7.54552 49.2397 7.81219 48.9357 8.15886 48.7117C8.50552 48.4877 8.91619 48.3757 9.39086 48.3757C9.74819 48.3757 10.0682 48.4423 10.3509 48.5757C10.6335 48.709 10.8735 48.893 11.0709 49.1277C11.2735 49.357 11.4282 49.6263 11.5349 49.9357C11.6415 50.2397 11.6949 50.5677 11.6949 50.9197V52.5357H10.0789V50.9197C10.0789 50.6743 10.0282 50.469 9.92686 50.3037C9.82552 50.1383 9.65752 50.0557 9.42286 50.0557C9.20952 50.0557 9.05486 50.141 8.95886 50.3117C8.86286 50.4823 8.81486 50.685 8.81486 50.9197V57.8477C8.81486 58.0823 8.86552 58.285 8.96686 58.4557C9.07352 58.6263 9.22552 58.7117 9.42286 58.7117C9.66286 58.7117 9.83086 58.629 9.92686 58.4637C10.0282 58.2983 10.0789 58.093 10.0789 57.8477V56.2317H11.6949V57.8477C11.6949 58.3277 11.6015 58.7597 11.4149 59.1437C11.2282 59.5277 10.9615 59.8317 10.6149 60.0557C10.2735 60.2797 9.86552 60.3917 9.39086 60.3917ZM15.1252 60.3917C14.6452 60.3917 14.2319 60.2797 13.8852 60.0557C13.5439 59.8317 13.2799 59.5277 13.0932 59.1437C12.9119 58.7597 12.8212 58.3277 12.8212 57.8477V50.9197C12.8212 50.4343 12.9119 50.0023 13.0932 49.6237C13.2799 49.2397 13.5439 48.9357 13.8852 48.7117C14.2319 48.4877 14.6452 48.3757 15.1252 48.3757C15.6052 48.3757 16.0159 48.4877 16.3572 48.7117C16.7039 48.9357 16.9679 49.2397 17.1492 49.6237C17.3359 50.0077 17.4292 50.4397 17.4292 50.9197V57.8477C17.4292 58.3277 17.3359 58.7597 17.1492 59.1437C16.9679 59.5277 16.7039 59.8317 16.3572 60.0557C16.0159 60.2797 15.6052 60.3917 15.1252 60.3917ZM15.1252 58.7117C15.3386 58.7117 15.4879 58.6237 15.5732 58.4477C15.6586 58.2663 15.7012 58.0663 15.7012 57.8477V50.9197C15.7012 50.701 15.6559 50.5037 15.5652 50.3277C15.4746 50.1463 15.3279 50.0557 15.1252 50.0557C14.9279 50.0557 14.7812 50.1463 14.6852 50.3277C14.5946 50.5037 14.5492 50.701 14.5492 50.9197V57.8477C14.5492 58.0663 14.5946 58.2663 14.6852 58.4477C14.7759 58.6237 14.9226 58.7117 15.1252 58.7117ZM18.6356 60.2637V48.5037H20.2516L21.8516 54.6317L21.9956 55.1757H22.0916V48.5037H23.6756V60.2637H22.2196L20.4596 54.1357L20.3156 53.5917H20.2196V60.2637H18.6356ZM26.1001 60.2637V50.2797H24.4681V48.5037H29.4601V50.2797H27.8281V60.2637H26.1001ZM29.1037 60.2637L30.8797 48.5037H32.9917L34.7677 60.2637H33.0877L32.7677 57.8637H31.1037L30.7837 60.2637H29.1037ZM31.3437 56.0397H32.5277L32.0317 52.0877L31.9837 51.4637H31.8877L31.8397 52.0877L31.3437 56.0397ZM35.6825 60.2637V48.5037H37.4425C38.0398 48.5037 38.5545 48.6103 38.9865 48.8237C39.4238 49.0317 39.7598 49.3597 39.9945 49.8077C40.2345 50.2557 40.3545 50.8343 40.3545 51.5437C40.3545 52.109 40.2798 52.6023 40.1305 53.0237C39.9865 53.445 39.7038 53.789 39.2825 54.0557C39.7091 54.2903 40.0158 54.6637 40.2025 55.1757C40.3891 55.6823 40.4825 56.269 40.4825 56.9357C40.4825 57.5917 40.3758 58.1703 40.1625 58.6717C39.9545 59.173 39.6451 59.565 39.2345 59.8477C38.8291 60.125 38.3278 60.2637 37.7305 60.2637H35.6825ZM37.4105 58.5517C37.9331 58.5517 38.2771 58.397 38.4425 58.0877C38.6078 57.773 38.6905 57.325 38.6905 56.7437C38.6905 56.1517 38.6078 55.7037 38.4425 55.3997C38.2771 55.0903 37.9331 54.9357 37.4105 54.9357V58.5517ZM37.4105 53.3517C37.8958 53.3517 38.2291 53.2183 38.4105 52.9517C38.5971 52.685 38.6905 52.2903 38.6905 51.7677C38.6905 51.2397 38.5945 50.8503 38.4025 50.5997C38.2158 50.3437 37.8851 50.2157 37.4105 50.2157V53.3517ZM41.5106 60.2637V48.5037H43.2386V60.2637H41.5106ZM44.5262 60.2637V48.5037H46.2542V58.6637H48.5422V60.2637H44.5262ZM49.245 60.2637V48.5037H50.973V60.2637H49.245ZM52.2606 60.2637V48.5037H54.0206C54.5753 48.5037 55.0446 48.5943 55.4286 48.7757C55.8126 48.957 56.1219 49.2663 56.3566 49.7037C56.5913 50.141 56.7593 50.741 56.8606 51.5037C56.9673 52.2663 57.0206 53.229 57.0206 54.3917C57.0206 55.5597 56.9673 56.525 56.8606 57.2877C56.7593 58.045 56.5913 58.6423 56.3566 59.0797C56.1219 59.5117 55.8126 59.8183 55.4286 59.9997C55.0446 60.1757 54.5753 60.2637 54.0206 60.2637H52.2606ZM53.9886 58.5357C54.4153 58.5357 54.7166 58.3677 54.8926 58.0317C55.0686 57.6957 55.1753 57.2157 55.2126 56.5917C55.2499 55.9677 55.2686 55.2263 55.2686 54.3677C55.2686 53.4983 55.2499 52.757 55.2126 52.1437C55.1753 51.525 55.0659 51.053 54.8846 50.7277C54.7086 50.397 54.4099 50.2317 53.9886 50.2317V58.5357ZM57.8537 60.2637L59.6297 48.5037H61.7417L63.5177 60.2637H61.8377L61.5177 57.8637H59.8537L59.5337 60.2637H57.8537ZM60.0937 56.0397H61.2777L60.7817 52.0877L60.7337 51.4637H60.6377L60.5897 52.0877L60.0937 56.0397ZM64.4325 60.2637V48.5037H66.1925C66.7471 48.5037 67.2165 48.5943 67.6005 48.7757C67.9845 48.957 68.2938 49.2663 68.5285 49.7037C68.7631 50.141 68.9311 50.741 69.0325 51.5037C69.1391 52.2663 69.1925 53.229 69.1925 54.3917C69.1925 55.5597 69.1391 56.525 69.0325 57.2877C68.9311 58.045 68.7631 58.6423 68.5285 59.0797C68.2938 59.5117 67.9845 59.8183 67.6005 59.9997C67.2165 60.1757 66.7471 60.2637 66.1925 60.2637H64.4325ZM66.1605 58.5357C66.5871 58.5357 66.8885 58.3677 67.0645 58.0317C67.2405 57.6957 67.3471 57.2157 67.3845 56.5917C67.4218 55.9677 67.4405 55.2263 67.4405 54.3677C67.4405 53.4983 67.4218 52.757 67.3845 52.1437C67.3471 51.525 67.2378 51.053 67.0565 50.7277C66.8805 50.397 66.5818 50.2317 66.1605 50.2317V58.5357ZM70.3856 60.2637V48.5037H74.3376V50.2797H72.1136V53.4477H73.7136V55.1757H72.1136V58.4877H74.3376V60.2637H70.3856ZM78.0887 60.2637V48.5037H79.8167C80.4727 48.5037 81.0194 48.6477 81.4567 48.9357C81.8994 49.2237 82.2301 49.6317 82.4487 50.1597C82.6674 50.6877 82.7767 51.309 82.7767 52.0237C82.7767 52.7383 82.6621 53.3543 82.4327 53.8717C82.2034 54.389 81.8674 54.7943 81.4247 55.0877C80.9874 55.3757 80.4514 55.533 79.8167 55.5597V60.2637H78.0887ZM79.8167 53.7997C80.1207 53.7997 80.3607 53.741 80.5367 53.6237C80.7127 53.501 80.8381 53.309 80.9127 53.0477C80.9927 52.7863 81.0327 52.4503 81.0327 52.0397C81.0327 51.6237 80.9927 51.285 80.9127 51.0237C80.8381 50.7623 80.7101 50.5703 80.5287 50.4477C80.3527 50.325 80.1154 50.2637 79.8167 50.2637V53.7997ZM83.3537 60.2637L85.1297 48.5037H87.2417L89.0177 60.2637H87.3377L87.0177 57.8637H85.3537L85.0337 60.2637H83.3537ZM85.5937 56.0397H86.7777L86.2817 52.0877L86.2337 51.4637H86.1377L86.0897 52.0877L85.5937 56.0397ZM89.9325 60.2637V48.5037H91.6605C92.6951 48.5037 93.4578 48.7917 93.9485 49.3677C94.4391 49.9383 94.6845 50.781 94.6845 51.8957C94.6845 52.557 94.5671 53.1303 94.3325 53.6157C94.1031 54.0957 93.8231 54.4477 93.4925 54.6717L94.6685 60.2637H92.9405L91.9645 55.3037H91.6605V60.2637H89.9325ZM91.6605 53.7037C91.9805 53.7037 92.2338 53.6343 92.4205 53.4957C92.6071 53.3517 92.7405 53.149 92.8205 52.8877C92.9005 52.6263 92.9405 52.317 92.9405 51.9597C92.9405 51.3997 92.8471 50.9703 92.6605 50.6717C92.4791 50.3677 92.1458 50.2157 91.6605 50.2157V53.7037ZM96.8032 60.2637V50.2797H95.1712V48.5037H100.163V50.2797H98.5312V60.2637H96.8032ZM100.964 60.2637V48.5037H102.692V60.2637H100.964ZM103.979 60.2637V48.5037H105.739C106.294 48.5037 106.763 48.5943 107.147 48.7757C107.531 48.957 107.841 49.2663 108.075 49.7037C108.31 50.141 108.478 50.741 108.579 51.5037C108.686 52.2663 108.739 53.229 108.739 54.3917C108.739 55.5597 108.686 56.525 108.579 57.2877C108.478 58.045 108.31 58.6423 108.075 59.0797C107.841 59.5117 107.531 59.8183 107.147 59.9997C106.763 60.1757 106.294 60.2637 105.739 60.2637H103.979ZM105.707 58.5357C106.134 58.5357 106.435 58.3677 106.611 58.0317C106.787 57.6957 106.894 57.2157 106.931 56.5917C106.969 55.9677 106.987 55.2263 106.987 54.3677C106.987 53.4983 106.969 52.757 106.931 52.1437C106.894 51.525 106.785 51.053 106.603 50.7277C106.427 50.397 106.129 50.2317 105.707 50.2317V58.5357ZM109.572 60.2637L111.348 48.5037H113.46L115.236 60.2637H113.556L113.236 57.8637H111.572L111.252 60.2637H109.572ZM111.812 56.0397H112.996L112.5 52.0877L112.452 51.4637H112.356L112.308 52.0877L111.812 56.0397ZM111.62 47.4637L112.692 46.0237H114.372L112.868 47.4637H111.62ZM116.151 60.2637V48.5037H117.879C118.914 48.5037 119.677 48.7917 120.167 49.3677C120.658 49.9383 120.903 50.781 120.903 51.8957C120.903 52.557 120.786 53.1303 120.551 53.6157C120.322 54.0957 120.042 54.4477 119.711 54.6717L120.887 60.2637H119.159L118.183 55.3037H117.879V60.2637H116.151ZM117.879 53.7037C118.199 53.7037 118.453 53.6343 118.639 53.4957C118.826 53.3517 118.959 53.149 119.039 52.8877C119.119 52.6263 119.159 52.317 119.159 51.9597C119.159 51.3997 119.066 50.9703 118.879 50.6717C118.698 50.3677 118.365 50.2157 117.879 50.2157V53.7037ZM121.87 60.2637V48.5037H123.598V60.2637H121.87ZM124.526 60.2637L126.302 48.5037H128.414L130.19 60.2637H128.51L128.19 57.8637H126.526L126.206 60.2637H124.526ZM126.766 56.0397H127.95L127.454 52.0877L127.406 51.4637H127.31L127.262 52.0877L126.766 56.0397Z" fill="white"/>
<defs>
<linearGradient id="paint0_linear_1448_76" x1="91.7117" y1="0.845381" x2="97.1418" y2="8.31629" gradientUnits="userSpaceOnUse">
<stop offset="0.0116797" stop-color="#FEEA51"/>
<stop offset="1" stop-color="#F9DD04"/>
</linearGradient>
<linearGradient id="paint1_linear_1448_76" x1="124.57" y1="0.845381" x2="130" y2="8.3162" gradientUnits="userSpaceOnUse">
<stop offset="0.0116797" stop-color="#FEEA51"/>
<stop offset="1" stop-color="#F9DD04"/>
</linearGradient>
<linearGradient id="paint2_linear_1448_76" x1="93.1699" y1="11.4293" x2="122.716" y2="49.3505" gradientUnits="userSpaceOnUse">
<stop offset="0.0116797" stop-color="#FEEA51"/>
<stop offset="1" stop-color="#F9DD04"/>
</linearGradient>
<linearGradient id="paint3_linear_1448_76" x1="52.9497" y1="3.91925" x2="90.1798" y2="34.5918" gradientUnits="userSpaceOnUse">
<stop offset="0.0116797" stop-color="#FEEA51"/>
<stop offset="1" stop-color="#F9DD04"/>
</linearGradient>
<linearGradient id="paint4_linear_1448_76" x1="64.6335" y1="18.5915" x2="70.1143" y2="24.2554" gradientUnits="userSpaceOnUse">
<stop offset="0.0116797" stop-color="#FEEA51"/>
<stop offset="1" stop-color="#F9DD04"/>
</linearGradient>
<linearGradient id="paint5_linear_1448_76" x1="6.36442" y1="3.92005" x2="44.2628" y2="41.8707" gradientUnits="userSpaceOnUse">
<stop offset="0.0116797" stop-color="#FEEA51"/>
<stop offset="1" stop-color="#F9DD04"/>
</linearGradient>
</defs>
</svg>
