<svg width="142" height="143" viewBox="0 0 142 143" fill="none" xmlns="http://www.w3.org/2000/svg">
<path d="M79.1796 51.1218V48.0358V44.9497H75.0898H71V48.0358V51.1218H75.0898H79.1796Z" fill="url(#paint0_linear_1464_108)"/>
<path d="M111.729 51.1218V48.0358V44.9497H107.639H103.549V48.0358V51.1218H107.639H111.729Z" fill="url(#paint1_linear_1464_108)"/>
<path d="M79.1799 76.5587V64.8227V53.0952H75.0899H71V69.5633V86.0401L75.8227 85.9972L80.6454 85.9543L86.005 80.5621L91.3645 75.1699L96.7241 80.5621L102.084 85.9543L106.906 85.9972L111.729 86.0401V69.5633V53.0952H107.639H103.549V64.8141V76.5415L97.4568 70.4121L91.3645 64.2826L85.2722 70.4206L79.1799 76.5587Z" fill="url(#paint2_linear_1464_108)"/>
<path d="M52.5231 46.9986C50.1458 45.8498 47.8879 45.2412 45.2379 45.0354C44.65 44.9926 41.3269 44.9497 37.8504 44.9497H31.5195V49.0646V53.171L38.1913 53.1967L44.8545 53.2309L45.7151 53.4538C49.3449 54.4225 52.1824 56.7458 53.8013 60.0633C54.713 61.9322 55.0623 63.4838 55.0623 65.567C55.0623 67.5302 54.6874 69.1761 53.8524 70.9078C52.1056 74.4912 48.8592 76.9515 44.9397 77.6631C44.42 77.7574 43.4485 77.8174 41.9404 77.8432L39.6994 77.8946V66.6043V55.3227H35.6095H31.5195V70.6249V85.9272L37.6374 85.9443C45.2549 85.9786 45.4339 85.9701 46.6609 85.7986C50.9894 85.1728 55.0623 83.0982 58.1894 79.9263C61.4188 76.6429 63.4893 72.288 63.975 67.7359C64.1113 66.5272 64.0858 64.2726 63.941 63.0381C63.0804 56.1028 58.7433 49.999 52.5231 46.9986Z" fill="url(#paint3_linear_1464_108)"/>
<path d="M49.8911 64.1702C49.6014 63.5958 49.1157 63.1072 48.5449 62.8157C48.1785 62.6272 47.957 62.5757 47.369 62.5586C46.5426 62.5243 46.3125 62.5843 45.6649 62.97C44.0546 63.9473 43.7989 66.2275 45.1452 67.5905C46.0057 68.4563 47.2156 68.705 48.3489 68.2678C49.039 68.002 49.7462 67.2734 50.0104 66.579C50.2745 65.8761 50.2234 64.8217 49.8911 64.1702Z" fill="url(#paint4_linear_1464_108)"/>
<rect x="27.8673" y="87.6871" width="87.5147" height="11.7104" rx="0.381956" stroke="url(#paint5_linear_1464_108)" stroke-width="0.528456"/>
<path d="M33.3385 97.5056C33.0214 97.5056 32.7509 97.4349 32.5269 97.2936C32.3063 97.1489 32.1374 96.9524 32.0202 96.7043C31.9065 96.4562 31.8497 96.1753 31.8497 95.8617V91.3849C31.8497 91.0747 31.9082 90.7956 32.0254 90.5475C32.146 90.2993 32.3184 90.1029 32.5424 89.9581C32.7664 89.8134 33.0317 89.741 33.3385 89.741C33.5694 89.741 33.7761 89.7841 33.9588 89.8703C34.1415 89.9564 34.2965 90.0753 34.4241 90.2269C34.555 90.3751 34.655 90.5492 34.7239 90.7491C34.7928 90.9455 34.8273 91.1575 34.8273 91.3849V92.4291H33.783V91.3849C33.783 91.2264 33.7503 91.0937 33.6848 90.9869C33.6193 90.88 33.5108 90.8266 33.3591 90.8266C33.2213 90.8266 33.1213 90.8817 33.0593 90.992C32.9973 91.1023 32.9663 91.2333 32.9663 91.3849V95.8617C32.9663 96.0133 32.999 96.1443 33.0645 96.2546C33.1334 96.3648 33.2316 96.42 33.3591 96.42C33.5142 96.42 33.6228 96.3666 33.6848 96.2597C33.7503 96.1529 33.783 96.0202 33.783 95.8617V94.8174H34.8273V95.8617C34.8273 96.1718 34.767 96.451 34.6463 96.6991C34.5257 96.9473 34.3534 97.1437 34.1294 97.2884C33.9088 97.4332 33.6452 97.5056 33.3385 97.5056ZM37.0439 97.5056C36.7338 97.5056 36.4667 97.4332 36.2427 97.2884C36.0221 97.1437 35.8515 96.9473 35.7309 96.6991C35.6137 96.451 35.5551 96.1718 35.5551 95.8617V91.3849C35.5551 91.0713 35.6137 90.7921 35.7309 90.5475C35.8515 90.2993 36.0221 90.1029 36.2427 89.9581C36.4667 89.8134 36.7338 89.741 37.0439 89.741C37.3541 89.741 37.6195 89.8134 37.84 89.9581C38.064 90.1029 38.2346 90.2993 38.3518 90.5475C38.4724 90.7956 38.5327 91.0747 38.5327 91.3849V95.8617C38.5327 96.1718 38.4724 96.451 38.3518 96.6991C38.2346 96.9473 38.064 97.1437 37.84 97.2884C37.6195 97.4332 37.3541 97.5056 37.0439 97.5056ZM37.0439 96.42C37.1818 96.42 37.2783 96.3631 37.3334 96.2494C37.3886 96.1322 37.4161 96.003 37.4161 95.8617V91.3849C37.4161 91.2436 37.3868 91.1161 37.3282 91.0024C37.2697 90.8852 37.1749 90.8266 37.0439 90.8266C36.9164 90.8266 36.8216 90.8852 36.7596 91.0024C36.701 91.1161 36.6717 91.2436 36.6717 91.3849V95.8617C36.6717 96.003 36.701 96.1322 36.7596 96.2494C36.8182 96.3631 36.913 96.42 37.0439 96.42ZM39.3123 97.4229V89.8237H40.3565L41.3904 93.7835L41.4835 94.1351H41.5455V89.8237H42.569V97.4229H41.6282L40.4909 93.463L40.3979 93.1115H40.3358V97.4229H39.3123ZM44.1357 97.4229V90.9713H43.0811V89.8237H46.3069V90.9713H45.2523V97.4229H44.1357ZM46.0766 97.4229L47.2242 89.8237H48.589L49.7366 97.4229H48.651L48.4442 95.872H47.369L47.1622 97.4229H46.0766ZM47.5241 94.6934H48.2891L47.9686 92.1397L47.9376 91.7364H47.8756L47.8446 92.1397L47.5241 94.6934ZM50.3277 97.4229V89.8237H51.465C51.851 89.8237 52.1835 89.8927 52.4627 90.0305C52.7453 90.1649 52.9624 90.3769 53.114 90.6664C53.2691 90.9558 53.3467 91.3298 53.3467 91.7881C53.3467 92.1534 53.2984 92.4722 53.2019 92.7445C53.1089 93.0167 52.9262 93.239 52.654 93.4113C52.9297 93.563 53.1278 93.8042 53.2484 94.1351C53.3691 94.4625 53.4294 94.8416 53.4294 95.2724C53.4294 95.6962 53.3605 96.0702 53.2226 96.3941C53.0882 96.7181 52.8883 96.9714 52.6229 97.154C52.361 97.3332 52.0371 97.4229 51.6511 97.4229H50.3277ZM51.4443 96.3166C51.782 96.3166 52.0043 96.2166 52.1112 96.0168C52.218 95.8134 52.2714 95.5239 52.2714 95.1483C52.2714 94.7657 52.218 94.4763 52.1112 94.2798C52.0043 94.0799 51.782 93.98 51.4443 93.98V96.3166ZM51.4443 92.9564C51.7579 92.9564 51.9733 92.8703 52.0905 92.698C52.2111 92.5256 52.2714 92.2706 52.2714 91.9329C52.2714 91.5917 52.2094 91.3401 52.0853 91.1781C51.9647 91.0127 51.751 90.93 51.4443 90.93V92.9564ZM54.0937 97.4229V89.8237H55.2103V97.4229H54.0937ZM56.0424 97.4229V89.8237H57.159V96.389H58.6375V97.4229H56.0424ZM59.0916 97.4229V89.8237H60.2082V97.4229H59.0916ZM61.0402 97.4229V89.8237H62.1775C62.5359 89.8237 62.8392 89.8823 63.0873 89.9995C63.3355 90.1167 63.5353 90.3165 63.687 90.5991C63.8386 90.8817 63.9472 91.2695 64.0127 91.7623C64.0816 92.2551 64.1161 92.8772 64.1161 93.6285C64.1161 94.3832 64.0816 95.007 64.0127 95.4998C63.9472 95.9892 63.8386 96.3752 63.687 96.6578C63.5353 96.9369 63.3355 97.1351 63.0873 97.2523C62.8392 97.366 62.5359 97.4229 62.1775 97.4229H61.0402ZM62.1568 96.3062C62.4325 96.3062 62.6272 96.1977 62.741 95.9806C62.8547 95.7635 62.9236 95.4533 62.9478 95.0501C62.9719 94.6468 62.9839 94.1678 62.9839 93.6129C62.9839 93.0512 62.9719 92.5722 62.9478 92.1758C62.9236 91.7761 62.853 91.4711 62.7358 91.2608C62.6221 91.0472 62.4291 90.9403 62.1568 90.9403V96.3062ZM64.6544 97.4229L65.802 89.8237H67.1668L68.3144 97.4229H67.2288L67.022 95.872H65.9468L65.74 97.4229H64.6544ZM66.1019 94.6934H66.8669L66.5464 92.1397L66.5154 91.7364H66.4534L66.4224 92.1397L66.1019 94.6934ZM68.9055 97.4229V89.8237H70.0428C70.4012 89.8237 70.7045 89.8823 70.9526 89.9995C71.2007 90.1167 71.4006 90.3165 71.5523 90.5991C71.7039 90.8817 71.8125 91.2695 71.8779 91.7623C71.9469 92.2551 71.9813 92.8772 71.9813 93.6285C71.9813 94.3832 71.9469 95.007 71.8779 95.4998C71.8125 95.9892 71.7039 96.3752 71.5523 96.6578C71.4006 96.9369 71.2007 97.1351 70.9526 97.2523C70.7045 97.366 70.4012 97.4229 70.0428 97.4229H68.9055ZM70.0221 96.3062C70.2978 96.3062 70.4925 96.1977 70.6062 95.9806C70.72 95.7635 70.7889 95.4533 70.813 95.0501C70.8371 94.6468 70.8492 94.1678 70.8492 93.6129C70.8492 93.0512 70.8371 92.5722 70.813 92.1758C70.7889 91.7761 70.7182 91.4711 70.6011 91.2608C70.4873 91.0472 70.2944 90.9403 70.0221 90.9403V96.3062ZM72.7523 97.4229V89.8237H75.306V90.9713H73.8689V93.0185H74.9028V94.1351H73.8689V96.2752H75.306V97.4229H72.7523ZM77.7299 97.4229V89.8237H78.8465C79.2704 89.8237 79.6237 89.9168 79.9063 90.1029C80.1923 90.289 80.406 90.5526 80.5473 90.8938C80.6886 91.235 80.7592 91.6365 80.7592 92.0983C80.7592 92.5601 80.6852 92.9582 80.537 93.2924C80.3888 93.6267 80.1717 93.8887 79.8856 94.0782C79.603 94.2643 79.2567 94.366 78.8465 94.3832V97.4229H77.7299ZM78.8465 93.2459C79.043 93.2459 79.1981 93.208 79.3118 93.1322C79.4255 93.0529 79.5065 92.9289 79.5548 92.76C79.6065 92.5911 79.6323 92.374 79.6323 92.1086C79.6323 91.8398 79.6065 91.621 79.5548 91.4521C79.5065 91.2832 79.4238 91.1592 79.3066 91.0799C79.1929 91.0006 79.0395 90.961 78.8465 90.961V93.2459ZM81.1321 97.4229L82.2797 89.8237H83.6445L84.7921 97.4229H83.7065L83.4997 95.872H82.4245L82.2177 97.4229H81.1321ZM82.5795 94.6934H83.3446L83.0241 92.1397L82.9931 91.7364H82.9311L82.9001 92.1397L82.5795 94.6934ZM85.3832 97.4229V89.8237H86.4998C87.1684 89.8237 87.6612 90.0098 87.9783 90.382C88.2953 90.7508 88.4538 91.2953 88.4538 92.0156C88.4538 92.4429 88.378 92.8134 88.2264 93.127C88.0782 93.4372 87.8973 93.6646 87.6836 93.8094L88.4435 97.4229H87.3269L86.6962 94.2178H86.4998V97.4229H85.3832ZM86.4998 93.1839C86.7066 93.1839 86.8703 93.1391 86.9909 93.0495C87.1115 92.9564 87.1977 92.8255 87.2494 92.6566C87.3011 92.4877 87.3269 92.2878 87.3269 92.0569C87.3269 91.6951 87.2666 91.4176 87.146 91.2247C87.0288 91.0282 86.8134 90.93 86.4998 90.93V93.1839ZM89.823 97.4229V90.9713H88.7684V89.8237H91.9941V90.9713H90.9396V97.4229H89.823ZM92.5114 97.4229V89.8237H93.628V97.4229H92.5114ZM94.46 97.4229V89.8237H95.5973C95.9557 89.8237 96.259 89.8823 96.5072 89.9995C96.7553 90.1167 96.9552 90.3165 97.1068 90.5991C97.2585 90.8817 97.367 91.2695 97.4325 91.7623C97.5014 92.2551 97.5359 92.8772 97.5359 93.6285C97.5359 94.3832 97.5014 95.007 97.4325 95.4998C97.367 95.9892 97.2585 96.3752 97.1068 96.6578C96.9552 96.9369 96.7553 97.1351 96.5072 97.2523C96.259 97.366 95.9557 97.4229 95.5973 97.4229H94.46ZM95.5767 96.3062C95.8524 96.3062 96.0471 96.1977 96.1608 95.9806C96.2745 95.7635 96.3435 95.4533 96.3676 95.0501C96.3917 94.6468 96.4038 94.1678 96.4038 93.6129C96.4038 93.0512 96.3917 92.5722 96.3676 92.1758C96.3435 91.7761 96.2728 91.4711 96.1556 91.2608C96.0419 91.0472 95.8489 90.9403 95.5767 90.9403V96.3062ZM98.0742 97.4229L99.2219 89.8237H100.587L101.734 97.4229H100.649L100.442 95.872H99.3666L99.1598 97.4229H98.0742ZM99.5217 94.6934H100.287L99.9663 92.1397L99.9352 91.7364H99.8732L99.8422 92.1397L99.5217 94.6934ZM99.3976 89.1517L100.09 88.2212H101.176L100.204 89.1517H99.3976ZM102.325 97.4229V89.8237H103.442C104.111 89.8237 104.603 90.0098 104.92 90.382C105.237 90.7508 105.396 91.2953 105.396 92.0156C105.396 92.4429 105.32 92.8134 105.169 93.127C105.02 93.4372 104.839 93.6646 104.626 93.8094L105.386 97.4229H104.269L103.638 94.2178H103.442V97.4229H102.325ZM103.442 93.1839C103.649 93.1839 103.812 93.1391 103.933 93.0495C104.054 92.9564 104.14 92.8255 104.192 92.6566C104.243 92.4877 104.269 92.2878 104.269 92.0569C104.269 91.6951 104.209 91.4176 104.088 91.2247C103.971 91.0282 103.756 90.93 103.442 90.93V93.1839ZM106.021 97.4229V89.8237H107.137V97.4229H106.021ZM107.737 97.4229L108.884 89.8237H110.249L111.397 97.4229H110.311L110.104 95.872H109.029L108.822 97.4229H107.737ZM109.184 94.6934H109.949L109.629 92.1397L109.598 91.7364H109.536L109.505 92.1397L109.184 94.6934Z" fill="url(#paint6_linear_1464_108)"/>
<path fill-rule="evenodd" clip-rule="evenodd" d="M66.9574 6.92896C56.5905 7.68198 47.14 10.3903 38.6059 15.054C28.4285 20.4974 20.4851 28.13 14.7758 37.9517C9.06656 47.7734 6.21191 58.956 6.21191 71.4994C6.21191 84.0429 9.06656 95.2254 14.7758 105.047C20.4851 114.869 28.4285 122.561 38.6059 128.122C47.14 132.687 56.5905 135.338 66.9574 136.075V125.56C58.5989 124.843 51.0101 122.621 44.1911 118.892C35.8754 114.277 29.3593 107.887 24.643 99.7221C19.9266 91.4387 17.5684 82.0312 17.5684 71.4994C17.5684 60.9677 19.9266 51.5601 24.643 43.2767C29.3593 34.9933 35.8754 28.6033 44.1911 24.1066C51.0101 20.3778 58.5989 18.1554 66.9574 17.4393V6.92896ZM75.0421 125.788V136.265C85.4179 136.032 94.8064 133.969 103.208 130.075C112.144 125.815 119.467 119.839 125.176 112.147C130.885 104.455 134.423 95.5804 135.788 85.522H124.618C123.128 93.6871 120.025 100.787 115.309 106.822C110.717 112.857 104.759 117.531 97.4363 120.845C90.7699 123.913 83.3051 125.561 75.0421 125.788ZM75.0421 17.2112V6.73438C85.4179 6.97416 94.8064 9.09654 103.208 13.1015C112.144 17.2432 119.467 23.1599 125.176 30.8516C130.885 38.5434 134.423 47.4184 135.788 57.4768H124.618C123.128 49.3118 120.025 42.2117 115.309 36.1767C110.717 30.1416 104.759 25.4674 97.4363 22.1541C90.7699 19.0857 83.3051 17.4381 75.0421 17.2112Z" fill="url(#paint7_linear_1464_108)"/>
<defs>
<linearGradient id="paint0_linear_1464_108" x1="71.1424" y1="45.2734" x2="76.3042" y2="46.6868" gradientUnits="userSpaceOnUse">
<stop stop-color="#FBFC56"/>
<stop offset="1" stop-color="#F9DD04"/>
</linearGradient>
<linearGradient id="paint1_linear_1464_108" x1="103.692" y1="45.2734" x2="108.853" y2="46.6867" gradientUnits="userSpaceOnUse">
<stop stop-color="#FBFC56"/>
<stop offset="1" stop-color="#F9DD04"/>
</linearGradient>
<linearGradient id="paint2_linear_1464_108" x1="71.709" y1="54.8229" x2="97.6461" y2="61.4482" gradientUnits="userSpaceOnUse">
<stop stop-color="#FBFC56"/>
<stop offset="1" stop-color="#F9DD04"/>
</linearGradient>
<linearGradient id="paint3_linear_1464_108" x1="32.086" y1="47.1004" x2="53.5857" y2="50.6256" gradientUnits="userSpaceOnUse">
<stop stop-color="#FBFC56"/>
<stop offset="1" stop-color="#F9DD04"/>
</linearGradient>
<linearGradient id="paint4_linear_1464_108" x1="44.3801" y1="62.8612" x2="48.2211" y2="63.6512" gradientUnits="userSpaceOnUse">
<stop stop-color="#FBFC56"/>
<stop offset="1" stop-color="#F9DD04"/>
</linearGradient>
<linearGradient id="paint5_linear_1464_108" x1="71.6246" y1="87.4229" x2="71.6246" y2="99.6617" gradientUnits="userSpaceOnUse">
<stop stop-color="#FBFC56"/>
<stop offset="1" stop-color="#F9DD04"/>
</linearGradient>
<linearGradient id="paint6_linear_1464_108" x1="71.9878" y1="87.4229" x2="71.9878" y2="99.4229" gradientUnits="userSpaceOnUse">
<stop stop-color="#FBFC56"/>
<stop offset="1" stop-color="#F9DD04"/>
</linearGradient>
<linearGradient id="paint7_linear_1464_108" x1="11.9625" y1="18.0558" x2="130.556" y2="141.219" gradientUnits="userSpaceOnUse">
<stop offset="0.0116797" stop-color="#FEEA51"/>
<stop offset="1" stop-color="#F9DD04"/>
</linearGradient>
</defs>
</svg>
