<svg width="130" height="131" viewBox="0 0 130 131" fill="none" xmlns="http://www.w3.org/2000/svg">
<path d="M73.1796 45.1218V42.0358V38.9497H69.0898H65V42.0358V45.1218H69.0898H73.1796Z" fill="url(#paint0_linear_1467_126)"/>
<path d="M105.729 45.1218V42.0358V38.9497H101.639H97.5493V42.0358V45.1218H101.639H105.729Z" fill="url(#paint1_linear_1467_126)"/>
<path d="M73.1799 70.5587V58.8227V47.0952H69.0899H65V63.5633V80.0401L69.8227 79.9972L74.6454 79.9543L80.005 74.5621L85.3645 69.1699L90.7241 74.5621L96.0836 79.9543L100.906 79.9972L105.729 80.0401V63.5633V47.0952H101.639H97.5492V58.8141V70.5415L91.4568 64.4121L85.3645 58.2826L79.2722 64.4206L73.1799 70.5587Z" fill="url(#paint2_linear_1467_126)"/>
<path d="M46.5231 40.9986C44.1458 39.8498 41.8879 39.2412 39.2379 39.0354C38.65 38.9926 35.3269 38.9497 31.8504 38.9497H25.5195V43.0646V47.171L32.1913 47.1967L38.8545 47.2309L39.7151 47.4538C43.3449 48.4225 46.1824 50.7458 47.8013 54.0633C48.713 55.9322 49.0623 57.4838 49.0623 59.567C49.0623 61.5302 48.6874 63.1761 47.8524 64.9078C46.1056 68.4912 42.8592 70.9515 38.9397 71.6631C38.42 71.7574 37.4485 71.8174 35.9404 71.8432L33.6994 71.8946V60.6043V49.3227H29.6095H25.5195V64.6249V79.9272L31.6374 79.9443C39.2549 79.9786 39.4339 79.9701 40.6609 79.7986C44.9894 79.1728 49.0623 77.0982 52.1894 73.9263C55.4188 70.6429 57.4893 66.288 57.975 61.7359C58.1113 60.5272 58.0858 58.2726 57.941 57.0381C57.0804 50.1028 52.7433 43.999 46.5231 40.9986Z" fill="url(#paint3_linear_1467_126)"/>
<path d="M43.8911 58.1702C43.6014 57.5958 43.1157 57.1072 42.5449 56.8157C42.1785 56.6272 41.957 56.5757 41.369 56.5586C40.5426 56.5243 40.3125 56.5843 39.6649 56.97C38.0546 57.9473 37.7989 60.2275 39.1452 61.5905C40.0057 62.4563 41.2156 62.705 42.3489 62.2678C43.039 62.002 43.7462 61.2734 44.0104 60.579C44.2745 59.8761 44.2234 58.8217 43.8911 58.1702Z" fill="url(#paint4_linear_1467_126)"/>
<rect x="21.8673" y="81.6871" width="87.5147" height="11.7104" rx="0.381956" fill="black" stroke="black" stroke-width="0.528456"/>
<path d="M27.3385 91.5056C27.0214 91.5056 26.7509 91.4349 26.5269 91.2936C26.3063 91.1489 26.1374 90.9524 26.0202 90.7043C25.9065 90.4562 25.8497 90.1753 25.8497 89.8617V85.3849C25.8497 85.0747 25.9082 84.7956 26.0254 84.5475C26.146 84.2993 26.3184 84.1029 26.5424 83.9581C26.7664 83.8134 27.0317 83.741 27.3385 83.741C27.5694 83.741 27.7761 83.7841 27.9588 83.8703C28.1415 83.9564 28.2965 84.0753 28.4241 84.2269C28.555 84.3751 28.655 84.5492 28.7239 84.7491C28.7928 84.9455 28.8273 85.1575 28.8273 85.3849V86.4291H27.783V85.3849C27.783 85.2264 27.7503 85.0937 27.6848 84.9869C27.6193 84.88 27.5108 84.8266 27.3591 84.8266C27.2213 84.8266 27.1213 84.8817 27.0593 84.992C26.9973 85.1023 26.9663 85.2333 26.9663 85.3849V89.8617C26.9663 90.0133 26.999 90.1443 27.0645 90.2546C27.1334 90.3648 27.2316 90.42 27.3591 90.42C27.5142 90.42 27.6228 90.3666 27.6848 90.2597C27.7503 90.1529 27.783 90.0202 27.783 89.8617V88.8174H28.8273V89.8617C28.8273 90.1718 28.767 90.451 28.6463 90.6991C28.5257 90.9473 28.3534 91.1437 28.1294 91.2884C27.9088 91.4332 27.6452 91.5056 27.3385 91.5056ZM31.0439 91.5056C30.7338 91.5056 30.4667 91.4332 30.2427 91.2884C30.0221 91.1437 29.8515 90.9473 29.7309 90.6991C29.6137 90.451 29.5551 90.1718 29.5551 89.8617V85.3849C29.5551 85.0713 29.6137 84.7921 29.7309 84.5475C29.8515 84.2993 30.0221 84.1029 30.2427 83.9581C30.4667 83.8134 30.7338 83.741 31.0439 83.741C31.3541 83.741 31.6195 83.8134 31.84 83.9581C32.064 84.1029 32.2346 84.2993 32.3518 84.5475C32.4724 84.7956 32.5327 85.0747 32.5327 85.3849V89.8617C32.5327 90.1718 32.4724 90.451 32.3518 90.6991C32.2346 90.9473 32.064 91.1437 31.84 91.2884C31.6195 91.4332 31.3541 91.5056 31.0439 91.5056ZM31.0439 90.42C31.1818 90.42 31.2783 90.3631 31.3334 90.2494C31.3886 90.1322 31.4161 90.003 31.4161 89.8617V85.3849C31.4161 85.2436 31.3868 85.1161 31.3282 85.0024C31.2697 84.8852 31.1749 84.8266 31.0439 84.8266C30.9164 84.8266 30.8216 84.8852 30.7596 85.0024C30.701 85.1161 30.6717 85.2436 30.6717 85.3849V89.8617C30.6717 90.003 30.701 90.1322 30.7596 90.2494C30.8182 90.3631 30.913 90.42 31.0439 90.42ZM33.3123 91.4229V83.8237H34.3565L35.3904 87.7835L35.4835 88.1351H35.5455V83.8237H36.569V91.4229H35.6282L34.4909 87.463L34.3979 87.1115H34.3358V91.4229H33.3123ZM38.1357 91.4229V84.9713H37.0811V83.8237H40.3069V84.9713H39.2523V91.4229H38.1357ZM40.0766 91.4229L41.2242 83.8237H42.589L43.7366 91.4229H42.651L42.4442 89.872H41.369L41.1622 91.4229H40.0766ZM41.5241 88.6934H42.2891L41.9686 86.1397L41.9376 85.7364H41.8756L41.8446 86.1397L41.5241 88.6934ZM44.3277 91.4229V83.8237H45.465C45.851 83.8237 46.1835 83.8927 46.4627 84.0305C46.7453 84.1649 46.9624 84.3769 47.114 84.6664C47.2691 84.9558 47.3467 85.3298 47.3467 85.7881C47.3467 86.1534 47.2984 86.4722 47.2019 86.7445C47.1089 87.0167 46.9262 87.239 46.654 87.4113C46.9297 87.563 47.1278 87.8042 47.2484 88.1351C47.3691 88.4625 47.4294 88.8416 47.4294 89.2724C47.4294 89.6962 47.3605 90.0702 47.2226 90.3941C47.0882 90.7181 46.8883 90.9714 46.6229 91.154C46.361 91.3332 46.0371 91.4229 45.6511 91.4229H44.3277ZM45.4443 90.3166C45.782 90.3166 46.0043 90.2166 46.1112 90.0168C46.218 89.8134 46.2714 89.5239 46.2714 89.1483C46.2714 88.7657 46.218 88.4763 46.1112 88.2798C46.0043 88.0799 45.782 87.98 45.4443 87.98V90.3166ZM45.4443 86.9564C45.7579 86.9564 45.9733 86.8703 46.0905 86.698C46.2111 86.5256 46.2714 86.2706 46.2714 85.9329C46.2714 85.5917 46.2094 85.3401 46.0853 85.1781C45.9647 85.0127 45.751 84.93 45.4443 84.93V86.9564ZM48.0937 91.4229V83.8237H49.2103V91.4229H48.0937ZM50.0424 91.4229V83.8237H51.159V90.389H52.6375V91.4229H50.0424ZM53.0916 91.4229V83.8237H54.2082V91.4229H53.0916ZM55.0402 91.4229V83.8237H56.1775C56.5359 83.8237 56.8392 83.8823 57.0873 83.9995C57.3355 84.1167 57.5353 84.3165 57.687 84.5991C57.8386 84.8817 57.9472 85.2695 58.0127 85.7623C58.0816 86.2551 58.1161 86.8772 58.1161 87.6285C58.1161 88.3832 58.0816 89.007 58.0127 89.4998C57.9472 89.9892 57.8386 90.3752 57.687 90.6578C57.5353 90.9369 57.3355 91.1351 57.0873 91.2523C56.8392 91.366 56.5359 91.4229 56.1775 91.4229H55.0402ZM56.1568 90.3062C56.4325 90.3062 56.6272 90.1977 56.741 89.9806C56.8547 89.7635 56.9236 89.4533 56.9478 89.0501C56.9719 88.6468 56.9839 88.1678 56.9839 87.6129C56.9839 87.0512 56.9719 86.5722 56.9478 86.1758C56.9236 85.7761 56.853 85.4711 56.7358 85.2608C56.6221 85.0472 56.4291 84.9403 56.1568 84.9403V90.3062ZM58.6544 91.4229L59.802 83.8237H61.1668L62.3144 91.4229H61.2288L61.022 89.872H59.9468L59.74 91.4229H58.6544ZM60.1019 88.6934H60.8669L60.5464 86.1397L60.5154 85.7364H60.4534L60.4224 86.1397L60.1019 88.6934ZM62.9055 91.4229V83.8237H64.0428C64.4012 83.8237 64.7045 83.8823 64.9526 83.9995C65.2007 84.1167 65.4006 84.3165 65.5523 84.5991C65.7039 84.8817 65.8125 85.2695 65.8779 85.7623C65.9469 86.2551 65.9813 86.8772 65.9813 87.6285C65.9813 88.3832 65.9469 89.007 65.8779 89.4998C65.8125 89.9892 65.7039 90.3752 65.5523 90.6578C65.4006 90.9369 65.2007 91.1351 64.9526 91.2523C64.7045 91.366 64.4012 91.4229 64.0428 91.4229H62.9055ZM64.0221 90.3062C64.2978 90.3062 64.4925 90.1977 64.6062 89.9806C64.72 89.7635 64.7889 89.4533 64.813 89.0501C64.8371 88.6468 64.8492 88.1678 64.8492 87.6129C64.8492 87.0512 64.8371 86.5722 64.813 86.1758C64.7889 85.7761 64.7182 85.4711 64.6011 85.2608C64.4873 85.0472 64.2944 84.9403 64.0221 84.9403V90.3062ZM66.7523 91.4229V83.8237H69.306V84.9713H67.8689V87.0185H68.9028V88.1351H67.8689V90.2752H69.306V91.4229H66.7523ZM71.7299 91.4229V83.8237H72.8465C73.2704 83.8237 73.6237 83.9168 73.9063 84.1029C74.1923 84.289 74.406 84.5526 74.5473 84.8938C74.6886 85.235 74.7592 85.6365 74.7592 86.0983C74.7592 86.5601 74.6852 86.9582 74.537 87.2924C74.3888 87.6267 74.1717 87.8887 73.8856 88.0782C73.603 88.2643 73.2567 88.366 72.8465 88.3832V91.4229H71.7299ZM72.8465 87.2459C73.043 87.2459 73.1981 87.208 73.3118 87.1322C73.4255 87.0529 73.5065 86.9289 73.5548 86.76C73.6065 86.5911 73.6323 86.374 73.6323 86.1086C73.6323 85.8398 73.6065 85.621 73.5548 85.4521C73.5065 85.2832 73.4238 85.1592 73.3066 85.0799C73.1929 85.0006 73.0395 84.961 72.8465 84.961V87.2459ZM75.1321 91.4229L76.2797 83.8237H77.6445L78.7921 91.4229H77.7065L77.4997 89.872H76.4245L76.2177 91.4229H75.1321ZM76.5795 88.6934H77.3446L77.0241 86.1397L76.9931 85.7364H76.9311L76.9001 86.1397L76.5795 88.6934ZM79.3832 91.4229V83.8237H80.4998C81.1684 83.8237 81.6612 84.0098 81.9783 84.382C82.2953 84.7508 82.4538 85.2953 82.4538 86.0156C82.4538 86.4429 82.378 86.8134 82.2264 87.127C82.0782 87.4372 81.8973 87.6646 81.6836 87.8094L82.4435 91.4229H81.3269L80.6962 88.2178H80.4998V91.4229H79.3832ZM80.4998 87.1839C80.7066 87.1839 80.8703 87.1391 80.9909 87.0495C81.1115 86.9564 81.1977 86.8255 81.2494 86.6566C81.3011 86.4877 81.3269 86.2878 81.3269 86.0569C81.3269 85.6951 81.2666 85.4176 81.146 85.2247C81.0288 85.0282 80.8134 84.93 80.4998 84.93V87.1839ZM83.823 91.4229V84.9713H82.7684V83.8237H85.9941V84.9713H84.9396V91.4229H83.823ZM86.5114 91.4229V83.8237H87.628V91.4229H86.5114ZM88.46 91.4229V83.8237H89.5973C89.9557 83.8237 90.259 83.8823 90.5072 83.9995C90.7553 84.1167 90.9552 84.3165 91.1068 84.5991C91.2585 84.8817 91.367 85.2695 91.4325 85.7623C91.5014 86.2551 91.5359 86.8772 91.5359 87.6285C91.5359 88.3832 91.5014 89.007 91.4325 89.4998C91.367 89.9892 91.2585 90.3752 91.1068 90.6578C90.9552 90.9369 90.7553 91.1351 90.5072 91.2523C90.259 91.366 89.9557 91.4229 89.5973 91.4229H88.46ZM89.5767 90.3062C89.8524 90.3062 90.0471 90.1977 90.1608 89.9806C90.2745 89.7635 90.3435 89.4533 90.3676 89.0501C90.3917 88.6468 90.4038 88.1678 90.4038 87.6129C90.4038 87.0512 90.3917 86.5722 90.3676 86.1758C90.3435 85.7761 90.2728 85.4711 90.1556 85.2608C90.0419 85.0472 89.8489 84.9403 89.5767 84.9403V90.3062ZM92.0742 91.4229L93.2219 83.8237H94.5866L95.7342 91.4229H94.6486L94.4419 89.872H93.3666L93.1598 91.4229H92.0742ZM93.5217 88.6934H94.2868L93.9663 86.1397L93.9352 85.7364H93.8732L93.8422 86.1397L93.5217 88.6934ZM93.3976 83.1517L94.0903 82.2212H95.1759L94.2041 83.1517H93.3976ZM96.3253 91.4229V83.8237H97.4419C98.1105 83.8237 98.6033 84.0098 98.9204 84.382C99.2375 84.7508 99.396 85.2953 99.396 86.0156C99.396 86.4429 99.3202 86.8134 99.1685 87.127C99.0203 87.4372 98.8394 87.6646 98.6257 87.8094L99.3857 91.4229H98.269L97.6384 88.2178H97.4419V91.4229H96.3253ZM97.4419 87.1839C97.6487 87.1839 97.8124 87.1391 97.933 87.0495C98.0537 86.9564 98.1398 86.8255 98.1915 86.6566C98.2432 86.4877 98.269 86.2878 98.269 86.0569C98.269 85.6951 98.2087 85.4176 98.0881 85.2247C97.9709 85.0282 97.7555 84.93 97.4419 84.93V87.1839ZM100.021 91.4229V83.8237H101.137V91.4229H100.021ZM101.737 91.4229L102.884 83.8237H104.249L105.397 91.4229H104.311L104.104 89.872H103.029L102.822 91.4229H101.737ZM103.184 88.6934H103.949L103.629 86.1397L103.598 85.7364H103.536L103.505 86.1397L103.184 88.6934Z" fill="white"/>
<path fill-rule="evenodd" clip-rule="evenodd" d="M60.9574 0.928963C50.5905 1.68198 41.14 4.39033 32.6059 9.05403C22.4285 14.4974 14.4851 22.13 8.77584 31.9517C3.06656 41.7734 0.211914 52.956 0.211914 65.4994C0.211914 78.0429 3.06656 89.2254 8.77584 99.0472C14.4851 108.869 22.4285 116.561 32.6059 122.122C41.14 126.687 50.5905 129.338 60.9574 130.075V119.56C52.5989 118.843 45.0101 116.621 38.1911 112.892C29.8754 108.277 23.3593 101.887 18.643 93.7221C13.9266 85.4387 11.5684 76.0312 11.5684 65.4994C11.5684 54.9677 13.9266 45.5601 18.643 37.2767C23.3593 28.9933 29.8754 22.6033 38.1911 18.1066C45.0101 14.3778 52.5989 12.1554 60.9574 11.4393V0.928963ZM69.0421 119.788V130.265C79.4179 130.032 88.8064 127.969 97.2077 124.075C106.144 119.815 113.467 113.839 119.176 106.147C124.885 98.4555 128.423 89.5804 129.788 79.522H118.618C117.128 87.6871 114.025 94.7871 109.309 100.822C104.717 106.857 98.7591 111.531 91.4363 114.845C84.7699 117.913 77.3051 119.561 69.0421 119.788ZM69.0421 11.2112V0.734376C79.4179 0.974155 88.8064 3.09654 97.2077 7.10152C106.144 11.2432 113.467 17.1599 119.176 24.8516C124.885 32.5434 128.423 41.4184 129.788 51.4768H118.618C117.128 43.3118 114.025 36.2117 109.309 30.1767C104.717 24.1416 98.7591 19.4674 91.4363 16.1541C84.7699 13.0857 77.3051 11.4381 69.0421 11.2112Z" fill="url(#paint5_linear_1467_126)"/>
<defs>
<linearGradient id="paint0_linear_1467_126" x1="65.1424" y1="39.2734" x2="70.3042" y2="40.6868" gradientUnits="userSpaceOnUse">
<stop stop-color="#FBFC56"/>
<stop offset="1" stop-color="#F9DD04"/>
</linearGradient>
<linearGradient id="paint1_linear_1467_126" x1="97.6917" y1="39.2734" x2="102.853" y2="40.6867" gradientUnits="userSpaceOnUse">
<stop stop-color="#FBFC56"/>
<stop offset="1" stop-color="#F9DD04"/>
</linearGradient>
<linearGradient id="paint2_linear_1467_126" x1="65.709" y1="48.8229" x2="91.6461" y2="55.4482" gradientUnits="userSpaceOnUse">
<stop stop-color="#FBFC56"/>
<stop offset="1" stop-color="#F9DD04"/>
</linearGradient>
<linearGradient id="paint3_linear_1467_126" x1="26.086" y1="41.1004" x2="47.5857" y2="44.6256" gradientUnits="userSpaceOnUse">
<stop stop-color="#FBFC56"/>
<stop offset="1" stop-color="#F9DD04"/>
</linearGradient>
<linearGradient id="paint4_linear_1467_126" x1="38.3801" y1="56.8612" x2="42.2211" y2="57.6512" gradientUnits="userSpaceOnUse">
<stop stop-color="#FBFC56"/>
<stop offset="1" stop-color="#F9DD04"/>
</linearGradient>
<linearGradient id="paint5_linear_1467_126" x1="5.96246" y1="12.0558" x2="124.556" y2="135.219" gradientUnits="userSpaceOnUse">
<stop offset="0.0116797" stop-color="#FEEA51"/>
<stop offset="1" stop-color="#F9DD04"/>
</linearGradient>
</defs>
</svg>
