<svg width="1901" height="1174" viewBox="0 0 1901 1174" fill="none" xmlns="http://www.w3.org/2000/svg">
<g filter="url(#filter0_d_1475_816)">
<g clip-path="url(#clip0_1475_816)">
<rect x="50.5996" y="118.952" width="1440" height="873" rx="50" fill="white"/>
<rect x="113.3" y="272.804" width="1314.81" height="1205.07" rx="31.7124" fill="white" stroke="#CBD5E1" stroke-width="2.18706"/>
<path d="M140.21 372.316H1396.34" stroke="#CBD5E1" stroke-width="2.18706" stroke-dasharray="4.37 4.37"/>
<path d="M140.21 674.131H1396.34" stroke="#CBD5E1" stroke-width="2.18706" stroke-dasharray="4.37 4.37"/>
<path d="M140.21 573.526H1396.34" stroke="#CBD5E1" stroke-width="2.18706" stroke-dasharray="4.37 4.37"/>
<path d="M140.21 774.736H1396.34" stroke="#CBD5E1" stroke-width="2.18706" stroke-dasharray="4.37 4.37"/>
<path d="M140.21 875.341H1396.34" stroke="#CBD5E1" stroke-width="2.18706" stroke-dasharray="4.37 4.37"/>
<path d="M140.21 975.947H1396.34" stroke="#CBD5E1" stroke-width="2.18706" stroke-dasharray="4.37 4.37"/>
<path d="M140.21 472.921H1396.34" stroke="#CBD5E1" stroke-width="2.18706" stroke-dasharray="4.37 4.37"/>
<path d="M188.44 334.276V316.076H196.708C198.684 316.076 200.426 316.457 201.934 317.22C203.442 317.965 204.621 319.014 205.47 320.366C206.32 321.718 206.744 323.321 206.744 325.176C206.744 327.013 206.32 328.617 205.47 329.986C204.621 331.338 203.442 332.395 201.934 333.158C200.426 333.903 198.684 334.276 196.708 334.276H188.44ZM192.652 330.818H196.5C197.714 330.818 198.762 330.593 199.646 330.142C200.548 329.674 201.241 329.015 201.726 328.166C202.229 327.317 202.48 326.32 202.48 325.176C202.48 324.015 202.229 323.018 201.726 322.186C201.241 321.337 200.548 320.687 199.646 320.236C198.762 319.768 197.714 319.534 196.5 319.534H192.652V330.818ZM209.921 334.276V316.076H214.133V334.276H209.921ZM218.452 334.276V316.076H226.33C227.959 316.076 229.363 316.345 230.542 316.882C231.721 317.402 232.631 318.156 233.272 319.144C233.913 320.132 234.234 321.311 234.234 322.68C234.234 324.032 233.913 325.202 233.272 326.19C232.631 327.161 231.721 327.906 230.542 328.426C229.363 328.946 227.959 329.206 226.33 329.206H220.792L222.664 327.36V334.276H218.452ZM230.022 334.276L225.472 327.672H229.97L234.572 334.276H230.022ZM222.664 327.828L220.792 325.852H226.096C227.396 325.852 228.367 325.575 229.008 325.02C229.649 324.448 229.97 323.668 229.97 322.68C229.97 321.675 229.649 320.895 229.008 320.34C228.367 319.785 227.396 319.508 226.096 319.508H220.792L222.664 317.506V327.828ZM241.445 323.408H250.207V326.684H241.445V323.408ZM241.757 330.896H251.663V334.276H237.571V316.076H251.325V319.456H241.757V330.896ZM263.724 334.588C262.32 334.588 261.012 334.363 259.798 333.912C258.602 333.444 257.562 332.785 256.678 331.936C255.794 331.087 255.101 330.09 254.598 328.946C254.113 327.802 253.87 326.545 253.87 325.176C253.87 323.807 254.113 322.55 254.598 321.406C255.101 320.262 255.794 319.265 256.678 318.416C257.58 317.567 258.628 316.917 259.824 316.466C261.02 315.998 262.329 315.764 263.75 315.764C265.328 315.764 266.749 316.041 268.014 316.596C269.297 317.133 270.372 317.931 271.238 318.988L268.534 321.484C267.91 320.773 267.217 320.245 266.454 319.898C265.692 319.534 264.86 319.352 263.958 319.352C263.109 319.352 262.329 319.491 261.618 319.768C260.908 320.045 260.292 320.444 259.772 320.964C259.252 321.484 258.845 322.099 258.55 322.81C258.273 323.521 258.134 324.309 258.134 325.176C258.134 326.043 258.273 326.831 258.55 327.542C258.845 328.253 259.252 328.868 259.772 329.388C260.292 329.908 260.908 330.307 261.618 330.584C262.329 330.861 263.109 331 263.958 331C264.86 331 265.692 330.827 266.454 330.48C267.217 330.116 267.91 329.57 268.534 328.842L271.238 331.338C270.372 332.395 269.297 333.201 268.014 333.756C266.749 334.311 265.319 334.588 263.724 334.588ZM262.32 340.308C261.87 340.308 261.428 340.256 260.994 340.152C260.578 340.048 260.214 339.918 259.902 339.762L260.526 338.02C260.786 338.141 261.055 338.237 261.332 338.306C261.61 338.375 261.904 338.41 262.216 338.41C262.702 338.41 263.048 338.332 263.256 338.176C263.464 338.02 263.568 337.821 263.568 337.578C263.568 337.353 263.464 337.171 263.256 337.032C263.066 336.893 262.745 336.824 262.294 336.824H261.41L262.086 334.068H264.244L263.88 335.576C264.66 335.663 265.232 335.905 265.596 336.304C265.96 336.72 266.142 337.197 266.142 337.734C266.142 338.514 265.796 339.138 265.102 339.606C264.409 340.074 263.482 340.308 262.32 340.308ZM271.361 334.276L279.473 316.076H283.633L291.771 334.276H287.351L280.695 318.208H282.359L275.677 334.276H271.361ZM275.417 330.376L276.535 327.178H285.895L287.039 330.376H275.417ZM283.503 314.672C283.052 314.672 282.653 314.594 282.307 314.438C281.96 314.265 281.648 314.074 281.371 313.866C281.093 313.641 280.833 313.45 280.591 313.294C280.348 313.121 280.105 313.034 279.863 313.034C279.516 313.034 279.23 313.164 279.005 313.424C278.779 313.667 278.649 314.022 278.615 314.49H276.561C276.595 313.329 276.881 312.41 277.419 311.734C277.956 311.041 278.684 310.694 279.603 310.694C280.053 310.694 280.452 310.781 280.799 310.954C281.145 311.11 281.457 311.301 281.735 311.526C282.029 311.751 282.298 311.951 282.541 312.124C282.783 312.28 283.017 312.358 283.243 312.358C283.607 312.358 283.901 312.237 284.127 311.994C284.352 311.734 284.473 311.387 284.491 310.954H286.545C286.527 312.063 286.241 312.965 285.687 313.658C285.149 314.334 284.421 314.672 283.503 314.672ZM302.245 334.588C300.806 334.588 299.472 334.354 298.241 333.886C297.028 333.418 295.97 332.759 295.069 331.91C294.185 331.061 293.492 330.064 292.989 328.92C292.504 327.776 292.261 326.528 292.261 325.176C292.261 323.824 292.504 322.576 292.989 321.432C293.492 320.288 294.194 319.291 295.095 318.442C295.996 317.593 297.054 316.934 298.267 316.466C299.48 315.998 300.798 315.764 302.219 315.764C303.658 315.764 304.975 315.998 306.171 316.466C307.384 316.934 308.433 317.593 309.317 318.442C310.218 319.291 310.92 320.288 311.423 321.432C311.926 322.559 312.177 323.807 312.177 325.176C312.177 326.528 311.926 327.785 311.423 328.946C310.92 330.09 310.218 331.087 309.317 331.936C308.433 332.768 307.384 333.418 306.171 333.886C304.975 334.354 303.666 334.588 302.245 334.588ZM302.219 331C303.034 331 303.779 330.861 304.455 330.584C305.148 330.307 305.755 329.908 306.275 329.388C306.795 328.868 307.194 328.253 307.471 327.542C307.766 326.831 307.913 326.043 307.913 325.176C307.913 324.309 307.766 323.521 307.471 322.81C307.194 322.099 306.795 321.484 306.275 320.964C305.772 320.444 305.174 320.045 304.481 319.768C303.788 319.491 303.034 319.352 302.219 319.352C301.404 319.352 300.65 319.491 299.957 319.768C299.281 320.045 298.683 320.444 298.163 320.964C297.643 321.484 297.236 322.099 296.941 322.81C296.664 323.521 296.525 324.309 296.525 325.176C296.525 326.025 296.664 326.814 296.941 327.542C297.236 328.253 297.634 328.868 298.137 329.388C298.657 329.908 299.264 330.307 299.957 330.584C300.65 330.861 301.404 331 302.219 331Z" fill="#0F172A"/>
<path d="M454.101 334.276V316.076H461.979C463.609 316.076 465.013 316.345 466.191 316.882C467.37 317.402 468.28 318.156 468.921 319.144C469.563 320.132 469.883 321.311 469.883 322.68C469.883 324.032 469.563 325.202 468.921 326.19C468.28 327.178 467.37 327.941 466.191 328.478C465.013 328.998 463.609 329.258 461.979 329.258H456.441L458.313 327.36V334.276H454.101ZM458.313 327.828L456.441 325.826H461.745C463.045 325.826 464.016 325.549 464.657 324.994C465.299 324.439 465.619 323.668 465.619 322.68C465.619 321.675 465.299 320.895 464.657 320.34C464.016 319.785 463.045 319.508 461.745 319.508H456.441L458.313 317.506V327.828ZM469.584 334.276L477.696 316.076H481.856L489.994 334.276H485.574L478.918 318.208H480.582L473.9 334.276H469.584ZM473.64 330.376L474.758 327.178H484.118L485.262 330.376H473.64ZM491.883 334.276V316.076H499.761C501.39 316.076 502.794 316.345 503.973 316.882C505.151 317.402 506.061 318.156 506.703 319.144C507.344 320.132 507.665 321.311 507.665 322.68C507.665 324.032 507.344 325.202 506.703 326.19C506.061 327.161 505.151 327.906 503.973 328.426C502.794 328.946 501.39 329.206 499.761 329.206H494.223L496.095 327.36V334.276H491.883ZM503.453 334.276L498.903 327.672H503.401L508.003 334.276H503.453ZM496.095 327.828L494.223 325.852H499.527C500.827 325.852 501.797 325.575 502.439 325.02C503.08 324.448 503.401 323.668 503.401 322.68C503.401 321.675 503.08 320.895 502.439 320.34C501.797 319.785 500.827 319.508 499.527 319.508H494.223L496.095 317.506V327.828ZM514.518 334.276V319.508H508.694V316.076H524.554V319.508H518.73V334.276H514.518ZM526.82 334.276V316.076H531.032V334.276H526.82ZM535.351 334.276V316.076H543.619C545.595 316.076 547.337 316.457 548.845 317.22C550.353 317.965 551.532 319.014 552.381 320.366C553.231 321.718 553.655 323.321 553.655 325.176C553.655 327.013 553.231 328.617 552.381 329.986C551.532 331.338 550.353 332.395 548.845 333.158C547.337 333.903 545.595 334.276 543.619 334.276H535.351ZM539.563 330.818H543.411C544.625 330.818 545.673 330.593 546.557 330.142C547.459 329.674 548.152 329.015 548.637 328.166C549.14 327.317 549.391 326.32 549.391 325.176C549.391 324.015 549.14 323.018 548.637 322.186C548.152 321.337 547.459 320.687 546.557 320.236C545.673 319.768 544.625 319.534 543.411 319.534H539.563V330.818ZM565.672 334.588C564.233 334.588 562.898 334.354 561.668 333.886C560.454 333.418 559.397 332.759 558.496 331.91C557.612 331.061 556.918 330.064 556.416 328.92C555.93 327.776 555.688 326.528 555.688 325.176C555.688 323.824 555.93 322.576 556.416 321.432C556.918 320.288 557.62 319.291 558.522 318.442C559.423 317.593 560.48 316.934 561.694 316.466C562.907 315.998 564.224 315.764 565.646 315.764C567.084 315.764 568.402 315.998 569.598 316.466C570.811 316.934 571.86 317.593 572.744 318.442C573.645 319.291 574.347 320.288 574.85 321.432C575.352 322.559 575.604 323.807 575.604 325.176C575.604 326.528 575.352 327.785 574.85 328.946C574.347 330.09 573.645 331.087 572.744 331.936C571.86 332.768 570.811 333.418 569.598 333.886C568.402 334.354 567.093 334.588 565.672 334.588ZM565.646 331C566.46 331 567.206 330.861 567.882 330.584C568.575 330.307 569.182 329.908 569.702 329.388C570.222 328.868 570.62 328.253 570.898 327.542C571.192 326.831 571.34 326.043 571.34 325.176C571.34 324.309 571.192 323.521 570.898 322.81C570.62 322.099 570.222 321.484 569.702 320.964C569.199 320.444 568.601 320.045 567.908 319.768C567.214 319.491 566.46 319.352 565.646 319.352C564.831 319.352 564.077 319.491 563.384 319.768C562.708 320.045 562.11 320.444 561.59 320.964C561.07 321.484 560.662 322.099 560.368 322.81C560.09 323.521 559.952 324.309 559.952 325.176C559.952 326.025 560.09 326.814 560.368 327.542C560.662 328.253 561.061 328.868 561.564 329.388C562.084 329.908 562.69 330.307 563.384 330.584C564.077 330.861 564.831 331 565.646 331Z" fill="#0F172A"/>
<path d="M620.533 323.408H629.295V326.684H620.533V323.408ZM620.845 330.896H630.751V334.276H616.659V316.076H630.413V319.456H620.845V330.896ZM640.082 334.588C638.626 334.588 637.231 334.397 635.896 334.016C634.562 333.617 633.487 333.106 632.672 332.482L634.102 329.31C634.882 329.865 635.801 330.324 636.858 330.688C637.933 331.035 639.016 331.208 640.108 331.208C640.94 331.208 641.608 331.13 642.11 330.974C642.63 330.801 643.012 330.567 643.254 330.272C643.497 329.977 643.618 329.639 643.618 329.258C643.618 328.773 643.428 328.391 643.046 328.114C642.665 327.819 642.162 327.585 641.538 327.412C640.914 327.221 640.221 327.048 639.458 326.892C638.713 326.719 637.959 326.511 637.196 326.268C636.451 326.025 635.766 325.713 635.142 325.332C634.518 324.951 634.007 324.448 633.608 323.824C633.227 323.2 633.036 322.403 633.036 321.432C633.036 320.392 633.314 319.447 633.868 318.598C634.44 317.731 635.29 317.047 636.416 316.544C637.56 316.024 638.99 315.764 640.706 315.764C641.85 315.764 642.977 315.903 644.086 316.18C645.196 316.44 646.175 316.839 647.024 317.376L645.724 320.574C644.875 320.089 644.026 319.733 643.176 319.508C642.327 319.265 641.495 319.144 640.68 319.144C639.866 319.144 639.198 319.239 638.678 319.43C638.158 319.621 637.786 319.872 637.56 320.184C637.335 320.479 637.222 320.825 637.222 321.224C637.222 321.692 637.413 322.073 637.794 322.368C638.176 322.645 638.678 322.871 639.302 323.044C639.926 323.217 640.611 323.391 641.356 323.564C642.119 323.737 642.873 323.937 643.618 324.162C644.381 324.387 645.074 324.691 645.698 325.072C646.322 325.453 646.825 325.956 647.206 326.58C647.605 327.204 647.804 327.993 647.804 328.946C647.804 329.969 647.518 330.905 646.946 331.754C646.374 332.603 645.516 333.288 644.372 333.808C643.246 334.328 641.816 334.588 640.082 334.588ZM654.199 334.276V319.508H648.375V316.076H664.235V319.508H658.411V334.276H654.199ZM663.195 334.276L671.307 316.076H675.467L683.605 334.276H679.185L672.529 318.208H674.193L667.511 334.276H663.195ZM667.251 330.376L668.369 327.178H677.729L678.873 330.376H667.251ZM685.493 334.276V316.076H693.761C695.737 316.076 697.479 316.457 698.987 317.22C700.495 317.965 701.674 319.014 702.523 320.366C703.372 321.718 703.797 323.321 703.797 325.176C703.797 327.013 703.372 328.617 702.523 329.986C701.674 331.338 700.495 332.395 698.987 333.158C697.479 333.903 695.737 334.276 693.761 334.276H685.493ZM689.705 330.818H693.553C694.766 330.818 695.815 330.593 696.699 330.142C697.6 329.674 698.294 329.015 698.779 328.166C699.282 327.317 699.533 326.32 699.533 325.176C699.533 324.015 699.282 323.018 698.779 322.186C698.294 321.337 697.6 320.687 696.699 320.236C695.815 319.768 694.766 319.534 693.553 319.534H689.705V330.818ZM715.813 334.588C714.375 334.588 713.04 334.354 711.809 333.886C710.596 333.418 709.539 332.759 708.637 331.91C707.753 331.061 707.06 330.064 706.557 328.92C706.072 327.776 705.829 326.528 705.829 325.176C705.829 323.824 706.072 322.576 706.557 321.432C707.06 320.288 707.762 319.291 708.663 318.442C709.565 317.593 710.622 316.934 711.835 316.466C713.049 315.998 714.366 315.764 715.787 315.764C717.226 315.764 718.543 315.998 719.739 316.466C720.953 316.934 722.001 317.593 722.885 318.442C723.787 319.291 724.489 320.288 724.991 321.432C725.494 322.559 725.745 323.807 725.745 325.176C725.745 326.528 725.494 327.785 724.991 328.946C724.489 330.09 723.787 331.087 722.885 331.936C722.001 332.768 720.953 333.418 719.739 333.886C718.543 334.354 717.235 334.588 715.813 334.588ZM715.787 331C716.602 331 717.347 330.861 718.023 330.584C718.717 330.307 719.323 329.908 719.843 329.388C720.363 328.868 720.762 328.253 721.039 327.542C721.334 326.831 721.481 326.043 721.481 325.176C721.481 324.309 721.334 323.521 721.039 322.81C720.762 322.099 720.363 321.484 719.843 320.964C719.341 320.444 718.743 320.045 718.049 319.768C717.356 319.491 716.602 319.352 715.787 319.352C714.973 319.352 714.219 319.491 713.525 319.768C712.849 320.045 712.251 320.444 711.731 320.964C711.211 321.484 710.804 322.099 710.509 322.81C710.232 323.521 710.093 324.309 710.093 325.176C710.093 326.025 710.232 326.814 710.509 327.542C710.804 328.253 711.203 328.868 711.705 329.388C712.225 329.908 712.832 330.307 713.525 330.584C714.219 330.861 714.973 331 715.787 331Z" fill="#0F172A"/>
<path d="M770.085 323.408H778.847V326.684H770.085V323.408ZM770.397 330.896H780.303V334.276H766.211V316.076H779.965V319.456H770.397V330.896ZM783.654 334.276V316.076H787.138L797.876 329.18H796.186V316.076H800.346V334.276H796.888L786.124 321.172H787.814V334.276H783.654ZM804.652 334.276V316.076H812.92C814.896 316.076 816.638 316.457 818.146 317.22C819.654 317.965 820.833 319.014 821.682 320.366C822.531 321.718 822.956 323.321 822.956 325.176C822.956 327.013 822.531 328.617 821.682 329.986C820.833 331.338 819.654 332.395 818.146 333.158C816.638 333.903 814.896 334.276 812.92 334.276H804.652ZM808.864 330.818H812.712C813.925 330.818 814.974 330.593 815.858 330.142C816.759 329.674 817.453 329.015 817.938 328.166C818.441 327.317 818.692 326.32 818.692 325.176C818.692 324.015 818.441 323.018 817.938 322.186C817.453 321.337 816.759 320.687 815.858 320.236C814.974 319.768 813.925 319.534 812.712 319.534H808.864V330.818ZM830.007 323.408H838.769V326.684H830.007V323.408ZM830.319 330.896H840.225V334.276H826.133V316.076H839.887V319.456H830.319V330.896ZM843.576 334.276V316.076H851.454C853.083 316.076 854.487 316.345 855.666 316.882C856.845 317.402 857.755 318.156 858.396 319.144C859.037 320.132 859.358 321.311 859.358 322.68C859.358 324.032 859.037 325.202 858.396 326.19C857.755 327.161 856.845 327.906 855.666 328.426C854.487 328.946 853.083 329.206 851.454 329.206H845.916L847.788 327.36V334.276H843.576ZM855.146 334.276L850.596 327.672H855.094L859.696 334.276H855.146ZM847.788 327.828L845.916 325.852H851.22C852.52 325.852 853.491 325.575 854.132 325.02C854.773 324.448 855.094 323.668 855.094 322.68C855.094 321.675 854.773 320.895 854.132 320.34C853.491 319.785 852.52 319.508 851.22 319.508H845.916L847.788 317.506V327.828ZM866.569 323.408H875.331V326.684H866.569V323.408ZM866.881 330.896H876.787V334.276H862.695V316.076H876.449V319.456H866.881V330.896ZM888.848 334.588C887.444 334.588 886.136 334.363 884.922 333.912C883.726 333.444 882.686 332.785 881.802 331.936C880.918 331.087 880.225 330.09 879.722 328.946C879.237 327.802 878.994 326.545 878.994 325.176C878.994 323.807 879.237 322.55 879.722 321.406C880.225 320.262 880.918 319.265 881.802 318.416C882.704 317.567 883.752 316.917 884.948 316.466C886.144 315.998 887.453 315.764 888.874 315.764C890.452 315.764 891.873 316.041 893.138 316.596C894.421 317.133 895.496 317.931 896.362 318.988L893.658 321.484C893.034 320.773 892.341 320.245 891.578 319.898C890.816 319.534 889.984 319.352 889.082 319.352C888.233 319.352 887.453 319.491 886.742 319.768C886.032 320.045 885.416 320.444 884.896 320.964C884.376 321.484 883.969 322.099 883.674 322.81C883.397 323.521 883.258 324.309 883.258 325.176C883.258 326.043 883.397 326.831 883.674 327.542C883.969 328.253 884.376 328.868 884.896 329.388C885.416 329.908 886.032 330.307 886.742 330.584C887.453 330.861 888.233 331 889.082 331C889.984 331 890.816 330.827 891.578 330.48C892.341 330.116 893.034 329.57 893.658 328.842L896.362 331.338C895.496 332.395 894.421 333.201 893.138 333.756C891.873 334.311 890.443 334.588 888.848 334.588ZM887.444 340.308C886.994 340.308 886.552 340.256 886.118 340.152C885.702 340.048 885.338 339.918 885.026 339.762L885.65 338.02C885.91 338.141 886.179 338.237 886.456 338.306C886.734 338.375 887.028 338.41 887.34 338.41C887.826 338.41 888.172 338.332 888.38 338.176C888.588 338.02 888.692 337.821 888.692 337.578C888.692 337.353 888.588 337.171 888.38 337.032C888.19 336.893 887.869 336.824 887.418 336.824H886.534L887.21 334.068H889.368L889.004 335.576C889.784 335.663 890.356 335.905 890.72 336.304C891.084 336.72 891.266 337.197 891.266 337.734C891.266 338.514 890.92 339.138 890.226 339.606C889.533 340.074 888.606 340.308 887.444 340.308ZM907.666 334.588C906.227 334.588 904.893 334.354 903.662 333.886C902.449 333.418 901.391 332.759 900.49 331.91C899.606 331.061 898.913 330.064 898.41 328.92C897.925 327.776 897.682 326.528 897.682 325.176C897.682 323.824 897.925 322.576 898.41 321.432C898.913 320.288 899.615 319.291 900.516 318.442C901.417 317.593 902.475 316.934 903.688 316.466C904.901 315.998 906.219 315.764 907.64 315.764C909.079 315.764 910.396 315.998 911.592 316.466C912.805 316.934 913.854 317.593 914.738 318.442C915.639 319.291 916.341 320.288 916.844 321.432C917.347 322.559 917.598 323.807 917.598 325.176C917.598 326.528 917.347 327.785 916.844 328.946C916.341 330.09 915.639 331.087 914.738 331.936C913.854 332.768 912.805 333.418 911.592 333.886C910.396 334.354 909.087 334.588 907.666 334.588ZM907.64 331C908.455 331 909.2 330.861 909.876 330.584C910.569 330.307 911.176 329.908 911.696 329.388C912.216 328.868 912.615 328.253 912.892 327.542C913.187 326.831 913.334 326.043 913.334 325.176C913.334 324.309 913.187 323.521 912.892 322.81C912.615 322.099 912.216 321.484 911.696 320.964C911.193 320.444 910.595 320.045 909.902 319.768C909.209 319.491 908.455 319.352 907.64 319.352C906.825 319.352 906.071 319.491 905.378 319.768C904.702 320.045 904.104 320.444 903.584 320.964C903.064 321.484 902.657 322.099 902.362 322.81C902.085 323.521 901.946 324.309 901.946 325.176C901.946 326.025 902.085 326.814 902.362 327.542C902.657 328.253 903.055 328.868 903.558 329.388C904.078 329.908 904.685 330.307 905.378 330.584C906.071 330.861 906.825 331 907.64 331Z" fill="#0F172A"/>
<path d="M1014.67 334.588C1013.26 334.588 1011.96 334.363 1010.74 333.912C1009.55 333.444 1008.51 332.785 1007.62 331.936C1006.74 331.087 1006.04 330.09 1005.54 328.946C1005.06 327.802 1004.81 326.545 1004.81 325.176C1004.81 323.807 1005.06 322.55 1005.54 321.406C1006.04 320.262 1006.74 319.265 1007.62 318.416C1008.52 317.567 1009.57 316.917 1010.77 316.466C1011.96 315.998 1013.27 315.764 1014.69 315.764C1016.27 315.764 1017.69 316.041 1018.96 316.596C1020.24 317.133 1021.32 317.931 1022.18 318.988L1019.48 321.484C1018.85 320.773 1018.16 320.245 1017.4 319.898C1016.64 319.534 1015.8 319.352 1014.9 319.352C1014.05 319.352 1013.27 319.491 1012.56 319.768C1011.85 320.045 1011.24 320.444 1010.72 320.964C1010.2 321.484 1009.79 322.099 1009.49 322.81C1009.22 323.521 1009.08 324.309 1009.08 325.176C1009.08 326.043 1009.22 326.831 1009.49 327.542C1009.79 328.253 1010.2 328.868 1010.72 329.388C1011.24 329.908 1011.85 330.307 1012.56 330.584C1013.27 330.861 1014.05 331 1014.9 331C1015.8 331 1016.64 330.827 1017.4 330.48C1018.16 330.116 1018.85 329.57 1019.48 328.842L1022.18 331.338C1021.32 332.395 1020.24 333.201 1018.96 333.756C1017.69 334.311 1016.26 334.588 1014.67 334.588ZM1025.03 334.276V316.076H1028.51L1039.25 329.18H1037.56V316.076H1041.72V334.276H1038.26L1027.5 321.172H1029.19V334.276H1025.03ZM1046.02 334.276V316.076H1053.9C1055.53 316.076 1056.94 316.345 1058.11 316.882C1059.29 317.402 1060.2 318.156 1060.84 319.144C1061.49 320.132 1061.81 321.311 1061.81 322.68C1061.81 324.032 1061.49 325.202 1060.84 326.19C1060.2 327.178 1059.29 327.941 1058.11 328.478C1056.94 328.998 1055.53 329.258 1053.9 329.258H1048.36L1050.24 327.36V334.276H1046.02ZM1050.24 327.828L1048.36 325.826H1053.67C1054.97 325.826 1055.94 325.549 1056.58 324.994C1057.22 324.439 1057.54 323.668 1057.54 322.68C1057.54 321.675 1057.22 320.895 1056.58 320.34C1055.94 319.785 1054.97 319.508 1053.67 319.508H1048.36L1050.24 317.506V327.828ZM1067.58 334.588C1066.35 334.588 1065.22 334.363 1064.18 333.912C1063.15 333.444 1062.31 332.785 1061.66 331.936L1064 329.128C1064.5 329.787 1065.03 330.289 1065.58 330.636C1066.14 330.965 1066.73 331.13 1067.38 331.13C1069.09 331.13 1069.95 330.125 1069.95 328.114V319.456H1063.55V316.076H1074.14V327.88C1074.14 330.133 1073.58 331.815 1072.47 332.924C1071.36 334.033 1069.73 334.588 1067.58 334.588Z" fill="#0F172A"/>
<path d="M1238.93 323.408H1247.69V326.684H1238.93V323.408ZM1239.24 330.896H1249.15V334.276H1235.06V316.076H1248.81V319.456H1239.24V330.896ZM1251.19 328.582V325.332H1258.54V328.582H1251.19ZM1262.02 334.276V316.076H1265.5L1273.25 328.92H1271.41L1279.02 316.076H1282.48L1282.53 334.276H1278.58L1278.56 322.134H1279.28L1273.2 332.352H1271.3L1265.09 322.134H1265.97V334.276H1262.02ZM1284.46 334.276L1292.57 316.076H1296.73L1304.87 334.276H1300.45L1293.79 318.208H1295.46L1288.78 334.276H1284.46ZM1288.52 330.376L1289.63 327.178H1298.99L1300.14 330.376H1288.52ZM1306.76 334.276V316.076H1310.97V334.276H1306.76ZM1315.29 334.276V316.076H1319.5V330.844H1328.63V334.276H1315.29Z" fill="#0F172A"/>
<path d="M616.749 730.228V713.49H624.592C626.6 713.49 628.131 713.889 629.183 714.686C630.235 715.467 630.761 716.519 630.761 717.842C630.761 718.735 630.554 719.5 630.139 720.138C629.725 720.759 629.167 721.245 628.465 721.596C627.78 721.931 627.031 722.098 626.218 722.098L626.648 721.237C627.589 721.237 628.434 721.413 629.183 721.764C629.932 722.098 630.522 722.592 630.952 723.246C631.399 723.9 631.622 724.713 631.622 725.685C631.622 727.12 631.072 728.236 629.972 729.033C628.872 729.83 627.238 730.228 625.07 730.228H616.749ZM619.857 727.789H624.879C626.042 727.789 626.935 727.598 627.557 727.215C628.178 726.833 628.489 726.219 628.489 725.374C628.489 724.545 628.178 723.939 627.557 723.557C626.935 723.158 626.042 722.959 624.879 722.959H619.618V720.544H624.257C625.341 720.544 626.17 720.353 626.744 719.97C627.334 719.588 627.629 719.014 627.629 718.249C627.629 717.467 627.334 716.886 626.744 716.503C626.17 716.12 625.341 715.929 624.257 715.929H619.857V727.789ZM632.572 730.228L640.104 713.49H643.165L650.721 730.228H647.469L640.989 715.14H642.232L635.776 730.228H632.572ZM636.039 726.355L636.876 723.916H645.915L646.752 726.355H636.039Z" fill="#94A3B8"/>
<circle cx="151.469" cy="721.358" r="11.9559" fill="#01EAA0"/>
<path d="M186.282 422.557H427.502" stroke="#E8E8E8" stroke-width="23.5089"/>
<path d="M186.282 521.813H325.871" stroke="#E8E8E8" stroke-width="23.5089"/>
<path d="M186.282 620.438H427.502" stroke="#E8E8E8" stroke-width="23.5089"/>
<path d="M186.282 719.694H427.502" stroke="#E8E8E8" stroke-width="23.5089"/>
<path d="M186.282 821.336H325.871" stroke="#E8E8E8" stroke-width="23.5089"/>
<path d="M186.282 921.829H427.502" stroke="#E8E8E8" stroke-width="23.5089"/>
<path d="M454.013 422.557H550.397" stroke="#E8E8E8" stroke-width="23.5089"/>
<path d="M454.013 521.813H550.397" stroke="#E8E8E8" stroke-width="23.5089"/>
<path d="M454.013 620.438H550.397" stroke="#E8E8E8" stroke-width="23.5089"/>
<path d="M454.013 719.694H550.397" stroke="#E8E8E8" stroke-width="23.5089"/>
<path d="M454.013 821.336H550.397" stroke="#E8E8E8" stroke-width="23.5089"/>
<path d="M454.013 921.829H550.397" stroke="#E8E8E8" stroke-width="23.5089"/>
<path d="M614.501 422.557H710.885" stroke="#E8E8E8" stroke-width="23.5089"/>
<path d="M614.501 521.813H710.885" stroke="#E8E8E8" stroke-width="23.5089"/>
<path d="M614.501 620.438H710.885" stroke="#E8E8E8" stroke-width="23.5089"/>
<path d="M614.501 719.694H710.885" stroke="#E8E8E8" stroke-width="23.5089"/>
<path d="M614.501 821.336H710.885" stroke="#E8E8E8" stroke-width="23.5089"/>
<path d="M614.501 921.829H710.885" stroke="#E8E8E8" stroke-width="23.5089"/>
<path d="M764.053 422.557H965.823" stroke="#E8E8E8" stroke-width="23.5089"/>
<path d="M764.053 521.813H965.823" stroke="#E8E8E8" stroke-width="23.5089"/>
<path d="M764.053 620.438H965.823" stroke="#E8E8E8" stroke-width="23.5089"/>
<path d="M764.053 719.694H965.823" stroke="#E8E8E8" stroke-width="23.5089"/>
<path d="M764.053 821.336H965.823" stroke="#E8E8E8" stroke-width="23.5089"/>
<path d="M764.053 921.829H965.823" stroke="#E8E8E8" stroke-width="23.5089"/>
<path d="M1002.52 422.557H1196.2" stroke="#E8E8E8" stroke-width="23.5089"/>
<path d="M1002.52 521.813H1196.2" stroke="#E8E8E8" stroke-width="23.5089"/>
<path d="M1002.52 620.438H1196.2" stroke="#E8E8E8" stroke-width="23.5089"/>
<path d="M1002.52 719.694H1196.2" stroke="#E8E8E8" stroke-width="23.5089"/>
<path d="M1002.52 821.336H1196.2" stroke="#E8E8E8" stroke-width="23.5089"/>
<path d="M1002.52 921.829H1196.2" stroke="#E8E8E8" stroke-width="23.5089"/>
<path d="M1232.9 422.557H1389.41" stroke="#E8E8E8" stroke-width="23.5089"/>
<path d="M1232.9 521.813H1389.41" stroke="#E8E8E8" stroke-width="23.5089"/>
<path d="M1232.9 620.438H1389.41" stroke="#E8E8E8" stroke-width="23.5089"/>
<path d="M1232.9 719.694H1389.41" stroke="#E8E8E8" stroke-width="23.5089"/>
<path d="M1232.9 821.336H1389.41" stroke="#E8E8E8" stroke-width="23.5089"/>
<path d="M1232.9 921.829H1389.41" stroke="#E8E8E8" stroke-width="23.5089"/>
<circle cx="151.469" cy="422.04" r="11.9559" fill="#01EAA0"/>
<circle cx="151.469" cy="521.813" r="11.9559" fill="#CBD5E1"/>
<circle cx="151.469" cy="621.585" r="11.9559" fill="#01EAA0"/>
<circle cx="151.469" cy="821.336" r="11.9559" fill="#CBD5E1"/>
<circle cx="151.469" cy="921.313" r="11.9559" fill="#01EAA0"/>
<path d="M121.547 192.34L129.984 218.862H130.308L138.763 192.34H146.945L134.911 227.249H125.399L113.348 192.34H121.547ZM151.01 227.249V201.067H158.271V227.249H151.01ZM154.658 197.692C153.578 197.692 152.652 197.334 151.879 196.618C151.118 195.891 150.737 195.022 150.737 194.01C150.737 193.01 151.118 192.152 151.879 191.436C152.652 190.709 153.578 190.345 154.658 190.345C155.737 190.345 156.658 190.709 157.419 191.436C158.192 192.152 158.578 193.01 158.578 194.01C158.578 195.022 158.192 195.891 157.419 196.618C156.658 197.334 155.737 197.692 154.658 197.692ZM185.872 208.533L179.225 208.942C179.111 208.374 178.867 207.862 178.492 207.408C178.117 206.942 177.622 206.573 177.009 206.3C176.406 206.016 175.685 205.874 174.844 205.874C173.719 205.874 172.77 206.112 171.997 206.59C171.225 207.056 170.838 207.681 170.838 208.465C170.838 209.09 171.088 209.618 171.588 210.05C172.088 210.482 172.946 210.828 174.162 211.09L178.901 212.044C181.446 212.567 183.344 213.408 184.594 214.567C185.844 215.726 186.469 217.249 186.469 219.135C186.469 220.851 185.963 222.357 184.952 223.652C183.952 224.948 182.577 225.959 180.827 226.686C179.088 227.402 177.082 227.76 174.81 227.76C171.344 227.76 168.582 227.039 166.526 225.595C164.48 224.141 163.281 222.164 162.929 219.664L170.071 219.289C170.287 220.345 170.81 221.152 171.639 221.709C172.469 222.254 173.531 222.527 174.827 222.527C176.1 222.527 177.122 222.283 177.895 221.794C178.679 221.294 179.077 220.652 179.088 219.868C179.077 219.209 178.798 218.669 178.253 218.249C177.707 217.817 176.867 217.487 175.73 217.26L171.196 216.357C168.639 215.845 166.736 214.959 165.486 213.698C164.247 212.436 163.628 210.828 163.628 208.874C163.628 207.192 164.082 205.743 164.992 204.527C165.912 203.311 167.202 202.374 168.861 201.715C170.531 201.056 172.486 200.726 174.725 200.726C178.031 200.726 180.634 201.425 182.531 202.823C184.44 204.22 185.554 206.124 185.872 208.533ZM207.831 216.101V201.067H215.092V227.249H208.121V222.493H207.848C207.257 224.027 206.274 225.26 204.899 226.192C203.536 227.124 201.871 227.59 199.905 227.59C198.155 227.59 196.615 227.192 195.286 226.397C193.956 225.601 192.916 224.47 192.166 223.004C191.428 221.539 191.053 219.783 191.041 217.737V201.067H198.303V216.442C198.314 217.987 198.729 219.209 199.547 220.107C200.365 221.004 201.462 221.453 202.837 221.453C203.712 221.453 204.53 221.254 205.291 220.857C206.053 220.448 206.666 219.845 207.132 219.05C207.609 218.254 207.842 217.272 207.831 216.101ZM228.367 227.743C226.696 227.743 225.207 227.453 223.901 226.874C222.594 226.283 221.56 225.414 220.798 224.266C220.048 223.107 219.673 221.664 219.673 219.936C219.673 218.482 219.94 217.26 220.475 216.272C221.009 215.283 221.736 214.487 222.656 213.885C223.577 213.283 224.622 212.828 225.793 212.522C226.975 212.215 228.213 211.999 229.509 211.874C231.031 211.715 232.259 211.567 233.19 211.431C234.122 211.283 234.798 211.067 235.219 210.783C235.639 210.499 235.85 210.078 235.85 209.522V209.419C235.85 208.34 235.509 207.504 234.827 206.914C234.156 206.323 233.202 206.027 231.963 206.027C230.656 206.027 229.617 206.317 228.844 206.897C228.071 207.465 227.56 208.181 227.31 209.044L220.594 208.499C220.935 206.908 221.605 205.533 222.605 204.374C223.605 203.203 224.895 202.306 226.475 201.681C228.065 201.044 229.906 200.726 231.997 200.726C233.452 200.726 234.844 200.897 236.173 201.237C237.514 201.578 238.702 202.107 239.736 202.823C240.781 203.539 241.605 204.459 242.207 205.584C242.81 206.698 243.111 208.033 243.111 209.59V227.249H236.225V223.618H236.02C235.6 224.436 235.037 225.158 234.332 225.783C233.628 226.397 232.781 226.879 231.793 227.232C230.804 227.573 229.662 227.743 228.367 227.743ZM230.446 222.732C231.514 222.732 232.457 222.522 233.276 222.101C234.094 221.669 234.736 221.09 235.202 220.362C235.668 219.635 235.901 218.811 235.901 217.891V215.112C235.673 215.26 235.361 215.397 234.963 215.522C234.577 215.635 234.139 215.743 233.651 215.845C233.162 215.936 232.673 216.022 232.185 216.101C231.696 216.169 231.253 216.232 230.855 216.289C230.003 216.414 229.259 216.612 228.622 216.885C227.986 217.158 227.492 217.527 227.139 217.993C226.787 218.448 226.611 219.016 226.611 219.698C226.611 220.686 226.969 221.442 227.685 221.965C228.412 222.476 229.332 222.732 230.446 222.732ZM256.006 192.34V227.249H248.744V192.34H256.006ZM261.823 227.249V201.067H269.084V227.249H261.823ZM265.47 197.692C264.391 197.692 263.465 197.334 262.692 196.618C261.93 195.891 261.55 195.022 261.55 194.01C261.55 193.01 261.93 192.152 262.692 191.436C263.465 190.709 264.391 190.345 265.47 190.345C266.55 190.345 267.47 190.709 268.232 191.436C269.004 192.152 269.391 193.01 269.391 194.01C269.391 195.022 269.004 195.891 268.232 196.618C267.47 197.334 266.55 197.692 265.47 197.692ZM274.764 227.249V222.919L287.582 207.05V206.862H275.207V201.067H296.327V205.789L284.293 221.266V221.453H296.77V227.249H274.764ZM309.788 227.743C308.118 227.743 306.629 227.453 305.323 226.874C304.016 226.283 302.982 225.414 302.22 224.266C301.47 223.107 301.095 221.664 301.095 219.936C301.095 218.482 301.362 217.26 301.896 216.272C302.43 215.283 303.158 214.487 304.078 213.885C304.999 213.283 306.044 212.828 307.215 212.522C308.396 212.215 309.635 211.999 310.93 211.874C312.453 211.715 313.68 211.567 314.612 211.431C315.544 211.283 316.22 211.067 316.641 210.783C317.061 210.499 317.271 210.078 317.271 209.522V209.419C317.271 208.34 316.93 207.504 316.249 206.914C315.578 206.323 314.624 206.027 313.385 206.027C312.078 206.027 311.038 206.317 310.266 206.897C309.493 207.465 308.982 208.181 308.732 209.044L302.016 208.499C302.357 206.908 303.027 205.533 304.027 204.374C305.027 203.203 306.317 202.306 307.896 201.681C309.487 201.044 311.328 200.726 313.419 200.726C314.874 200.726 316.266 200.897 317.595 201.237C318.936 201.578 320.124 202.107 321.158 202.823C322.203 203.539 323.027 204.459 323.629 205.584C324.232 206.698 324.533 208.033 324.533 209.59V227.249H317.646V223.618H317.442C317.021 224.436 316.459 225.158 315.754 225.783C315.05 226.397 314.203 226.879 313.215 227.232C312.226 227.573 311.084 227.743 309.788 227.743ZM311.868 222.732C312.936 222.732 313.879 222.522 314.698 222.101C315.516 221.669 316.158 221.09 316.624 220.362C317.09 219.635 317.323 218.811 317.323 217.891V215.112C317.095 215.26 316.783 215.397 316.385 215.522C315.999 215.635 315.561 215.743 315.073 215.845C314.584 215.936 314.095 216.022 313.607 216.101C313.118 216.169 312.675 216.232 312.277 216.289C311.425 216.414 310.68 216.612 310.044 216.885C309.408 217.158 308.913 217.527 308.561 217.993C308.209 218.448 308.033 219.016 308.033 219.698C308.033 220.686 308.391 221.442 309.107 221.965C309.834 222.476 310.754 222.732 311.868 222.732ZM330.166 227.249V201.067H337.206V205.635H337.479C337.956 204.01 338.757 202.783 339.882 201.953C341.007 201.112 342.303 200.692 343.769 200.692C344.132 200.692 344.524 200.715 344.945 200.76C345.365 200.806 345.734 200.868 346.053 200.948V207.391C345.712 207.289 345.24 207.198 344.638 207.118C344.036 207.039 343.484 206.999 342.984 206.999C341.916 206.999 340.962 207.232 340.121 207.698C339.291 208.152 338.632 208.789 338.144 209.607C337.666 210.425 337.428 211.368 337.428 212.436V227.249H330.166ZM373.428 227.249H361.053V192.34H373.53C377.041 192.34 380.064 193.039 382.598 194.436C385.132 195.823 387.081 197.817 388.445 200.419C389.82 203.022 390.507 206.135 390.507 209.76C390.507 213.397 389.82 216.522 388.445 219.135C387.081 221.749 385.121 223.754 382.564 225.152C380.019 226.55 376.973 227.249 373.428 227.249ZM368.433 220.925H373.121C375.303 220.925 377.138 220.539 378.627 219.766C380.127 218.982 381.252 217.772 382.002 216.135C382.763 214.487 383.144 212.362 383.144 209.76C383.144 207.181 382.763 205.073 382.002 203.436C381.252 201.8 380.132 200.595 378.644 199.823C377.155 199.05 375.32 198.664 373.138 198.664H368.433V220.925ZM395.838 227.249V201.067H403.1V227.249H395.838ZM399.486 197.692C398.406 197.692 397.48 197.334 396.707 196.618C395.946 195.891 395.565 195.022 395.565 194.01C395.565 193.01 395.946 192.152 396.707 191.436C397.48 190.709 398.406 190.345 399.486 190.345C400.565 190.345 401.486 190.709 402.247 191.436C403.02 192.152 403.406 193.01 403.406 194.01C403.406 195.022 403.02 195.891 402.247 196.618C401.486 197.334 400.565 197.692 399.486 197.692ZM408.916 227.249V201.067H415.956V205.635H416.229C416.706 204.01 417.507 202.783 418.632 201.953C419.757 201.112 421.053 200.692 422.519 200.692C422.882 200.692 423.274 200.715 423.695 200.76C424.115 200.806 424.484 200.868 424.803 200.948V207.391C424.462 207.289 423.99 207.198 423.388 207.118C422.786 207.039 422.234 206.999 421.734 206.999C420.666 206.999 419.712 207.232 418.871 207.698C418.041 208.152 417.382 208.789 416.894 209.607C416.416 210.425 416.178 211.368 416.178 212.436V227.249H408.916ZM439.27 227.76C436.577 227.76 434.259 227.215 432.315 226.124C430.384 225.022 428.895 223.465 427.85 221.453C426.804 219.431 426.281 217.039 426.281 214.277C426.281 211.584 426.804 209.22 427.85 207.186C428.895 205.152 430.367 203.567 432.264 202.431C434.173 201.294 436.412 200.726 438.98 200.726C440.707 200.726 442.315 201.004 443.804 201.561C445.304 202.107 446.611 202.931 447.725 204.033C448.85 205.135 449.725 206.522 450.35 208.192C450.975 209.851 451.287 211.794 451.287 214.022V216.016H429.179V211.516H444.452C444.452 210.47 444.225 209.544 443.77 208.737C443.315 207.931 442.685 207.3 441.878 206.845C441.082 206.379 440.156 206.147 439.1 206.147C437.997 206.147 437.02 206.402 436.168 206.914C435.327 207.414 434.668 208.09 434.19 208.942C433.713 209.783 433.469 210.72 433.457 211.754V216.033C433.457 217.328 433.696 218.448 434.173 219.391C434.662 220.334 435.35 221.061 436.236 221.573C437.122 222.084 438.173 222.34 439.389 222.34C440.196 222.34 440.935 222.226 441.605 221.999C442.276 221.772 442.85 221.431 443.327 220.976C443.804 220.522 444.168 219.965 444.418 219.306L451.134 219.749C450.793 221.362 450.094 222.772 449.037 223.976C447.992 225.169 446.639 226.101 444.98 226.772C443.332 227.431 441.429 227.76 439.27 227.76ZM469.952 201.067V206.522H454.185V201.067H469.952ZM457.764 194.794H465.026V219.203C465.026 219.874 465.128 220.397 465.332 220.772C465.537 221.135 465.821 221.391 466.185 221.539C466.56 221.686 466.992 221.76 467.48 221.76C467.821 221.76 468.162 221.732 468.503 221.675C468.844 221.607 469.105 221.556 469.287 221.522L470.429 226.925C470.065 227.039 469.554 227.169 468.895 227.317C468.236 227.476 467.435 227.573 466.492 227.607C464.742 227.675 463.207 227.442 461.889 226.908C460.582 226.374 459.565 225.544 458.838 224.419C458.111 223.294 457.753 221.874 457.764 220.158V194.794ZM486.23 227.76C483.582 227.76 481.293 227.198 479.361 226.073C477.44 224.936 475.957 223.357 474.912 221.334C473.867 219.3 473.344 216.942 473.344 214.26C473.344 211.556 473.867 209.192 474.912 207.169C475.957 205.135 477.44 203.556 479.361 202.431C481.293 201.294 483.582 200.726 486.23 200.726C488.878 200.726 491.162 201.294 493.082 202.431C495.014 203.556 496.503 205.135 497.548 207.169C498.594 209.192 499.117 211.556 499.117 214.26C499.117 216.942 498.594 219.3 497.548 221.334C496.503 223.357 495.014 224.936 493.082 226.073C491.162 227.198 488.878 227.76 486.23 227.76ZM486.264 222.135C487.469 222.135 488.475 221.794 489.281 221.112C490.088 220.419 490.696 219.476 491.105 218.283C491.526 217.09 491.736 215.732 491.736 214.209C491.736 212.686 491.526 211.328 491.105 210.135C490.696 208.942 490.088 207.999 489.281 207.306C488.475 206.612 487.469 206.266 486.264 206.266C485.048 206.266 484.026 206.612 483.196 207.306C482.378 207.999 481.759 208.942 481.338 210.135C480.929 211.328 480.725 212.686 480.725 214.209C480.725 215.732 480.929 217.09 481.338 218.283C481.759 219.476 482.378 220.419 483.196 221.112C484.026 221.794 485.048 222.135 486.264 222.135ZM483.622 197.692L487.236 189.936H493.952L488.753 197.692H483.622ZM503.838 227.249V201.067H510.878V205.635H511.151C511.628 204.01 512.429 202.783 513.554 201.953C514.679 201.112 515.975 200.692 517.44 200.692C517.804 200.692 518.196 200.715 518.617 200.76C519.037 200.806 519.406 200.868 519.725 200.948V207.391C519.384 207.289 518.912 207.198 518.31 207.118C517.707 207.039 517.156 206.999 516.656 206.999C515.588 206.999 514.634 207.232 513.793 207.698C512.963 208.152 512.304 208.789 511.815 209.607C511.338 210.425 511.1 211.368 511.1 212.436V227.249H503.838ZM523.479 227.249V201.067H530.74V227.249H523.479ZM527.127 197.692C526.047 197.692 525.121 197.334 524.348 196.618C523.587 195.891 523.206 195.022 523.206 194.01C523.206 193.01 523.587 192.152 524.348 191.436C525.121 190.709 526.047 190.345 527.127 190.345C528.206 190.345 529.127 190.709 529.888 191.436C530.661 192.152 531.047 193.01 531.047 194.01C531.047 195.022 530.661 195.891 529.888 196.618C529.127 197.334 528.206 197.692 527.127 197.692ZM548.386 227.76C545.739 227.76 543.449 227.198 541.517 226.073C539.597 224.936 538.114 223.357 537.068 221.334C536.023 219.3 535.5 216.942 535.5 214.26C535.5 211.556 536.023 209.192 537.068 207.169C538.114 205.135 539.597 203.556 541.517 202.431C543.449 201.294 545.739 200.726 548.386 200.726C551.034 200.726 553.318 201.294 555.239 202.431C557.171 203.556 558.659 205.135 559.705 207.169C560.75 209.192 561.273 211.556 561.273 214.26C561.273 216.942 560.75 219.3 559.705 221.334C558.659 223.357 557.171 224.936 555.239 226.073C553.318 227.198 551.034 227.76 548.386 227.76ZM548.421 222.135C549.625 222.135 550.631 221.794 551.438 221.112C552.244 220.419 552.852 219.476 553.261 218.283C553.682 217.09 553.892 215.732 553.892 214.209C553.892 212.686 553.682 211.328 553.261 210.135C552.852 208.942 552.244 207.999 551.438 207.306C550.631 206.612 549.625 206.266 548.421 206.266C547.205 206.266 546.182 206.612 545.352 207.306C544.534 207.999 543.915 208.942 543.494 210.135C543.085 211.328 542.881 212.686 542.881 214.209C542.881 215.732 543.085 217.09 543.494 218.283C543.915 219.476 544.534 220.419 545.352 221.112C546.182 221.794 547.205 222.135 548.421 222.135ZM587.778 208.533L581.131 208.942C581.017 208.374 580.773 207.862 580.398 207.408C580.023 206.942 579.528 206.573 578.915 206.3C578.313 206.016 577.591 205.874 576.75 205.874C575.625 205.874 574.676 206.112 573.903 206.59C573.131 207.056 572.744 207.681 572.744 208.465C572.744 209.09 572.994 209.618 573.494 210.05C573.994 210.482 574.852 210.828 576.068 211.09L580.807 212.044C583.352 212.567 585.25 213.408 586.5 214.567C587.75 215.726 588.375 217.249 588.375 219.135C588.375 220.851 587.869 222.357 586.858 223.652C585.858 224.948 584.483 225.959 582.733 226.686C580.994 227.402 578.989 227.76 576.716 227.76C573.25 227.76 570.489 227.039 568.432 225.595C566.386 224.141 565.188 222.164 564.835 219.664L571.977 219.289C572.193 220.345 572.716 221.152 573.546 221.709C574.375 222.254 575.438 222.527 576.733 222.527C578.006 222.527 579.028 222.283 579.801 221.794C580.585 221.294 580.983 220.652 580.994 219.868C580.983 219.209 580.705 218.669 580.159 218.249C579.614 217.817 578.773 217.487 577.636 217.26L573.102 216.357C570.546 215.845 568.642 214.959 567.392 213.698C566.153 212.436 565.534 210.828 565.534 208.874C565.534 207.192 565.989 205.743 566.898 204.527C567.818 203.311 569.108 202.374 570.767 201.715C572.438 201.056 574.392 200.726 576.631 200.726C579.938 200.726 582.54 201.425 584.438 202.823C586.347 204.22 587.46 206.124 587.778 208.533Z" fill="#01EAA0"/>
</g>
</g>
<circle cx="1626.44" cy="263.114" r="66.1221" fill="#01EAA0"/>
<circle cx="1626.44" cy="443.358" r="66.1221" fill="#CBD5E1"/>
<g filter="url(#filter1_d_1475_816)">
<rect x="1036.6" y="558.952" width="770" height="521" rx="93.7416" fill="white"/>
<path d="M1113.47 638.302L1120.96 662.804H1121.23L1128.72 638.302H1137.77L1126.48 671.756H1115.71L1104.42 638.302H1113.47ZM1149.45 638.302V671.756H1141.37V638.302H1149.45ZM1176.48 649.23C1176.3 648.544 1176.03 647.939 1175.67 647.417C1175.31 646.883 1174.87 646.431 1174.34 646.061C1173.82 645.691 1173.22 645.413 1172.55 645.228C1171.87 645.032 1171.13 644.934 1170.33 644.934C1168.7 644.934 1167.3 645.326 1166.11 646.11C1164.93 646.894 1164.03 648.037 1163.38 649.54C1162.74 651.032 1162.42 652.845 1162.42 654.98C1162.42 657.125 1162.73 658.955 1163.35 660.468C1163.97 661.982 1164.87 663.137 1166.05 663.932C1167.22 664.727 1168.65 665.124 1170.33 665.124C1171.81 665.124 1173.06 664.884 1174.08 664.405C1175.12 663.915 1175.9 663.224 1176.43 662.331C1176.97 661.438 1177.23 660.387 1177.23 659.178L1178.74 659.358H1170.6V653.461H1185.03V657.887C1185.03 660.882 1184.39 663.447 1183.12 665.581C1181.85 667.716 1180.11 669.355 1177.89 670.498C1175.68 671.642 1173.13 672.213 1170.26 672.213C1167.07 672.213 1164.26 671.522 1161.85 670.139C1159.43 668.756 1157.55 666.785 1156.2 664.226C1154.84 661.655 1154.17 658.606 1154.17 655.078C1154.17 652.334 1154.58 649.9 1155.39 647.776C1156.21 645.642 1157.35 643.834 1158.81 642.353C1160.28 640.872 1161.98 639.75 1163.91 638.988C1165.84 638.225 1167.93 637.844 1170.16 637.844C1172.1 637.844 1173.9 638.122 1175.57 638.677C1177.25 639.233 1178.73 640.017 1180.01 641.03C1181.31 642.042 1182.36 643.246 1183.16 644.64C1183.97 646.034 1184.47 647.564 1184.67 649.23H1176.48ZM1189.79 671.756V638.302H1213.12V644.868H1197.88V651.729H1211.93V658.312H1197.88V665.189H1213.12V671.756H1189.79ZM1204.77 635.296L1201.52 631.506L1198.29 635.296H1191.59V635.084L1198.66 627.765H1204.4L1211.45 635.084V635.296H1204.77ZM1246.66 638.302V671.756H1239.79L1226.48 652.448H1226.27V671.756H1218.18V638.302H1225.14L1238.31 657.577H1238.59V638.302H1246.66ZM1282.11 650.422H1273.94C1273.83 649.584 1273.61 648.827 1273.27 648.152C1272.93 647.477 1272.49 646.899 1271.93 646.42C1271.37 645.941 1270.72 645.576 1269.95 645.326C1269.2 645.064 1268.37 644.934 1267.45 644.934C1265.83 644.934 1264.43 645.331 1263.26 646.126C1262.09 646.921 1261.19 648.07 1260.56 649.573C1259.94 651.076 1259.63 652.894 1259.63 655.029C1259.63 657.25 1259.95 659.113 1260.58 660.615C1261.22 662.107 1262.12 663.235 1263.27 663.997C1264.44 664.748 1265.82 665.124 1267.41 665.124C1268.3 665.124 1269.11 665.01 1269.84 664.781C1270.58 664.552 1271.23 664.22 1271.78 663.785C1272.35 663.338 1272.81 662.799 1273.17 662.167C1273.54 661.525 1273.8 660.801 1273.94 659.995L1282.11 660.044C1281.97 661.525 1281.54 662.984 1280.82 664.422C1280.11 665.859 1279.13 667.171 1277.89 668.358C1276.65 669.535 1275.14 670.471 1273.35 671.168C1271.58 671.865 1269.54 672.213 1267.24 672.213C1264.21 672.213 1261.5 671.549 1259.11 670.221C1256.72 668.881 1254.84 666.932 1253.46 664.373C1252.07 661.813 1251.38 658.699 1251.38 655.029C1251.38 651.348 1252.08 648.228 1253.49 645.669C1254.89 643.11 1256.79 641.166 1259.19 639.837C1261.58 638.508 1264.27 637.844 1267.24 637.844C1269.27 637.844 1271.14 638.127 1272.86 638.694C1274.58 639.249 1276.1 640.066 1277.4 641.144C1278.71 642.211 1279.77 643.523 1280.59 645.081C1281.4 646.638 1281.91 648.419 1282.11 650.422ZM1294.82 638.302V671.756H1286.73V638.302H1294.82ZM1307.13 671.756H1298.44L1309.73 638.302H1320.49L1331.78 671.756H1323.09L1315.23 646.731H1314.97L1307.13 671.756ZM1305.97 658.59H1324.14V664.732H1305.97V658.59ZM1352.5 671.756H1343.81L1355.1 638.302H1365.87L1377.15 671.756H1368.46L1360.61 646.731H1360.34L1352.5 671.756ZM1351.34 658.59H1369.51V664.732H1351.34V658.59ZM1375.48 644.868V638.302H1403.76V644.868H1393.62V671.756H1385.64V644.868H1375.48ZM1415.79 638.302V671.756H1407.71V638.302H1415.79ZM1428.47 638.302L1435.95 662.804H1436.23L1443.71 638.302H1452.76L1441.47 671.756H1430.7L1419.42 638.302H1428.47ZM1458.61 671.756H1449.92L1461.21 638.302H1471.97L1483.26 671.756H1474.57L1466.71 646.731H1466.45L1458.61 671.756ZM1457.45 658.59H1475.61V664.732H1457.45V658.59Z" fill="#01EAA0"/>
<path d="M1103.35 725.491H1739.85" stroke="#E8E8E8" stroke-width="16.926"/>
<path d="M1103.35 768.628H1683.15" stroke="#E8E8E8" stroke-width="16.926"/>
<path d="M1105.88 872.14V838.685H1113.96V852.113H1127.15V838.685H1135.22V872.14H1127.15V858.696H1113.96V872.14H1105.88ZM1148.37 838.685V872.14H1140.29V838.685H1148.37ZM1171.53 848.715C1171.43 847.517 1170.94 846.586 1170.08 845.922C1169.23 845.246 1168.02 844.909 1166.44 844.909C1165.39 844.909 1164.52 845.045 1163.82 845.317C1163.13 845.589 1162.6 845.965 1162.26 846.444C1161.91 846.913 1161.73 847.452 1161.72 848.062C1161.69 848.562 1161.79 849.004 1162.01 849.385C1162.24 849.766 1162.57 850.103 1162.99 850.397C1163.43 850.681 1163.95 850.931 1164.56 851.149C1165.17 851.367 1165.85 851.557 1166.62 851.721L1169.49 852.374C1171.15 852.733 1172.61 853.213 1173.87 853.812C1175.14 854.41 1176.21 855.124 1177.07 855.951C1177.94 856.779 1178.6 857.732 1179.05 858.81C1179.49 859.888 1179.72 861.097 1179.73 862.437C1179.72 864.549 1179.19 866.362 1178.13 867.876C1177.08 869.39 1175.56 870.55 1173.58 871.356C1171.6 872.161 1169.23 872.564 1166.44 872.564C1163.64 872.564 1161.2 872.145 1159.12 871.307C1157.04 870.468 1155.42 869.194 1154.27 867.484C1153.11 865.774 1152.52 863.613 1152.49 860.999H1160.23C1160.3 862.077 1160.58 862.976 1161.1 863.694C1161.61 864.413 1162.31 864.958 1163.2 865.328C1164.11 865.698 1165.15 865.883 1166.34 865.883C1167.43 865.883 1168.35 865.736 1169.12 865.442C1169.89 865.148 1170.48 864.74 1170.9 864.217C1171.31 863.694 1171.52 863.095 1171.53 862.42C1171.52 861.789 1171.33 861.249 1170.95 860.803C1170.56 860.346 1169.98 859.954 1169.18 859.627C1168.4 859.289 1167.4 858.979 1166.18 858.696L1162.68 857.879C1159.78 857.215 1157.5 856.142 1155.84 854.661C1154.17 853.169 1153.34 851.154 1153.35 848.617C1153.34 846.548 1153.9 844.735 1155.02 843.177C1156.14 841.62 1157.69 840.406 1159.67 839.535C1161.66 838.663 1163.92 838.228 1166.45 838.228C1169.05 838.228 1171.29 838.669 1173.2 839.551C1175.12 840.422 1176.6 841.647 1177.66 843.226C1178.72 844.805 1179.26 846.635 1179.28 848.715H1171.53ZM1182.72 845.252V838.685H1211V845.252H1200.86V872.14H1192.88V845.252H1182.72ZM1245 855.412C1245 859.093 1244.29 862.213 1242.87 864.772C1241.46 867.332 1239.54 869.276 1237.12 870.604C1234.72 871.933 1232.02 872.597 1229.02 872.597C1226.02 872.597 1223.31 871.927 1220.9 870.588C1218.5 869.248 1216.59 867.304 1215.17 864.756C1213.76 862.197 1213.06 859.082 1213.06 855.412C1213.06 851.732 1213.76 848.611 1215.17 846.052C1216.59 843.493 1218.5 841.549 1220.9 840.221C1223.31 838.892 1226.02 838.228 1229.02 838.228C1232.02 838.228 1234.72 838.892 1237.12 840.221C1239.54 841.549 1241.46 843.493 1242.87 846.052C1244.29 848.611 1245 851.732 1245 855.412ZM1236.73 855.412C1236.73 853.234 1236.42 851.394 1235.8 849.891C1235.19 848.388 1234.31 847.25 1233.15 846.477C1232.01 845.704 1230.63 845.317 1229.02 845.317C1227.42 845.317 1226.04 845.704 1224.89 846.477C1223.73 847.25 1222.85 848.388 1222.23 849.891C1221.62 851.394 1221.31 853.234 1221.31 855.412C1221.31 857.59 1221.62 859.431 1222.23 860.934C1222.85 862.437 1223.73 863.575 1224.89 864.348C1226.04 865.121 1227.42 865.508 1229.02 865.508C1230.63 865.508 1232.01 865.121 1233.15 864.348C1234.31 863.575 1235.19 862.437 1235.8 860.934C1236.42 859.431 1236.73 857.59 1236.73 855.412ZM1226.28 835.5L1229.58 828.133H1236.65L1231.72 835.5H1226.28ZM1249.72 872.14V838.685H1263.54C1266.04 838.685 1268.2 839.137 1270.02 840.041C1271.85 840.934 1273.26 842.219 1274.25 843.896C1275.24 845.562 1275.74 847.539 1275.74 849.826C1275.74 852.145 1275.23 854.116 1274.22 855.739C1273.21 857.351 1271.77 858.581 1269.91 859.431C1268.05 860.269 1265.84 860.689 1263.29 860.689H1254.55V854.318H1261.79C1263.01 854.318 1264.03 854.16 1264.84 853.844C1265.67 853.517 1266.3 853.027 1266.72 852.374C1267.15 851.71 1267.36 850.86 1267.36 849.826C1267.36 848.791 1267.15 847.936 1266.72 847.261C1266.3 846.575 1265.67 846.063 1264.84 845.726C1264.02 845.377 1263 845.203 1261.79 845.203H1257.8V872.14H1249.72ZM1268.55 856.85L1276.88 872.14H1268.06L1259.9 856.85H1268.55ZM1288.26 838.685V872.14H1280.18V838.685H1288.26ZM1323.7 850.806H1315.54C1315.43 849.967 1315.21 849.21 1314.87 848.535C1314.53 847.86 1314.08 847.283 1313.53 846.804C1312.97 846.325 1312.31 845.96 1311.55 845.709C1310.8 845.448 1309.97 845.317 1309.05 845.317C1307.43 845.317 1306.03 845.715 1304.85 846.51C1303.69 847.305 1302.79 848.454 1302.16 849.956C1301.54 851.459 1301.23 853.278 1301.23 855.412C1301.23 857.634 1301.54 859.496 1302.17 860.999C1302.82 862.491 1303.72 863.618 1304.87 864.38C1306.04 865.132 1307.41 865.508 1309 865.508C1309.9 865.508 1310.71 865.393 1311.44 865.165C1312.18 864.936 1312.83 864.604 1313.38 864.168C1313.95 863.722 1314.41 863.182 1314.77 862.551C1315.14 861.908 1315.4 861.184 1315.54 860.378L1323.7 860.427C1323.56 861.908 1323.13 863.368 1322.41 864.805C1321.71 866.243 1320.73 867.555 1319.49 868.742C1318.25 869.918 1316.74 870.855 1314.95 871.552C1313.17 872.249 1311.14 872.597 1308.84 872.597C1305.81 872.597 1303.1 871.933 1300.7 870.604C1298.32 869.265 1296.44 867.315 1295.05 864.756C1293.67 862.197 1292.98 859.082 1292.98 855.412C1292.98 851.732 1293.68 848.611 1295.09 846.052C1296.49 843.493 1298.39 841.549 1300.79 840.221C1303.18 838.892 1305.87 838.228 1308.84 838.228C1310.87 838.228 1312.74 838.511 1314.46 839.077C1316.18 839.633 1317.69 840.449 1319 841.527C1320.31 842.595 1321.37 843.907 1322.19 845.464C1323 847.022 1323.51 848.802 1323.7 850.806ZM1359.91 855.412C1359.91 859.093 1359.2 862.213 1357.78 864.772C1356.37 867.332 1354.45 869.276 1352.03 870.604C1349.63 871.933 1346.93 872.597 1343.93 872.597C1340.93 872.597 1338.22 871.927 1335.81 870.588C1333.41 869.248 1331.5 867.304 1330.08 864.756C1328.67 862.197 1327.97 859.082 1327.97 855.412C1327.97 851.732 1328.67 848.611 1330.08 846.052C1331.5 843.493 1333.41 841.549 1335.81 840.221C1338.22 838.892 1340.93 838.228 1343.93 838.228C1346.93 838.228 1349.63 838.892 1352.03 840.221C1354.45 841.549 1356.37 843.493 1357.78 846.052C1359.2 848.611 1359.91 851.732 1359.91 855.412ZM1351.64 855.412C1351.64 853.234 1351.33 851.394 1350.71 849.891C1350.1 848.388 1349.22 847.25 1348.06 846.477C1346.92 845.704 1345.54 845.317 1343.93 845.317C1342.33 845.317 1340.95 845.704 1339.8 846.477C1338.64 847.25 1337.76 848.388 1337.14 849.891C1336.53 851.394 1336.22 853.234 1336.22 855.412C1336.22 857.59 1336.53 859.431 1337.14 860.934C1337.76 862.437 1338.64 863.575 1339.8 864.348C1340.95 865.121 1342.33 865.508 1343.93 865.508C1345.54 865.508 1346.92 865.121 1348.06 864.348C1349.22 863.575 1350.1 862.437 1350.71 860.934C1351.33 859.431 1351.64 857.59 1351.64 855.412Z" fill="#01EAA0"/>
<path d="M1103.35 925.875H1739.85" stroke="#E8E8E8" stroke-width="16.926"/>
<path d="M1103.35 969.011H1683.15" stroke="#E8E8E8" stroke-width="16.926"/>
<path d="M1103.35 1012.15H1739.85" stroke="#E8E8E8" stroke-width="16.926"/>
</g>
<g filter="url(#filter2_d_1475_816)">
<rect x="824.6" y="49.5222" width="129" height="129" rx="25" fill="white"/>
<g clip-path="url(#clip1_1475_816)">
<path d="M889.096 86.4316C915.606 86.4316 931.512 115.592 931.512 115.592C931.512 115.592 915.606 144.753 889.096 144.753C862.586 144.753 846.681 115.592 846.681 115.592C846.681 115.592 862.586 86.4316 889.096 86.4316ZM889.096 91.7336C870.433 91.7336 857.274 108.97 852.91 115.592C857.269 122.209 870.428 139.451 889.096 139.451C907.759 139.451 920.918 122.214 925.282 115.592C920.924 108.975 907.764 91.7336 889.096 91.7336ZM889.096 97.0355C894.018 97.0355 898.738 98.9906 902.218 102.471C905.698 105.951 907.653 110.671 907.653 115.592C907.653 120.514 905.698 125.234 902.218 128.714C898.738 132.194 894.018 134.149 889.096 134.149C884.175 134.149 879.455 132.194 875.975 128.714C872.494 125.234 870.539 120.514 870.539 115.592C870.539 110.671 872.494 105.951 875.975 102.471C879.455 98.9906 884.175 97.0355 889.096 97.0355ZM889.096 102.337C885.582 102.342 882.213 103.74 879.728 106.224C877.243 108.709 875.846 112.078 875.841 115.592C875.841 122.898 881.785 128.847 889.096 128.847C896.408 128.847 902.351 122.898 902.351 115.592C902.351 108.286 896.408 102.337 889.096 102.337Z" fill="#01EAA0"/>
</g>
</g>
<g filter="url(#filter3_d_1475_816)">
<rect x="1012.6" y="49.5222" width="129" height="129" rx="25" fill="white"/>
<path d="M1039.24 138.956C1038.69 138.956 1038.24 138.508 1038.24 137.956V135.207C1038.24 134.655 1038.69 134.207 1039.24 134.207H1082.62C1083.17 134.207 1083.62 134.655 1083.62 135.207V137.956C1083.62 138.508 1083.17 138.956 1082.62 138.956H1039.24ZM1039.24 116.216C1038.69 116.216 1038.24 115.768 1038.24 115.216V112.468C1038.24 111.915 1038.69 111.468 1039.24 111.468H1058.43C1058.98 111.468 1059.43 111.915 1059.43 112.468V115.216C1059.43 115.768 1058.98 116.216 1058.43 116.216H1039.24ZM1039.24 93.4812C1038.69 93.4812 1038.24 93.0335 1038.24 92.4812V89.7329C1038.24 89.1806 1038.69 88.7329 1039.24 88.7329H1058.43C1058.98 88.7329 1059.43 89.1806 1059.43 89.7329V92.4812C1059.43 93.0335 1058.98 93.4812 1058.43 93.4812H1039.24ZM1121.05 138.434C1120.66 138.823 1120.03 138.825 1119.64 138.439L1102.5 121.553C1102.14 121.206 1101.59 121.171 1101.19 121.45C1099.67 122.493 1098.03 123.319 1096.29 123.927C1094.28 124.63 1092.22 124.981 1090.1 124.981C1084.77 124.981 1080.23 123.139 1076.48 119.454C1072.72 115.766 1070.84 111.264 1070.84 105.945C1070.84 100.624 1072.72 96.1196 1076.48 92.4318C1080.24 88.7471 1084.79 86.9048 1090.13 86.9048C1095.46 86.9048 1100 88.7471 1103.76 92.4318C1107.5 96.1228 1109.37 100.612 1109.37 105.898C1109.37 108.009 1109.02 110.072 1108.31 112.085C1107.71 113.809 1106.87 115.404 1105.8 116.869C1105.49 117.285 1105.52 117.864 1105.89 118.225L1122.99 135.067C1123.39 135.457 1123.39 136.094 1122.99 136.487L1121.05 138.434ZM1090.1 120.238C1094.14 120.238 1097.57 118.851 1100.39 116.078C1103.21 113.305 1104.62 109.928 1104.62 105.945C1104.62 101.957 1103.21 98.5777 1100.39 95.8078C1097.57 93.038 1094.14 91.6531 1090.1 91.6531C1086.07 91.6531 1082.64 93.038 1079.82 95.8078C1077 98.5777 1075.58 101.957 1075.58 105.945C1075.58 109.934 1077 113.312 1079.82 116.078C1082.64 118.848 1086.07 120.233 1090.1 120.233" fill="#01EAA0"/>
</g>
<g filter="url(#filter4_d_1475_816)">
<rect x="1200.6" y="49.5222" width="129" height="129" rx="25" fill="white"/>
<path fill-rule="evenodd" clip-rule="evenodd" d="M1288.51 88.3062C1272.95 86.5674 1257.25 86.5674 1241.69 88.3062C1241.45 88.3335 1241.22 88.4244 1241.03 88.5693C1240.84 88.7142 1240.69 88.9078 1240.6 89.1299C1240.51 89.352 1240.48 89.5945 1240.52 89.8321C1240.55 90.0696 1240.65 90.2936 1240.8 90.4805L1254.55 107.484C1259.48 113.574 1262.17 121.171 1262.17 129.004V140.302L1268.03 144.604V129C1268.03 121.168 1270.72 113.573 1275.65 107.484L1289.4 90.4805C1289.55 90.2936 1289.65 90.0696 1289.68 89.8321C1289.72 89.5945 1289.69 89.352 1289.6 89.1299C1289.51 88.9078 1289.36 88.7142 1289.16 88.5693C1288.97 88.4244 1288.75 88.3335 1288.51 88.3062ZM1241.04 82.4754C1257.03 80.6882 1273.17 80.6882 1289.16 82.4754C1294.82 83.1089 1297.54 89.7414 1293.96 94.1682L1280.21 111.172C1276.13 116.218 1273.9 122.513 1273.9 129.004V150.392C1273.9 150.934 1273.75 151.466 1273.46 151.928C1273.18 152.39 1272.77 152.765 1272.29 153.01C1271.81 153.255 1271.26 153.361 1270.72 153.317C1270.18 153.272 1269.67 153.079 1269.23 152.758L1257.5 144.154C1257.13 143.881 1256.82 143.525 1256.62 143.114C1256.41 142.703 1256.3 142.249 1256.3 141.788V129C1256.3 122.509 1254.07 116.216 1249.99 111.168L1236.24 94.1722C1232.66 89.7453 1235.38 83.1089 1241.04 82.4754Z" fill="#01EAA0"/>
</g>
<defs>
<filter id="filter0_d_1475_816" x="0.599609" y="68.9519" width="1540" height="973" filterUnits="userSpaceOnUse" color-interpolation-filters="sRGB">
<feFlood flood-opacity="0" result="BackgroundImageFix"/>
<feColorMatrix in="SourceAlpha" type="matrix" values="0 0 0 0 0 0 0 0 0 0 0 0 0 0 0 0 0 0 127 0" result="hardAlpha"/>
<feOffset/>
<feGaussianBlur stdDeviation="25"/>
<feComposite in2="hardAlpha" operator="out"/>
<feColorMatrix type="matrix" values="0 0 0 0 0 0 0 0 0 0 0 0 0 0 0 0 0 0 0.25 0"/>
<feBlend mode="normal" in2="BackgroundImageFix" result="effect1_dropShadow_1475_816"/>
<feBlend mode="normal" in="SourceGraphic" in2="effect1_dropShadow_1475_816" result="shape"/>
</filter>
<filter id="filter1_d_1475_816" x="942.858" y="465.21" width="957.483" height="708.483" filterUnits="userSpaceOnUse" color-interpolation-filters="sRGB">
<feFlood flood-opacity="0" result="BackgroundImageFix"/>
<feColorMatrix in="SourceAlpha" type="matrix" values="0 0 0 0 0 0 0 0 0 0 0 0 0 0 0 0 0 0 127 0" result="hardAlpha"/>
<feOffset/>
<feGaussianBlur stdDeviation="46.8708"/>
<feComposite in2="hardAlpha" operator="out"/>
<feColorMatrix type="matrix" values="0 0 0 0 0 0 0 0 0 0 0 0 0 0 0 0 0 0 0.25 0"/>
<feBlend mode="normal" in2="BackgroundImageFix" result="effect1_dropShadow_1475_816"/>
<feBlend mode="normal" in="SourceGraphic" in2="effect1_dropShadow_1475_816" result="shape"/>
</filter>
<filter id="filter2_d_1475_816" x="775.449" y="0.371929" width="227.301" height="227.301" filterUnits="userSpaceOnUse" color-interpolation-filters="sRGB">
<feFlood flood-opacity="0" result="BackgroundImageFix"/>
<feColorMatrix in="SourceAlpha" type="matrix" values="0 0 0 0 0 0 0 0 0 0 0 0 0 0 0 0 0 0 127 0" result="hardAlpha"/>
<feOffset/>
<feGaussianBlur stdDeviation="24.5751"/>
<feComposite in2="hardAlpha" operator="out"/>
<feColorMatrix type="matrix" values="0 0 0 0 0 0 0 0 0 0 0 0 0 0 0 0 0 0 0.25 0"/>
<feBlend mode="normal" in2="BackgroundImageFix" result="effect1_dropShadow_1475_816"/>
<feBlend mode="normal" in="SourceGraphic" in2="effect1_dropShadow_1475_816" result="shape"/>
</filter>
<filter id="filter3_d_1475_816" x="963.449" y="0.371929" width="227.301" height="227.301" filterUnits="userSpaceOnUse" color-interpolation-filters="sRGB">
<feFlood flood-opacity="0" result="BackgroundImageFix"/>
<feColorMatrix in="SourceAlpha" type="matrix" values="0 0 0 0 0 0 0 0 0 0 0 0 0 0 0 0 0 0 127 0" result="hardAlpha"/>
<feOffset/>
<feGaussianBlur stdDeviation="24.5751"/>
<feComposite in2="hardAlpha" operator="out"/>
<feColorMatrix type="matrix" values="0 0 0 0 0 0 0 0 0 0 0 0 0 0 0 0 0 0 0.25 0"/>
<feBlend mode="normal" in2="BackgroundImageFix" result="effect1_dropShadow_1475_816"/>
<feBlend mode="normal" in="SourceGraphic" in2="effect1_dropShadow_1475_816" result="shape"/>
</filter>
<filter id="filter4_d_1475_816" x="1151.45" y="0.371929" width="227.301" height="227.301" filterUnits="userSpaceOnUse" color-interpolation-filters="sRGB">
<feFlood flood-opacity="0" result="BackgroundImageFix"/>
<feColorMatrix in="SourceAlpha" type="matrix" values="0 0 0 0 0 0 0 0 0 0 0 0 0 0 0 0 0 0 127 0" result="hardAlpha"/>
<feOffset/>
<feGaussianBlur stdDeviation="24.5751"/>
<feComposite in2="hardAlpha" operator="out"/>
<feColorMatrix type="matrix" values="0 0 0 0 0 0 0 0 0 0 0 0 0 0 0 0 0 0 0.25 0"/>
<feBlend mode="normal" in2="BackgroundImageFix" result="effect1_dropShadow_1475_816"/>
<feBlend mode="normal" in="SourceGraphic" in2="effect1_dropShadow_1475_816" result="shape"/>
</filter>
<clipPath id="clip0_1475_816">
<rect x="50.5996" y="118.952" width="1440" height="873" rx="50" fill="white"/>
</clipPath>
<clipPath id="clip1_1475_816">
<rect width="84.8311" height="84.8311" fill="white" transform="translate(846.684 82.0125)"/>
</clipPath>
</defs>
</svg>
