<svg width="1900" height="1336" viewBox="0 0 1900 1336" fill="none" xmlns="http://www.w3.org/2000/svg">
<g filter="url(#filter0_d_1488_147)">
<g clip-path="url(#clip0_1488_147)">
<rect x="753.693" y="50.7495" width="1096" height="1001" rx="50" fill="#E8E8E8"/>
<rect x="843.74" y="278.977" width="915.906" height="720.021" rx="50" fill="white"/>
<rect x="843.74" y="106.425" width="915.906" height="141.492" rx="70.7458" fill="white"/>
<path d="M1056.51 190.541V155.632H1080.04V161.717H1063.9V170.035H1078.83V176.121H1063.9V184.456H1080.11V190.541H1056.51ZM1085.91 155.632H1095.01L1104.62 179.086H1105.03L1114.64 155.632H1123.75V190.541H1116.59V167.819H1116.3L1107.26 190.371H1102.39L1093.35 167.734H1093.06V190.541H1085.91V155.632ZM1137.21 155.632V190.541H1129.83V155.632H1137.21ZM1141.95 161.717V155.632H1170.62V161.717H1159.93V190.541H1152.64V161.717H1141.95ZM1182.72 155.632V190.541H1175.34V155.632H1182.72ZM1188.8 190.541V155.632H1202.57C1205.2 155.632 1207.45 156.104 1209.32 157.047C1211.19 157.979 1212.62 159.302 1213.6 161.018C1214.59 162.723 1215.08 164.729 1215.08 167.035C1215.08 169.354 1214.58 171.348 1213.58 173.018C1212.58 174.677 1211.13 175.95 1209.23 176.836C1207.35 177.723 1205.06 178.166 1202.38 178.166H1193.16V172.234H1201.19C1202.6 172.234 1203.77 172.041 1204.7 171.655C1205.63 171.268 1206.32 170.689 1206.78 169.916C1207.24 169.143 1207.48 168.183 1207.48 167.035C1207.48 165.876 1207.24 164.899 1206.78 164.104C1206.32 163.308 1205.63 162.706 1204.68 162.297C1203.75 161.876 1202.57 161.666 1201.15 161.666H1196.18V190.541H1188.8ZM1207.65 174.655L1216.32 190.541H1208.18L1199.69 174.655H1207.65ZM1243.78 190.541H1231.41V155.632H1243.88C1247.39 155.632 1250.42 156.331 1252.95 157.729C1255.48 159.115 1257.43 161.109 1258.8 163.711C1260.17 166.314 1260.86 169.427 1260.86 173.052C1260.86 176.689 1260.17 179.814 1258.8 182.427C1257.43 185.041 1255.47 187.047 1252.92 188.444C1250.37 189.842 1247.33 190.541 1243.78 190.541ZM1238.79 184.217H1243.47C1245.66 184.217 1247.49 183.831 1248.98 183.058C1250.48 182.274 1251.6 181.064 1252.35 179.427C1253.12 177.78 1253.5 175.655 1253.5 173.052C1253.5 170.473 1253.12 168.365 1252.35 166.729C1251.6 165.092 1250.48 163.888 1249 163.115C1247.51 162.342 1245.67 161.956 1243.49 161.956H1238.79V184.217ZM1298.41 173.086C1298.41 176.893 1297.69 180.132 1296.24 182.802C1294.81 185.473 1292.86 187.513 1290.38 188.922C1287.91 190.319 1285.14 191.018 1282.06 191.018C1278.96 191.018 1276.17 190.314 1273.71 188.905C1271.24 187.496 1269.29 185.456 1267.86 182.785C1266.43 180.115 1265.71 176.882 1265.71 173.086C1265.71 169.28 1266.43 166.041 1267.86 163.371C1269.29 160.7 1271.24 158.666 1273.71 157.268C1276.17 155.859 1278.96 155.155 1282.06 155.155C1285.14 155.155 1287.91 155.859 1290.38 157.268C1292.86 158.666 1294.81 160.7 1296.24 163.371C1297.69 166.041 1298.41 169.28 1298.41 173.086ZM1290.92 173.086C1290.92 170.621 1290.55 168.541 1289.82 166.848C1289.09 165.155 1288.06 163.871 1286.73 162.996C1285.4 162.121 1283.84 161.683 1282.06 161.683C1280.28 161.683 1278.72 162.121 1277.39 162.996C1276.06 163.871 1275.03 165.155 1274.29 166.848C1273.56 168.541 1273.2 170.621 1273.2 173.086C1273.2 175.552 1273.56 177.632 1274.29 179.325C1275.03 181.018 1276.06 182.302 1277.39 183.177C1278.72 184.052 1280.28 184.49 1282.06 184.49C1283.84 184.49 1285.4 184.052 1286.73 183.177C1288.06 182.302 1289.09 181.018 1289.82 179.325C1290.55 177.632 1290.92 175.552 1290.92 173.086ZM1334.68 167.854H1327.21C1327.07 166.888 1326.79 166.03 1326.37 165.28C1325.95 164.518 1325.41 163.871 1324.75 163.336C1324.1 162.802 1323.33 162.393 1322.47 162.109C1321.62 161.825 1320.69 161.683 1319.69 161.683C1317.89 161.683 1316.31 162.132 1314.97 163.03C1313.63 163.916 1312.59 165.211 1311.85 166.916C1311.11 168.609 1310.74 170.666 1310.74 173.086C1310.74 175.575 1311.11 177.666 1311.85 179.359C1312.6 181.052 1313.65 182.331 1314.99 183.194C1316.33 184.058 1317.88 184.49 1319.64 184.49C1320.63 184.49 1321.54 184.359 1322.39 184.098C1323.24 183.836 1323.99 183.456 1324.65 182.956C1325.31 182.444 1325.86 181.825 1326.29 181.098C1326.73 180.371 1327.04 179.541 1327.21 178.609L1334.68 178.643C1334.48 180.246 1334 181.791 1333.23 183.28C1332.46 184.757 1331.44 186.081 1330.14 187.251C1328.86 188.41 1327.32 189.331 1325.54 190.013C1323.77 190.683 1321.76 191.018 1319.52 191.018C1316.41 191.018 1313.62 190.314 1311.17 188.905C1308.73 187.496 1306.79 185.456 1305.37 182.785C1303.96 180.115 1303.26 176.882 1303.26 173.086C1303.26 169.28 1303.98 166.041 1305.41 163.371C1306.84 160.7 1308.78 158.666 1311.24 157.268C1313.69 155.859 1316.45 155.155 1319.52 155.155C1321.54 155.155 1323.42 155.439 1325.15 156.007C1326.89 156.575 1328.43 157.405 1329.77 158.496C1331.11 159.575 1332.2 160.899 1333.04 162.467C1333.89 164.035 1334.44 165.831 1334.68 167.854ZM1361.53 155.632H1368.91V178.302C1368.91 180.848 1368.3 183.075 1367.09 184.984C1365.88 186.893 1364.19 188.382 1362.02 189.45C1359.85 190.507 1357.33 191.035 1354.44 191.035C1351.54 191.035 1349.01 190.507 1346.84 189.45C1344.67 188.382 1342.98 186.893 1341.77 184.984C1340.57 183.075 1339.97 180.848 1339.97 178.302V155.632H1347.35V177.672C1347.35 179.001 1347.64 180.183 1348.22 181.217C1348.81 182.251 1349.64 183.064 1350.71 183.655C1351.77 184.246 1353.02 184.541 1354.44 184.541C1355.87 184.541 1357.12 184.246 1358.17 183.655C1359.24 183.064 1360.06 182.251 1360.64 181.217C1361.23 180.183 1361.53 179.001 1361.53 177.672V155.632ZM1374.98 155.632H1384.09L1393.7 179.086H1394.11L1403.72 155.632H1412.82V190.541H1405.67V167.819H1405.38L1396.34 190.371H1391.47L1382.43 167.734H1382.14V190.541H1374.98V155.632ZM1418.91 190.541V155.632H1442.43V161.717H1426.29V170.035H1441.22V176.121H1426.29V184.456H1442.5V190.541H1418.91ZM1477.49 155.632V190.541H1471.12L1455.93 168.569H1455.68V190.541H1448.3V155.632H1454.77L1469.84 177.586H1470.15V155.632H1477.49ZM1482.26 161.717V155.632H1510.93V161.717H1500.25V190.541H1492.95V161.717H1482.26ZM1546.14 173.086C1546.14 176.893 1545.42 180.132 1543.98 182.802C1542.54 185.473 1540.59 187.513 1538.11 188.922C1535.65 190.319 1532.87 191.018 1529.79 191.018C1526.69 191.018 1523.91 190.314 1521.44 188.905C1518.98 187.496 1517.03 185.456 1515.6 182.785C1514.16 180.115 1513.45 176.882 1513.45 173.086C1513.45 169.28 1514.16 166.041 1515.6 163.371C1517.03 160.7 1518.98 158.666 1521.44 157.268C1523.91 155.859 1526.69 155.155 1529.79 155.155C1532.87 155.155 1535.65 155.859 1538.11 157.268C1540.59 158.666 1542.54 160.7 1543.98 163.371C1545.42 166.041 1546.14 169.28 1546.14 173.086ZM1538.66 173.086C1538.66 170.621 1538.29 168.541 1537.55 166.848C1536.82 165.155 1535.79 163.871 1534.46 162.996C1533.14 162.121 1531.58 161.683 1529.79 161.683C1528.01 161.683 1526.45 162.121 1525.12 162.996C1523.79 163.871 1522.76 165.155 1522.02 166.848C1521.29 168.541 1520.93 170.621 1520.93 173.086C1520.93 175.552 1521.29 177.632 1522.02 179.325C1522.76 181.018 1523.79 182.302 1525.12 183.177C1526.45 184.052 1528.01 184.49 1529.79 184.49C1531.58 184.49 1533.14 184.052 1534.46 183.177C1535.79 182.302 1536.82 181.018 1537.55 179.325C1538.29 177.632 1538.66 175.552 1538.66 173.086Z" fill="#01EAA0"/>
<rect x="935.336" y="817.998" width="732.291" height="130.433" rx="65.2165" fill="#01EAA0"/>
<rect x="906.863" y="328.078" width="789.232" height="130.338" rx="49" stroke="#94A3B8" stroke-width="2"/>
<rect x="906.863" y="482.416" width="789.232" height="130.338" rx="49" stroke="#94A3B8" stroke-width="2"/>
<rect x="906.863" y="636.753" width="789.232" height="130.338" rx="49" stroke="#94A3B8" stroke-width="2"/>
<path d="M1159.51 900.215V865.306H1173.29C1175.94 865.306 1178.19 865.811 1180.05 866.823C1181.92 867.823 1183.34 869.215 1184.32 870.999C1185.3 872.771 1185.8 874.817 1185.8 877.135C1185.8 879.453 1185.3 881.499 1184.3 883.271C1183.3 885.044 1181.85 886.425 1179.95 887.413C1178.07 888.402 1175.78 888.896 1173.1 888.896H1164.32V882.982H1171.91C1173.33 882.982 1174.5 882.737 1175.42 882.249C1176.35 881.749 1177.04 881.061 1177.5 880.186C1177.96 879.3 1178.2 878.283 1178.2 877.135C1178.2 875.976 1177.96 874.965 1177.5 874.101C1177.04 873.226 1176.35 872.55 1175.42 872.073C1174.49 871.584 1173.3 871.34 1171.87 871.34H1166.9V900.215H1159.51ZM1190.59 900.215V865.306H1204.37C1207 865.306 1209.25 865.777 1211.12 866.72C1212.99 867.652 1214.42 868.976 1215.39 870.692C1216.38 872.396 1216.88 874.402 1216.88 876.709C1216.88 879.027 1216.38 881.021 1215.38 882.692C1214.38 884.351 1212.93 885.624 1211.03 886.51C1209.14 887.396 1206.86 887.84 1204.18 887.84H1194.96V881.908H1202.98C1204.39 881.908 1205.56 881.715 1206.5 881.328C1207.43 880.942 1208.12 880.362 1208.58 879.59C1209.04 878.817 1209.27 877.857 1209.27 876.709C1209.27 875.55 1209.04 874.573 1208.58 873.777C1208.12 872.982 1207.42 872.379 1206.48 871.97C1205.55 871.55 1204.37 871.34 1202.95 871.34H1197.97V900.215H1190.59ZM1209.44 884.328L1218.12 900.215H1209.97L1201.48 884.328H1209.44ZM1222.09 900.215V865.306H1245.62V871.391H1229.47V879.709H1244.41V885.794H1229.47V894.129H1245.68V900.215H1222.09ZM1251.48 900.215V865.306H1275.01V871.391H1258.86V879.709H1273.8V885.794H1258.86V894.129H1275.07V900.215H1251.48ZM1310.07 865.306V900.215H1303.7L1288.51 878.243H1288.25V900.215H1280.87V865.306H1287.35L1302.42 887.26H1302.73V865.306H1310.07ZM1346.97 877.527H1339.51C1339.37 876.561 1339.09 875.703 1338.67 874.953C1338.25 874.192 1337.71 873.544 1337.05 873.01C1336.39 872.476 1335.63 872.067 1334.77 871.783C1333.92 871.499 1332.99 871.357 1331.99 871.357C1330.18 871.357 1328.61 871.806 1327.27 872.703C1325.93 873.59 1324.89 874.885 1324.15 876.59C1323.41 878.283 1323.04 880.34 1323.04 882.76C1323.04 885.249 1323.41 887.34 1324.15 889.033C1324.9 890.726 1325.94 892.004 1327.28 892.868C1328.63 893.732 1330.18 894.163 1331.94 894.163C1332.93 894.163 1333.84 894.033 1334.68 893.771C1335.53 893.51 1336.29 893.129 1336.95 892.629C1337.61 892.118 1338.15 891.499 1338.59 890.771C1339.03 890.044 1339.34 889.215 1339.51 888.283L1346.97 888.317C1346.78 889.919 1346.3 891.465 1345.52 892.953C1344.76 894.431 1343.73 895.754 1342.44 896.925C1341.15 898.084 1339.62 899.004 1337.84 899.686C1336.06 900.357 1334.06 900.692 1331.82 900.692C1328.7 900.692 1325.92 899.987 1323.47 898.578C1321.02 897.169 1319.09 895.129 1317.67 892.459C1316.26 889.788 1315.56 886.556 1315.56 882.76C1315.56 878.953 1316.27 875.715 1317.7 873.044C1319.14 870.374 1321.08 868.34 1323.53 866.942C1325.99 865.533 1328.75 864.828 1331.82 864.828C1333.84 864.828 1335.72 865.112 1337.44 865.681C1339.18 866.249 1340.72 867.078 1342.06 868.169C1343.4 869.249 1344.49 870.573 1345.34 872.141C1346.19 873.709 1346.73 875.504 1346.97 877.527ZM1352.26 900.215V865.306H1359.65V879.709H1374.63V865.306H1381.99V900.215H1374.63V885.794H1359.65V900.215H1352.26ZM1388.08 900.215V865.306H1411.6V871.391H1395.46V879.709H1410.39V885.794H1395.46V894.129H1411.67V900.215H1388.08ZM1417.47 900.215V865.306H1431.24C1433.88 865.306 1436.13 865.777 1437.99 866.72C1439.87 867.652 1441.29 868.976 1442.27 870.692C1443.26 872.396 1443.75 874.402 1443.75 876.709C1443.75 879.027 1443.25 881.021 1442.25 882.692C1441.25 884.351 1439.8 885.624 1437.91 886.51C1436.02 887.396 1433.73 887.84 1431.05 887.84H1421.83V881.908H1429.86C1431.27 881.908 1432.44 881.715 1433.37 881.328C1434.3 880.942 1435 880.362 1435.45 879.59C1435.92 878.817 1436.15 877.857 1436.15 876.709C1436.15 875.55 1435.92 874.573 1435.45 873.777C1435 872.982 1434.3 872.379 1433.35 871.97C1432.42 871.55 1431.25 871.34 1429.83 871.34H1424.85V900.215H1417.47ZM1436.32 884.328L1445 900.215H1436.85L1428.36 884.328H1436.32Z" fill="white"/>
<path d="M1234.26 411.747V375.813H1241.14L1256.44 401.172H1252.79L1267.83 375.813H1274.66L1274.76 411.747H1266.96L1266.91 387.774H1268.35L1256.33 407.948H1252.59L1240.32 387.774H1242.06V411.747H1234.26ZM1295.87 412.157C1292.92 412.157 1290.3 411.541 1288.01 410.309C1285.75 409.077 1283.96 407.4 1282.62 405.278C1281.32 403.122 1280.67 400.676 1280.67 397.938C1280.67 395.166 1281.32 392.719 1282.62 390.597C1283.96 388.441 1285.75 386.764 1288.01 385.566C1290.3 384.334 1292.92 383.718 1295.87 383.718C1298.77 383.718 1301.38 384.334 1303.67 385.566C1305.96 386.764 1307.76 388.424 1309.06 390.546C1310.36 392.667 1311.01 395.131 1311.01 397.938C1311.01 400.676 1310.36 403.122 1309.06 405.278C1307.76 407.4 1305.96 409.077 1303.67 410.309C1301.38 411.541 1298.77 412.157 1295.87 412.157ZM1295.87 405.586C1297.2 405.586 1298.4 405.278 1299.46 404.662C1300.52 404.046 1301.36 403.174 1301.97 402.044C1302.59 400.881 1302.9 399.512 1302.9 397.938C1302.9 396.329 1302.59 394.96 1301.97 393.831C1301.36 392.702 1300.52 391.829 1299.46 391.213C1298.4 390.597 1297.2 390.289 1295.87 390.289C1294.53 390.289 1293.33 390.597 1292.27 391.213C1291.21 391.829 1290.36 392.702 1289.71 393.831C1289.09 394.96 1288.78 396.329 1288.78 397.938C1288.78 399.512 1289.09 400.881 1289.71 402.044C1290.36 403.174 1291.21 404.046 1292.27 404.662C1293.33 405.278 1294.53 405.586 1295.87 405.586ZM1328.22 412.157C1325.62 412.157 1323.28 411.575 1321.19 410.412C1319.1 409.214 1317.44 407.554 1316.21 405.432C1315.01 403.311 1314.41 400.812 1314.41 397.938C1314.41 395.029 1315.01 392.513 1316.21 390.392C1317.44 388.27 1319.1 386.627 1321.19 385.463C1323.28 384.3 1325.62 383.718 1328.22 383.718C1330.55 383.718 1332.58 384.231 1334.33 385.258C1336.07 386.285 1337.43 387.842 1338.38 389.93C1339.34 392.017 1339.82 394.687 1339.82 397.938C1339.82 401.155 1339.36 403.824 1338.44 405.946C1337.51 408.033 1336.18 409.591 1334.43 410.617C1332.72 411.644 1330.65 412.157 1328.22 412.157ZM1329.61 405.586C1330.91 405.586 1332.09 405.278 1333.15 404.662C1334.21 404.046 1335.05 403.174 1335.66 402.044C1336.31 400.881 1336.64 399.512 1336.64 397.938C1336.64 396.329 1336.31 394.96 1335.66 393.831C1335.05 392.702 1334.21 391.829 1333.15 391.213C1332.09 390.597 1330.91 390.289 1329.61 390.289C1328.27 390.289 1327.07 390.597 1326.01 391.213C1324.95 391.829 1324.1 392.702 1323.45 393.831C1322.83 394.96 1322.52 396.329 1322.52 397.938C1322.52 399.512 1322.83 400.881 1323.45 402.044C1324.1 403.174 1324.95 404.046 1326.01 404.662C1327.07 405.278 1328.27 405.586 1329.61 405.586ZM1336.84 411.747V406.1L1337 397.886L1336.49 389.724V373.657H1344.49V411.747H1336.84ZM1365.61 412.157C1362.46 412.157 1359.69 411.541 1357.3 410.309C1354.93 409.077 1353.1 407.4 1351.8 405.278C1350.5 403.122 1349.85 400.676 1349.85 397.938C1349.85 395.166 1350.48 392.719 1351.75 390.597C1353.05 388.441 1354.81 386.764 1357.04 385.566C1359.26 384.334 1361.78 383.718 1364.58 383.718C1367.29 383.718 1369.72 384.3 1371.87 385.463C1374.06 386.593 1375.79 388.236 1377.06 390.392C1378.32 392.513 1378.96 395.063 1378.96 398.04C1378.96 398.348 1378.94 398.708 1378.91 399.118C1378.87 399.495 1378.84 399.854 1378.8 400.196H1356.37V395.525H1374.59L1371.51 396.911C1371.51 395.474 1371.22 394.225 1370.64 393.164C1370.06 392.103 1369.26 391.281 1368.23 390.7C1367.2 390.084 1366 389.776 1364.64 389.776C1363.27 389.776 1362.05 390.084 1360.99 390.7C1359.96 391.281 1359.16 392.12 1358.58 393.215C1358 394.276 1357.71 395.542 1357.71 397.014V398.246C1357.71 399.751 1358.03 401.086 1358.68 402.25C1359.37 403.379 1360.31 404.252 1361.5 404.868C1362.74 405.45 1364.17 405.74 1365.82 405.74C1367.29 405.74 1368.57 405.518 1369.67 405.073C1370.8 404.628 1371.82 403.961 1372.75 403.071L1377.01 407.691C1375.74 409.129 1374.15 410.241 1372.23 411.028C1370.32 411.781 1368.11 412.157 1365.61 412.157ZM1384.29 411.747V373.657H1392.3V411.747H1384.29ZM1412.87 412.157C1409.93 412.157 1407.31 411.541 1405.02 410.309C1402.76 409.077 1400.96 407.4 1399.63 405.278C1398.33 403.122 1397.68 400.676 1397.68 397.938C1397.68 395.166 1398.33 392.719 1399.63 390.597C1400.96 388.441 1402.76 386.764 1405.02 385.566C1407.31 384.334 1409.93 383.718 1412.87 383.718C1415.78 383.718 1418.38 384.334 1420.67 385.566C1422.97 386.764 1424.76 388.424 1426.06 390.546C1427.36 392.667 1428.02 395.131 1428.02 397.938C1428.02 400.676 1427.36 403.122 1426.06 405.278C1424.76 407.4 1422.97 409.077 1420.67 410.309C1418.38 411.541 1415.78 412.157 1412.87 412.157ZM1412.87 405.586C1414.21 405.586 1415.4 405.278 1416.46 404.662C1417.53 404.046 1418.36 403.174 1418.98 402.044C1419.6 400.881 1419.9 399.512 1419.9 397.938C1419.9 396.329 1419.6 394.96 1418.98 393.831C1418.36 392.702 1417.53 391.829 1416.46 391.213C1415.4 390.597 1414.21 390.289 1412.87 390.289C1411.54 390.289 1410.34 390.597 1409.28 391.213C1408.22 391.829 1407.36 392.702 1406.71 393.831C1406.1 394.96 1405.79 396.329 1405.79 397.938C1405.79 399.512 1406.1 400.881 1406.71 402.044C1407.36 403.174 1408.22 404.046 1409.28 404.662C1410.34 405.278 1411.54 405.586 1412.87 405.586Z" fill="#0F172A"/>
<path fill-rule="evenodd" clip-rule="evenodd" d="M1134.45 359.469C1129.96 363.95 1129.96 371.166 1129.96 385.594V400.899C1129.96 415.327 1129.96 422.544 1134.45 427.024C1138.93 431.508 1146.14 431.508 1160.57 431.508H1168.22C1182.65 431.508 1189.87 431.508 1194.35 427.024C1198.83 422.544 1198.83 415.327 1198.83 400.899V385.594C1198.83 371.166 1198.83 363.95 1194.35 359.469C1189.87 354.985 1182.65 354.985 1168.22 354.985H1160.57C1146.14 354.985 1138.93 354.985 1134.45 359.469ZM1149.09 382.725C1148.33 382.725 1147.6 383.027 1147.06 383.565C1146.52 384.103 1146.22 384.833 1146.22 385.594C1146.22 386.355 1146.52 387.085 1147.06 387.623C1147.6 388.162 1148.33 388.464 1149.09 388.464H1179.7C1180.46 388.464 1181.19 388.162 1181.73 387.623C1182.27 387.085 1182.57 386.355 1182.57 385.594C1182.57 384.833 1182.27 384.103 1181.73 383.565C1181.19 383.027 1180.46 382.725 1179.7 382.725H1149.09ZM1149.09 398.029C1148.33 398.029 1147.6 398.332 1147.06 398.87C1146.52 399.408 1146.22 400.138 1146.22 400.899C1146.22 401.66 1146.52 402.39 1147.06 402.928C1147.6 403.466 1148.33 403.769 1149.09 403.769H1168.22C1168.98 403.769 1169.71 403.466 1170.25 402.928C1170.79 402.39 1171.09 401.66 1171.09 400.899C1171.09 400.138 1170.79 399.408 1170.25 398.87C1169.71 398.332 1168.98 398.029 1168.22 398.029H1149.09Z" fill="#0F172A"/>
<path d="M1203.76 566.084V530.151H1220.08C1223.99 530.151 1227.43 530.903 1230.4 532.409C1233.38 533.881 1235.71 535.951 1237.38 538.621C1239.06 541.29 1239.9 544.456 1239.9 548.118C1239.9 551.745 1239.06 554.911 1237.38 557.614C1235.71 560.284 1233.38 562.371 1230.4 563.877C1227.43 565.349 1223.99 566.084 1220.08 566.084H1203.76ZM1212.08 559.257H1219.67C1222.07 559.257 1224.14 558.812 1225.89 557.922C1227.67 556.998 1229.03 555.698 1229.99 554.021C1230.98 552.344 1231.48 550.376 1231.48 548.118C1231.48 545.825 1230.98 543.857 1229.99 542.214C1229.03 540.537 1227.67 539.254 1225.89 538.364C1224.14 537.44 1222.07 536.978 1219.67 536.978H1212.08V559.257ZM1245.61 566.084V538.467H1253.62V566.084H1245.61ZM1249.61 534.617C1248.14 534.617 1246.94 534.189 1246.02 533.333C1245.09 532.478 1244.63 531.417 1244.63 530.151C1244.63 528.884 1245.09 527.823 1246.02 526.968C1246.94 526.112 1248.14 525.684 1249.61 525.684C1251.08 525.684 1252.28 526.095 1253.2 526.917C1254.13 527.704 1254.59 528.73 1254.59 529.997C1254.59 531.331 1254.13 532.443 1253.2 533.333C1252.31 534.189 1251.12 534.617 1249.61 534.617ZM1261.05 566.084V538.467H1268.7V546.269L1267.62 544.011C1268.44 542.06 1269.76 540.589 1271.57 539.596C1273.38 538.569 1275.59 538.056 1278.19 538.056V545.448C1277.85 545.414 1277.54 545.397 1277.27 545.397C1277 545.363 1276.7 545.345 1276.4 545.345C1274.21 545.345 1272.43 545.979 1271.06 547.245C1269.72 548.477 1269.06 550.41 1269.06 553.046V566.084H1261.05ZM1296.46 566.495C1293.31 566.495 1290.54 565.879 1288.14 564.647C1285.78 563.415 1283.95 561.738 1282.65 559.616C1281.35 557.46 1280.7 555.013 1280.7 552.276C1280.7 549.504 1281.33 547.057 1282.6 544.935C1283.9 542.779 1285.66 541.102 1287.89 539.904C1290.11 538.672 1292.63 538.056 1295.43 538.056C1298.14 538.056 1300.57 538.638 1302.72 539.801C1304.91 540.931 1306.64 542.573 1307.91 544.729C1309.17 546.851 1309.81 549.401 1309.81 552.378C1309.81 552.686 1309.79 553.046 1309.76 553.456C1309.72 553.833 1309.69 554.192 1309.65 554.534H1287.22V549.863H1305.44L1302.36 551.249C1302.36 549.812 1302.07 548.562 1301.49 547.502C1300.91 546.441 1300.1 545.619 1299.08 545.037C1298.05 544.421 1296.85 544.113 1295.48 544.113C1294.12 544.113 1292.9 544.421 1291.84 545.037C1290.81 545.619 1290.01 546.458 1289.43 547.553C1288.85 548.614 1288.55 549.88 1288.55 551.352V552.584C1288.55 554.089 1288.88 555.424 1289.53 556.588C1290.21 557.717 1291.16 558.59 1292.35 559.206C1293.59 559.787 1295.02 560.078 1296.67 560.078C1298.14 560.078 1299.42 559.856 1300.52 559.411C1301.64 558.966 1302.67 558.299 1303.6 557.409L1307.86 562.029C1306.59 563.466 1305 564.579 1303.08 565.366C1301.17 566.119 1298.96 566.495 1296.46 566.495ZM1326.43 566.495C1323.18 566.495 1320.65 565.674 1318.83 564.031C1317.02 562.354 1316.11 559.873 1316.11 556.588V532.358H1324.12V556.485C1324.12 557.649 1324.43 558.555 1325.05 559.206C1325.66 559.822 1326.5 560.13 1327.56 560.13C1328.83 560.13 1329.91 559.787 1330.8 559.103L1332.95 564.75C1332.13 565.332 1331.14 565.776 1329.97 566.084C1328.84 566.358 1327.66 566.495 1326.43 566.495ZM1311.85 545.243V539.083H1331V545.243H1311.85ZM1349.74 566.495C1346.79 566.495 1344.18 565.879 1341.88 564.647C1339.62 563.415 1337.83 561.738 1336.49 559.616C1335.19 557.46 1334.54 555.013 1334.54 552.276C1334.54 549.504 1335.19 547.057 1336.49 544.935C1337.83 542.779 1339.62 541.102 1341.88 539.904C1344.18 538.672 1346.79 538.056 1349.74 538.056C1352.65 538.056 1355.25 538.672 1357.54 539.904C1359.83 541.102 1361.63 542.762 1362.93 544.883C1364.23 547.005 1364.88 549.469 1364.88 552.276C1364.88 555.013 1364.23 557.46 1362.93 559.616C1361.63 561.738 1359.83 563.415 1357.54 564.647C1355.25 565.879 1352.65 566.495 1349.74 566.495ZM1349.74 559.924C1351.07 559.924 1352.27 559.616 1353.33 559C1354.39 558.384 1355.23 557.512 1355.85 556.382C1356.46 555.219 1356.77 553.85 1356.77 552.276C1356.77 550.667 1356.46 549.298 1355.85 548.169C1355.23 547.039 1354.39 546.167 1353.33 545.551C1352.27 544.935 1351.07 544.627 1349.74 544.627C1348.4 544.627 1347.2 544.935 1346.14 545.551C1345.08 546.167 1344.23 547.039 1343.58 548.169C1342.96 549.298 1342.65 550.667 1342.65 552.276C1342.65 553.85 1342.96 555.219 1343.58 556.382C1344.23 557.512 1345.08 558.384 1346.14 559C1347.2 559.616 1348.4 559.924 1349.74 559.924ZM1344.96 534.925L1351.89 527.533H1360.52L1351.22 534.925H1344.96ZM1370.23 566.084V538.467H1377.88V546.269L1376.8 544.011C1377.62 542.06 1378.94 540.589 1380.76 539.596C1382.57 538.569 1384.78 538.056 1387.38 538.056V545.448C1387.04 545.414 1386.73 545.397 1386.45 545.397C1386.18 545.363 1385.89 545.345 1385.58 545.345C1383.39 545.345 1381.61 545.979 1380.24 547.245C1378.91 548.477 1378.24 550.41 1378.24 553.046V566.084H1370.23ZM1392.19 566.084V538.467H1400.2V566.084H1392.19ZM1396.19 534.617C1394.72 534.617 1393.52 534.189 1392.6 533.333C1391.68 532.478 1391.21 531.417 1391.21 530.151C1391.21 528.884 1391.68 527.823 1392.6 526.968C1393.52 526.112 1394.72 525.684 1396.19 525.684C1397.67 525.684 1398.86 526.095 1399.79 526.917C1400.71 527.704 1401.17 528.73 1401.17 529.997C1401.17 531.331 1400.71 532.443 1399.79 533.333C1398.9 534.189 1397.7 534.617 1396.19 534.617ZM1420.77 566.495C1417.83 566.495 1415.21 565.879 1412.92 564.647C1410.66 563.415 1408.86 561.738 1407.53 559.616C1406.23 557.46 1405.58 555.013 1405.58 552.276C1405.58 549.504 1406.23 547.057 1407.53 544.935C1408.86 542.779 1410.66 541.102 1412.92 539.904C1415.21 538.672 1417.83 538.056 1420.77 538.056C1423.68 538.056 1426.28 538.672 1428.57 539.904C1430.87 541.102 1432.66 542.762 1433.96 544.883C1435.27 547.005 1435.92 549.469 1435.92 552.276C1435.92 555.013 1435.27 557.46 1433.96 559.616C1432.66 561.738 1430.87 563.415 1428.57 564.647C1426.28 565.879 1423.68 566.495 1420.77 566.495ZM1420.77 559.924C1422.11 559.924 1423.3 559.616 1424.37 559C1425.43 558.384 1426.26 557.512 1426.88 556.382C1427.5 555.219 1427.8 553.85 1427.8 552.276C1427.8 550.667 1427.5 549.298 1426.88 548.169C1426.26 547.039 1425.43 546.167 1424.37 545.551C1423.3 544.935 1422.11 544.627 1420.77 544.627C1419.44 544.627 1418.24 544.935 1417.18 545.551C1416.12 546.167 1415.26 547.039 1414.61 548.169C1414 549.298 1413.69 550.667 1413.69 552.276C1413.69 553.85 1414 555.219 1414.61 556.382C1415.26 557.512 1416.12 558.384 1417.18 559C1418.24 559.616 1419.44 559.924 1420.77 559.924Z" fill="#0F172A"/>
<path d="M1176.3 517.681L1146.64 579.974C1146.47 580.335 1146.24 580.661 1145.95 580.931C1145.66 581.201 1145.32 581.411 1144.95 581.547C1144.58 581.684 1144.19 581.745 1143.79 581.727C1143.4 581.709 1143.01 581.612 1142.65 581.442C1142.29 581.272 1141.98 581.032 1141.71 580.736C1141.45 580.441 1141.25 580.096 1141.12 579.721C1140.99 579.347 1140.94 578.95 1140.97 578.556C1141 578.161 1141.1 577.776 1141.28 577.423L1151.98 554.968H1102.43C1101.85 554.968 1101.29 554.8 1100.81 554.485C1100.32 554.169 1099.94 553.72 1099.71 553.191C1099.48 552.663 1099.41 552.078 1099.5 551.509C1099.6 550.94 1099.86 550.412 1100.25 549.988L1116.03 532.894L1100.42 518.593C1099.98 518.189 1099.67 517.661 1099.54 517.079C1099.4 516.496 1099.45 515.886 1099.66 515.329C1099.88 514.772 1100.26 514.293 1100.75 513.956C1101.25 513.618 1101.83 513.438 1102.43 513.439H1173.62C1174.12 513.439 1174.62 513.566 1175.05 513.808C1175.49 514.05 1175.86 514.398 1176.13 514.822C1176.4 515.245 1176.55 515.73 1176.58 516.229C1176.61 516.729 1176.51 517.229 1176.3 517.681Z" fill="#0F172A"/>
<path d="M1231.06 720.422L1215.56 684.488H1224.54L1238.1 716.316H1232.81L1246.57 684.488H1254.83L1239.28 720.422H1231.06ZM1257.72 720.422V692.805H1265.72V720.422H1257.72ZM1261.72 688.955C1260.25 688.955 1259.05 688.527 1258.13 687.671C1257.2 686.816 1256.74 685.755 1256.74 684.488C1256.74 683.222 1257.2 682.161 1258.13 681.306C1259.05 680.45 1260.25 680.022 1261.72 680.022C1263.19 680.022 1264.39 680.433 1265.31 681.254C1266.24 682.042 1266.7 683.068 1266.7 684.334C1266.7 685.669 1266.24 686.781 1265.31 687.671C1264.42 688.527 1263.23 688.955 1261.72 688.955ZM1286.14 730.792C1283.54 730.792 1281.03 730.467 1278.6 729.817C1276.2 729.201 1274.2 728.259 1272.59 726.993L1275.78 721.244C1276.94 722.202 1278.41 722.955 1280.19 723.502C1282 724.084 1283.78 724.375 1285.53 724.375C1288.37 724.375 1290.42 723.742 1291.69 722.476C1292.99 721.209 1293.64 719.327 1293.64 716.829V712.671L1294.15 705.741L1294.05 698.759V692.805H1301.65V715.802C1301.65 720.936 1300.31 724.717 1297.64 727.147C1294.97 729.577 1291.14 730.792 1286.14 730.792ZM1284.91 719.088C1282.35 719.088 1280.02 718.54 1277.93 717.445C1275.88 716.316 1274.22 714.758 1272.95 712.774C1271.72 710.754 1271.1 708.41 1271.1 705.741C1271.1 703.037 1271.72 700.693 1272.95 698.708C1274.22 696.689 1275.88 695.132 1277.93 694.037C1280.02 692.941 1282.35 692.394 1284.91 692.394C1287.24 692.394 1289.29 692.873 1291.07 693.831C1292.85 694.755 1294.24 696.21 1295.23 698.195C1296.22 700.145 1296.72 702.661 1296.72 705.741C1296.72 708.787 1296.22 711.302 1295.23 713.287C1294.24 715.238 1292.85 716.692 1291.07 717.65C1289.29 718.609 1287.24 719.088 1284.91 719.088ZM1286.5 712.517C1287.91 712.517 1289.16 712.243 1290.25 711.696C1291.35 711.114 1292.2 710.31 1292.82 709.283C1293.43 708.256 1293.74 707.075 1293.74 705.741C1293.74 704.372 1293.43 703.191 1292.82 702.199C1292.2 701.172 1291.35 700.385 1290.25 699.837C1289.16 699.256 1287.91 698.965 1286.5 698.965C1285.1 698.965 1283.85 699.256 1282.76 699.837C1281.66 700.385 1280.79 701.172 1280.14 702.199C1279.52 703.191 1279.21 704.372 1279.21 705.741C1279.21 707.075 1279.52 708.256 1280.14 709.283C1280.79 710.31 1281.66 711.114 1282.76 711.696C1283.85 712.243 1285.1 712.517 1286.5 712.517ZM1322.81 720.833C1319.66 720.833 1316.89 720.217 1314.49 718.985C1312.13 717.753 1310.3 716.076 1309 713.954C1307.7 711.798 1307.05 709.351 1307.05 706.613C1307.05 703.841 1307.68 701.395 1308.95 699.273C1310.25 697.117 1312.01 695.44 1314.23 694.242C1316.46 693.01 1318.97 692.394 1321.78 692.394C1324.48 692.394 1326.91 692.976 1329.07 694.139C1331.26 695.269 1332.99 696.911 1334.25 699.067C1335.52 701.189 1336.15 703.739 1336.15 706.716C1336.15 707.024 1336.14 707.383 1336.1 707.794C1336.07 708.171 1336.03 708.53 1336 708.872H1313.57V704.201H1331.79L1328.71 705.587C1328.71 704.149 1328.42 702.9 1327.84 701.839C1327.26 700.778 1326.45 699.957 1325.43 699.375C1324.4 698.759 1323.2 698.451 1321.83 698.451C1320.46 698.451 1319.25 698.759 1318.19 699.375C1317.16 699.957 1316.36 700.796 1315.77 701.891C1315.19 702.952 1314.9 704.218 1314.9 705.689V706.921C1314.9 708.427 1315.23 709.762 1315.88 710.926C1316.56 712.055 1317.5 712.928 1318.7 713.544C1319.93 714.125 1321.37 714.416 1323.01 714.416C1324.48 714.416 1325.77 714.194 1326.86 713.749C1327.99 713.304 1329.02 712.637 1329.94 711.747L1334.2 716.367C1332.94 717.804 1331.35 718.917 1329.43 719.704C1327.51 720.457 1325.31 720.833 1322.81 720.833ZM1311.31 689.263L1318.08 681.87H1325.17L1331.94 689.263H1326.09L1319.01 683.102H1324.24L1317.16 689.263H1311.31ZM1358.27 692.394C1360.46 692.394 1362.41 692.839 1364.12 693.729C1365.87 694.584 1367.24 695.919 1368.23 697.733C1369.22 699.512 1369.72 701.805 1369.72 704.611V720.422H1361.71V705.843C1361.71 703.619 1361.22 701.976 1360.22 700.915C1359.26 699.854 1357.9 699.324 1356.12 699.324C1354.85 699.324 1353.7 699.598 1352.68 700.145C1351.68 700.659 1350.9 701.463 1350.32 702.558C1349.77 703.653 1349.49 705.056 1349.49 706.767V720.422H1341.49V692.805H1349.13V700.453L1347.7 698.143C1348.69 696.295 1350.11 694.875 1351.96 693.883C1353.81 692.89 1355.91 692.394 1358.27 692.394ZM1390.53 720.833C1387.55 720.833 1384.9 720.234 1382.57 719.036C1380.24 717.804 1378.41 716.11 1377.08 713.954C1375.78 711.798 1375.13 709.351 1375.13 706.613C1375.13 703.841 1375.78 701.395 1377.08 699.273C1378.41 697.117 1380.24 695.44 1382.57 694.242C1384.9 693.01 1387.55 692.394 1390.53 692.394C1393.43 692.394 1395.97 693.01 1398.12 694.242C1400.28 695.44 1401.87 697.168 1402.9 699.427L1396.69 702.763C1395.97 701.463 1395.06 700.505 1393.97 699.889C1392.9 699.273 1391.74 698.965 1390.47 698.965C1389.11 698.965 1387.87 699.273 1386.78 699.889C1385.68 700.505 1384.81 701.377 1384.16 702.507C1383.54 703.636 1383.24 705.005 1383.24 706.613C1383.24 708.222 1383.54 709.591 1384.16 710.72C1384.81 711.85 1385.68 712.722 1386.78 713.338C1387.87 713.954 1389.11 714.262 1390.47 714.262C1391.74 714.262 1392.9 713.971 1393.97 713.39C1395.06 712.774 1395.97 711.798 1396.69 710.464L1402.9 713.852C1401.87 716.076 1400.28 717.804 1398.12 719.036C1395.97 720.234 1393.43 720.833 1390.53 720.833ZM1407.36 720.422V692.805H1415.37V720.422H1407.36ZM1411.36 688.955C1409.89 688.955 1408.69 688.527 1407.77 687.671C1406.84 686.816 1406.38 685.755 1406.38 684.488C1406.38 683.222 1406.84 682.161 1407.77 681.306C1408.69 680.45 1409.89 680.022 1411.36 680.022C1412.83 680.022 1414.03 680.433 1414.96 681.254C1415.88 682.042 1416.34 683.068 1416.34 684.334C1416.34 685.669 1415.88 686.781 1414.96 687.671C1414.07 688.527 1412.87 688.955 1411.36 688.955ZM1439.74 720.422V715.032L1439.23 713.852V704.201C1439.23 702.49 1438.69 701.155 1437.63 700.197C1436.61 699.238 1435.02 698.759 1432.86 698.759C1431.39 698.759 1429.93 698.999 1428.5 699.478C1427.09 699.923 1425.9 700.539 1424.9 701.326L1422.03 695.731C1423.53 694.67 1425.35 693.848 1427.47 693.267C1429.59 692.685 1431.75 692.394 1433.94 692.394C1438.15 692.394 1441.42 693.386 1443.74 695.371C1446.07 697.356 1447.23 700.453 1447.23 704.663V720.422H1439.74ZM1431.32 720.833C1429.16 720.833 1427.32 720.474 1425.78 719.755C1424.24 719.002 1423.05 717.993 1422.23 716.726C1421.41 715.46 1421 714.04 1421 712.466C1421 710.823 1421.4 709.386 1422.18 708.153C1423 706.921 1424.29 705.963 1426.03 705.279C1427.78 704.56 1430.05 704.201 1432.86 704.201H1440.2V708.872H1433.73C1431.85 708.872 1430.55 709.18 1429.83 709.796C1429.15 710.412 1428.8 711.182 1428.8 712.106C1428.8 713.133 1429.2 713.954 1429.99 714.57C1430.81 715.152 1431.92 715.443 1433.32 715.443C1434.66 715.443 1435.85 715.135 1436.92 714.519C1437.98 713.869 1438.75 712.928 1439.23 711.696L1440.46 715.392C1439.88 717.171 1438.81 718.523 1437.27 719.447C1435.73 720.371 1433.75 720.833 1431.32 720.833Z" fill="#0F172A"/>
<path d="M1147.3 679.306C1147.3 676.538 1148.4 673.883 1150.35 671.926C1152.31 669.968 1154.97 668.868 1157.73 668.868C1160.5 668.868 1163.16 669.968 1165.12 671.926C1167.07 673.883 1168.17 676.538 1168.17 679.306C1168.17 682.075 1167.07 684.73 1165.12 686.687C1163.16 688.645 1160.5 689.744 1157.73 689.744C1154.97 689.744 1152.31 688.645 1150.35 686.687C1148.4 684.73 1147.3 682.075 1147.3 679.306ZM1180.35 672.348C1178.04 672.348 1175.83 673.264 1174.2 674.895C1172.57 676.527 1171.65 678.739 1171.65 681.046C1171.65 683.353 1172.57 685.566 1174.2 687.197C1175.83 688.828 1178.04 689.744 1180.35 689.744C1182.66 689.744 1184.87 688.828 1186.5 687.197C1188.13 685.566 1189.05 683.353 1189.05 681.046C1189.05 678.739 1188.13 676.527 1186.5 674.895C1184.87 673.264 1182.66 672.348 1180.35 672.348ZM1135.12 672.348C1132.81 672.348 1130.6 673.264 1128.97 674.895C1127.34 676.527 1126.42 678.739 1126.42 681.046C1126.42 683.353 1127.34 685.566 1128.97 687.197C1130.6 688.828 1132.81 689.744 1135.12 689.744C1137.43 689.744 1139.64 688.828 1141.27 687.197C1142.9 685.566 1143.82 683.353 1143.82 681.046C1143.82 678.739 1142.9 676.527 1141.27 674.895C1139.64 673.264 1137.43 672.348 1135.12 672.348ZM1149.47 693.224C1147.51 693.224 1145.63 694.003 1144.24 695.389C1142.86 696.776 1142.08 698.656 1142.08 700.617V719.319C1142.08 723.471 1143.73 727.454 1146.66 730.39C1149.6 733.326 1153.58 734.976 1157.73 734.976C1161.89 734.976 1165.87 733.326 1168.81 730.39C1171.74 727.454 1173.39 723.471 1173.39 719.319V700.617C1173.39 698.656 1172.61 696.776 1171.23 695.389C1169.84 694.003 1167.96 693.224 1166 693.224H1149.47ZM1138.6 700.617C1138.6 697.834 1139.65 695.292 1141.37 693.368C1140.89 693.272 1140.4 693.223 1139.9 693.224H1130.34C1128.37 693.224 1126.49 694.003 1125.11 695.389C1123.72 696.776 1122.94 698.656 1122.94 700.617V717.579C1122.94 719.682 1123.48 721.749 1124.52 723.58C1125.56 725.41 1127.05 726.941 1128.85 728.023C1130.65 729.106 1132.71 729.703 1134.81 729.756C1136.91 729.81 1138.99 729.318 1140.85 728.329C1139.37 725.557 1138.59 722.462 1138.6 719.319V700.617ZM1176.87 719.319C1176.87 722.575 1176.06 725.643 1174.62 728.329C1176.48 729.318 1178.56 729.81 1180.66 729.756C1182.76 729.703 1184.82 729.106 1186.62 728.023C1188.42 726.941 1189.91 725.41 1190.95 723.58C1191.98 721.749 1192.53 719.682 1192.53 717.579V700.617C1192.53 698.656 1191.75 696.776 1190.36 695.389C1188.98 694.003 1187.1 693.224 1185.13 693.224H1175.57C1175.07 693.224 1174.57 693.274 1174.1 693.368C1175.89 695.36 1176.87 697.942 1176.87 700.617V719.319Z" fill="#0F172A"/>
</g>
<rect x="754.193" y="51.2495" width="1095" height="1000" rx="49.5" stroke="#E8E8E8"/>
</g>
<g filter="url(#filter1_d_1488_147)">
<rect x="94.6934" y="246.75" width="770" height="947" rx="40" fill="white"/>
<path d="M176.339 366.795H163.973V333.341H176.323C179.731 333.341 182.666 334.011 185.127 335.35C187.6 336.679 189.505 338.595 190.845 341.1C192.184 343.594 192.854 346.578 192.854 350.052C192.854 353.537 192.184 356.531 190.845 359.036C189.516 361.541 187.616 363.463 185.144 364.803C182.672 366.131 179.737 366.795 176.339 366.795ZM172.059 359.902H176.029C177.902 359.902 179.486 359.586 180.782 358.955C182.089 358.312 183.075 357.272 183.739 355.834C184.414 354.386 184.752 352.459 184.752 350.052C184.752 347.645 184.414 345.728 183.739 344.302C183.064 342.864 182.067 341.83 180.75 341.198C179.443 340.556 177.831 340.234 175.914 340.234H172.059V359.902ZM209.287 367.269C206.652 367.269 204.387 366.73 202.492 365.652C200.608 364.563 199.154 363.049 198.13 361.111C197.118 359.161 196.611 356.902 196.611 354.332C196.611 351.751 197.118 349.491 198.13 347.553C199.154 345.603 200.608 344.089 202.492 343.011C204.387 341.922 206.652 341.378 209.287 341.378C211.923 341.378 214.182 341.922 216.066 343.011C217.961 344.089 219.415 345.603 220.428 347.553C221.452 349.491 221.963 351.751 221.963 354.332C221.963 356.902 221.452 359.161 220.428 361.111C219.415 363.049 217.961 364.563 216.066 365.652C214.182 366.73 211.923 367.269 209.287 367.269ZM209.336 361.241C210.295 361.241 211.106 360.947 211.77 360.359C212.435 359.771 212.941 358.955 213.289 357.909C213.649 356.864 213.828 355.655 213.828 354.283C213.828 352.889 213.649 351.669 213.289 350.624C212.941 349.578 212.435 348.761 211.77 348.173C211.106 347.585 210.295 347.291 209.336 347.291C208.345 347.291 207.507 347.585 206.821 348.173C206.145 348.761 205.628 349.578 205.269 350.624C204.92 351.669 204.746 352.889 204.746 354.283C204.746 355.655 204.92 356.864 205.269 357.909C205.628 358.955 206.145 359.771 206.821 360.359C207.507 360.947 208.345 361.241 209.336 361.241ZM237.768 367.269C235.121 367.269 232.851 366.725 230.956 365.636C229.072 364.547 227.624 363.033 226.611 361.094C225.598 359.145 225.092 356.891 225.092 354.332C225.092 351.762 225.598 349.507 226.611 347.569C227.634 345.62 229.088 344.1 230.972 343.011C232.867 341.922 235.127 341.378 237.751 341.378C240.071 341.378 242.091 341.797 243.812 342.636C245.543 343.474 246.894 344.661 247.863 346.197C248.843 347.721 249.36 349.513 249.415 351.571H241.95C241.797 350.286 241.362 349.279 240.643 348.549C239.935 347.819 239.009 347.455 237.866 347.455C236.94 347.455 236.129 347.716 235.432 348.239C234.735 348.75 234.19 349.513 233.798 350.526C233.417 351.527 233.227 352.769 233.227 354.25C233.227 355.731 233.417 356.983 233.798 358.007C234.19 359.02 234.735 359.788 235.432 360.31C236.129 360.822 236.94 361.078 237.866 361.078C238.606 361.078 239.26 360.92 239.826 360.604C240.403 360.289 240.877 359.826 241.247 359.216C241.617 358.595 241.852 357.844 241.95 356.962H249.415C249.339 359.031 248.821 360.838 247.863 362.385C246.915 363.931 245.581 365.135 243.861 365.995C242.151 366.844 240.12 367.269 237.768 367.269ZM269.691 355.965V341.705H277.662V366.795H270.05V362.124H269.789C269.233 363.659 268.286 364.879 266.947 365.783C265.618 366.676 264.012 367.122 262.128 367.122C260.418 367.122 258.915 366.73 257.619 365.946C256.323 365.162 255.316 364.067 254.597 362.663C253.878 361.247 253.514 359.592 253.503 357.697V341.705H261.491V356.129C261.501 357.49 261.861 358.562 262.569 359.347C263.277 360.131 264.24 360.523 265.46 360.523C266.255 360.523 266.968 360.348 267.6 360C268.242 359.641 268.749 359.123 269.119 358.448C269.5 357.762 269.691 356.934 269.691 355.965ZM282.747 366.795V341.705H290.343V346.311H290.62C291.143 344.786 292.025 343.583 293.267 342.701C294.508 341.819 295.989 341.378 297.71 341.378C299.452 341.378 300.944 341.824 302.186 342.717C303.427 343.61 304.217 344.808 304.554 346.311H304.816C305.284 344.819 306.199 343.627 307.56 342.734C308.921 341.83 310.528 341.378 312.379 341.378C314.753 341.378 316.681 342.14 318.162 343.665C319.643 345.178 320.383 347.258 320.383 349.905V366.795H312.395V351.734C312.395 350.482 312.074 349.529 311.431 348.876C310.789 348.211 309.956 347.879 308.932 347.879C307.832 347.879 306.967 348.239 306.335 348.957C305.714 349.665 305.404 350.618 305.404 351.816V366.795H297.726V351.653C297.726 350.487 297.41 349.567 296.779 348.892C296.147 348.217 295.314 347.879 294.279 347.879C293.583 347.879 292.967 348.048 292.434 348.386C291.9 348.712 291.481 349.181 291.176 349.79C290.882 350.4 290.735 351.119 290.735 351.947V366.795H282.747ZM337.061 367.269C334.437 367.269 332.172 366.752 330.266 365.717C328.371 364.672 326.912 363.185 325.888 361.258C324.875 359.319 324.369 357.016 324.369 354.348C324.369 351.756 324.881 349.491 325.904 347.553C326.928 345.603 328.371 344.089 330.233 343.011C332.096 341.922 334.29 341.378 336.816 341.378C338.602 341.378 340.236 341.655 341.717 342.211C343.198 342.766 344.478 343.588 345.556 344.678C346.634 345.767 347.472 347.111 348.071 348.712C348.67 350.302 348.97 352.126 348.97 354.185V356.178H327.162V351.538H341.537C341.526 350.689 341.325 349.932 340.933 349.268C340.541 348.603 340.002 348.086 339.316 347.716C338.641 347.335 337.862 347.144 336.98 347.144C336.087 347.144 335.286 347.346 334.578 347.749C333.871 348.141 333.31 348.68 332.896 349.366C332.482 350.041 332.264 350.809 332.243 351.669V356.39C332.243 357.414 332.444 358.312 332.847 359.085C333.25 359.847 333.822 360.441 334.562 360.866C335.303 361.29 336.185 361.503 337.208 361.503C337.916 361.503 338.559 361.405 339.136 361.209C339.713 361.013 340.209 360.724 340.623 360.343C341.036 359.962 341.347 359.494 341.554 358.938L348.888 359.151C348.583 360.795 347.913 362.227 346.879 363.447C345.855 364.655 344.51 365.597 342.844 366.273C341.178 366.937 339.25 367.269 337.061 367.269ZM361.037 352.486V366.795H353.05V341.705H360.645V346.311H360.923C361.479 344.776 362.426 343.572 363.765 342.701C365.105 341.819 366.7 341.378 368.552 341.378C370.316 341.378 371.846 341.775 373.142 342.57C374.449 343.354 375.461 344.454 376.18 345.87C376.91 347.275 377.269 348.919 377.258 350.803V366.795H369.27V352.371C369.281 350.977 368.927 349.888 368.209 349.104C367.501 348.32 366.515 347.928 365.252 347.928C364.413 347.928 363.673 348.113 363.03 348.484C362.399 348.843 361.909 349.36 361.56 350.035C361.223 350.711 361.048 351.527 361.037 352.486ZM396.366 341.705V347.585H380.538V341.705H396.366ZM383.854 335.693H391.842V358.905C391.842 359.396 391.918 359.793 392.07 360.098C392.234 360.392 392.468 360.604 392.773 360.735C393.078 360.855 393.442 360.915 393.867 360.915C394.172 360.915 394.493 360.888 394.831 360.833C395.179 360.768 395.441 360.713 395.615 360.67L396.824 366.436C396.443 366.545 395.904 366.681 395.207 366.844C394.521 367.008 393.698 367.111 392.74 367.155C390.867 367.242 389.261 367.024 387.921 366.501C386.593 365.968 385.574 365.14 384.866 364.018C384.17 362.897 383.832 361.486 383.854 359.788V335.693ZM411.885 367.269C409.25 367.269 406.984 366.73 405.089 365.652C403.205 364.563 401.752 363.049 400.728 361.111C399.715 359.161 399.209 356.902 399.209 354.332C399.209 351.751 399.715 349.491 400.728 347.553C401.752 345.603 403.205 344.089 405.089 343.011C406.984 341.922 409.25 341.378 411.885 341.378C414.52 341.378 416.78 341.922 418.664 343.011C420.559 344.089 422.013 345.603 423.026 347.553C424.049 349.491 424.561 351.751 424.561 354.332C424.561 356.902 424.049 359.161 423.026 361.111C422.013 363.049 420.559 364.563 418.664 365.652C416.78 366.73 414.52 367.269 411.885 367.269ZM411.934 361.241C412.892 361.241 413.704 360.947 414.368 360.359C415.032 359.771 415.539 358.955 415.887 357.909C416.246 356.864 416.426 355.655 416.426 354.283C416.426 352.889 416.246 351.669 415.887 350.624C415.539 349.578 415.032 348.761 414.368 348.173C413.704 347.585 412.892 347.291 411.934 347.291C410.943 347.291 410.104 347.585 409.418 348.173C408.743 348.761 408.226 349.578 407.866 350.624C407.518 351.669 407.344 352.889 407.344 354.283C407.344 355.655 407.518 356.864 407.866 357.909C408.226 358.955 408.743 359.771 409.418 360.359C410.104 360.947 410.943 361.241 411.934 361.241Z" fill="#01EAA0"/>
<path d="M161.441 445.988H542.441" stroke="#E8E8E8" stroke-width="16.926"/>
<path d="M161.441 488.988H797.947" stroke="#E8E8E8" stroke-width="16.926"/>
<path d="M161.441 531.988H797.947" stroke="#E8E8E8" stroke-width="16.926"/>
<path d="M161.441 574.988H797.947" stroke="#E8E8E8" stroke-width="16.926"/>
<path d="M161.441 617.988H797.947" stroke="#E8E8E8" stroke-width="16.926"/>
<path d="M161.441 686.182H542.441" stroke="#E8E8E8" stroke-width="16.926"/>
<path d="M161.441 729.182H797.947" stroke="#E8E8E8" stroke-width="16.926"/>
<path d="M161.441 772.182H797.947" stroke="#E8E8E8" stroke-width="16.926"/>
<path d="M161.441 815.182H797.947" stroke="#E8E8E8" stroke-width="16.926"/>
<path d="M161.441 858.182H797.947" stroke="#E8E8E8" stroke-width="16.926"/>
<path d="M557.459 922.465L797.947 922.465" stroke="#E8E8E8" stroke-width="16.926"/>
<path d="M313.634 1066.04C310.497 1066.04 307.673 1065.32 305.163 1063.88C302.653 1062.54 301.398 1059.81 301.398 1055.68C301.398 1051.11 302.877 1047.21 305.835 1043.98C308.794 1040.67 312.648 1037.93 317.399 1035.78C322.15 1033.63 327.215 1031.97 332.593 1030.81C338.061 1029.55 343.261 1028.7 348.191 1028.25C350.791 1022.16 353.256 1015.88 355.586 1009.43C358.007 1002.97 359.934 997.147 361.368 991.947C361.547 991.409 361.816 991.051 362.175 990.872C362.534 989.975 362.802 989.527 362.982 989.527C363.161 989.527 363.295 989.93 363.385 990.737L363.654 991.141C363.654 991.499 363.564 991.768 363.385 991.947V991.813C363.385 991.275 363.385 990.916 363.385 990.737C363.027 990.468 362.623 990.513 362.175 990.872C361.637 992.306 360.965 994.592 360.158 997.729C359.351 1000.87 358.455 1004.36 357.469 1008.22C356.483 1011.98 355.452 1015.66 354.376 1019.24C353.39 1022.83 352.449 1025.74 351.552 1027.98C352.718 1027.89 353.883 1027.85 355.048 1027.85C356.214 1027.85 357.29 1027.85 358.276 1027.85C358.993 1027.85 359.934 1027.89 361.099 1027.98C362.354 1027.98 363.699 1028.07 365.133 1028.25C364.954 1026.19 364.819 1024.17 364.73 1022.2C364.64 1020.23 364.595 1018.26 364.595 1016.28C364.595 1011.8 364.819 1007.41 365.268 1003.11C365.716 998.805 366.298 995.04 367.016 991.813C367.733 988.048 368.405 985.672 369.033 984.686H369.839C370.288 984.686 370.915 984.91 371.722 985.359C372.618 985.807 373.066 986.255 373.066 986.703C372.17 989.751 371.274 993.426 370.377 997.729C369.481 1002.03 368.898 1006.2 368.629 1010.23C368.539 1011.67 368.45 1013.19 368.36 1014.81C368.271 1016.42 368.226 1018.03 368.226 1019.65C368.226 1021.08 368.226 1022.56 368.226 1024.08C368.315 1025.61 368.405 1027.13 368.495 1028.66C371.363 1029.19 373.963 1030.09 376.293 1031.34C378.714 1032.51 379.924 1034.35 379.924 1036.86C379.924 1038.65 379.565 1039.55 378.848 1039.55C378.221 1039.55 377.907 1038.65 377.907 1036.86C377.907 1036.14 377.638 1035.56 377.1 1035.11C376.652 1034.57 376.204 1034.21 375.756 1034.03C375.038 1033.59 374.052 1033.18 372.797 1032.82C371.632 1032.47 370.332 1032.11 368.898 1031.75C369.346 1035.69 370.108 1039.59 371.184 1043.45C372.26 1047.21 373.784 1050.66 375.756 1053.8C376.831 1055.68 377.952 1057.07 379.117 1057.97C380.372 1058.86 381.448 1059.54 382.344 1059.99C382.344 1059.99 382.344 1059.94 382.344 1059.85C382.434 1059.76 382.524 1059.99 382.613 1060.52C382.703 1060.61 382.748 1060.79 382.748 1061.06C382.748 1061.42 382.568 1061.69 382.21 1061.87C381.941 1062.05 381.582 1061.96 381.134 1061.6H381.269C376.607 1059.45 373.022 1055.55 370.512 1049.9C368.091 1044.25 366.433 1038.02 365.537 1031.21C364.102 1030.94 362.713 1030.76 361.368 1030.67C360.024 1030.49 358.948 1030.36 358.141 1030.27C356.976 1030.27 355.766 1030.27 354.511 1030.27C353.256 1030.27 351.956 1030.36 350.611 1030.54C348.908 1034.66 346.846 1038.96 344.426 1043.45C342.006 1047.93 339.137 1052.05 335.82 1055.82C332.504 1059.49 328.604 1062.27 324.122 1064.15C322.957 1064.6 321.433 1065 319.551 1065.36C317.668 1065.81 315.696 1066.04 313.634 1066.04ZM313.5 1062.67C315.293 1062.67 317.041 1062.5 318.744 1062.14C320.537 1061.78 322.06 1061.33 323.315 1060.79C327.17 1059.18 330.532 1056.8 333.4 1053.67C336.269 1050.53 338.779 1046.94 340.93 1042.91C343.171 1038.87 345.233 1034.8 347.115 1030.67C342.454 1031.03 337.613 1031.79 332.593 1032.96C327.573 1034.03 322.912 1035.56 318.609 1037.53C314.307 1039.5 310.855 1041.97 308.256 1044.93C305.566 1047.88 304.222 1051.42 304.222 1055.55C304.132 1058.24 305.073 1060.07 307.046 1061.06C308.928 1062.14 311.079 1062.67 313.5 1062.67ZM394.129 1060.79C393.77 1060.79 392.963 1060.75 391.708 1060.66C390.543 1060.57 389.871 1060.34 389.691 1059.99C389.691 1059.99 389.602 1059.85 389.422 1059.58L389.153 1059.04C389.153 1058.86 389.422 1058.77 389.96 1058.77C390.857 1058.77 391.663 1058.77 392.381 1058.77C393.187 1058.69 393.994 1058.64 394.801 1058.64C395.608 1058.64 396.594 1058.51 397.759 1058.24C398.924 1057.88 399.955 1057.39 400.852 1056.76C401.748 1056.04 402.196 1055.19 402.196 1054.2C402.196 1053.58 401.927 1052.95 401.39 1052.32C400.941 1051.6 400.493 1051.07 400.045 1050.71C398.252 1049.54 396.37 1048.29 394.398 1046.94C392.425 1045.6 390.767 1044.03 389.422 1042.24C388.078 1040.35 387.405 1038.2 387.405 1035.78C387.405 1033.36 388.167 1030.94 389.691 1028.52C391.305 1026.01 393.367 1023.73 395.877 1021.66C398.387 1019.6 400.986 1017.94 403.675 1016.69C406.454 1015.34 409.009 1014.67 411.34 1014.67C412.864 1014.67 414.477 1015.12 416.18 1016.02C417.973 1016.82 418.87 1018.12 418.87 1019.92C418.87 1020.45 418.645 1021.26 418.197 1022.34C417.839 1023.32 417.346 1023.81 416.718 1023.81C416.449 1023.81 416.27 1023.68 416.18 1023.41C416.18 1023.14 416.18 1022.92 416.18 1022.74C416.18 1022.2 416.225 1021.71 416.315 1021.26C416.404 1020.72 416.449 1020.23 416.449 1019.78C416.449 1018.17 415.642 1017.36 414.029 1017.36C411.878 1017.36 409.502 1017.99 406.902 1019.24C404.303 1020.41 401.793 1021.98 399.373 1023.95C396.952 1025.92 394.98 1028.12 393.456 1030.54C391.932 1032.96 391.17 1035.38 391.17 1037.8C391.17 1039.68 391.932 1041.43 393.456 1043.04C394.98 1044.57 396.728 1046.05 398.7 1047.48C400.762 1048.82 402.555 1050.12 404.079 1051.38C405.603 1052.63 406.365 1053.93 406.365 1055.28C406.365 1056.8 405.558 1057.97 403.944 1058.77C402.42 1059.58 400.672 1060.12 398.7 1060.39C396.818 1060.66 395.294 1060.79 394.129 1060.79ZM426.825 1060.79C426.466 1060.79 425.66 1060.75 424.405 1060.66C423.239 1060.57 422.567 1060.34 422.388 1059.99C422.388 1059.99 422.298 1059.85 422.119 1059.58L421.85 1059.04C421.85 1058.86 422.119 1058.77 422.657 1058.77C423.553 1058.77 424.36 1058.77 425.077 1058.77C425.884 1058.69 426.69 1058.64 427.497 1058.64C428.304 1058.64 429.29 1058.51 430.455 1058.24C431.621 1057.88 432.652 1057.39 433.548 1056.76C434.444 1056.04 434.893 1055.19 434.893 1054.2C434.893 1053.58 434.624 1052.95 434.086 1052.32C433.638 1051.6 433.189 1051.07 432.741 1050.71C430.948 1049.54 429.066 1048.29 427.094 1046.94C425.122 1045.6 423.463 1044.03 422.119 1042.24C420.774 1040.35 420.102 1038.2 420.102 1035.78C420.102 1033.36 420.864 1030.94 422.388 1028.52C424.001 1026.01 426.063 1023.73 428.573 1021.66C431.083 1019.6 433.682 1017.94 436.372 1016.69C439.151 1015.34 441.705 1014.67 444.036 1014.67C445.56 1014.67 447.173 1015.12 448.877 1016.02C450.669 1016.82 451.566 1018.12 451.566 1019.92C451.566 1020.45 451.342 1021.26 450.894 1022.34C450.535 1023.32 450.042 1023.81 449.414 1023.81C449.146 1023.81 448.966 1023.68 448.877 1023.41C448.877 1023.14 448.877 1022.92 448.877 1022.74C448.877 1022.2 448.921 1021.71 449.011 1021.26C449.101 1020.72 449.146 1020.23 449.146 1019.78C449.146 1018.17 448.339 1017.36 446.725 1017.36C444.574 1017.36 442.198 1017.99 439.599 1019.24C436.999 1020.41 434.489 1021.98 432.069 1023.95C429.649 1025.92 427.676 1028.12 426.153 1030.54C424.629 1032.96 423.867 1035.38 423.867 1037.8C423.867 1039.68 424.629 1041.43 426.153 1043.04C427.676 1044.57 429.424 1046.05 431.397 1047.48C433.458 1048.82 435.251 1050.12 436.775 1051.38C438.299 1052.63 439.061 1053.93 439.061 1055.28C439.061 1056.8 438.254 1057.97 436.641 1058.77C435.117 1059.58 433.369 1060.12 431.397 1060.39C429.514 1060.66 427.99 1060.79 426.825 1060.79ZM461.135 1023.41C460.776 1023.41 460.373 1023.32 459.925 1023.14C459.566 1022.96 459.387 1022.6 459.387 1022.07C459.387 1021.08 459.969 1020.32 461.135 1019.78C462.39 1019.15 463.421 1018.84 464.227 1018.84C464.676 1018.84 465.079 1018.93 465.438 1019.11C465.886 1019.29 466.11 1019.6 466.11 1020.05C466.11 1021.04 465.482 1021.84 464.227 1022.47C462.972 1023.1 461.942 1023.41 461.135 1023.41ZM469.202 1053.67C467.858 1055.28 466.468 1056.67 465.034 1057.83C463.69 1058.91 462.39 1059.45 461.135 1059.45C459.969 1059.45 458.939 1058.91 458.042 1057.83C457.146 1056.67 456.384 1054.79 455.756 1052.19C455.667 1051.38 455.532 1050.21 455.353 1048.69C455.263 1047.17 455.218 1045.6 455.218 1043.98C455.218 1042.28 455.263 1040.67 455.353 1039.14C455.532 1037.53 455.667 1036.27 455.756 1035.38C455.936 1034.66 456.294 1033.85 456.832 1032.96C457.459 1032.06 458.221 1031.61 459.118 1031.61C459.925 1031.61 460.328 1032.06 460.328 1032.96C460.328 1033.05 460.283 1033.14 460.194 1033.23C460.194 1033.32 460.194 1033.41 460.194 1033.5C459.835 1035.56 459.566 1037.62 459.387 1039.68C459.207 1041.65 459.118 1043.67 459.118 1045.73C459.118 1049.32 459.387 1051.92 459.925 1053.53C460.552 1055.14 461.404 1055.95 462.479 1055.95C463.286 1055.95 464.227 1055.59 465.303 1054.88C466.379 1054.07 467.589 1053.04 468.934 1051.78C470.099 1050.71 471.219 1049.5 472.295 1048.15C473.371 1046.81 474.536 1045.1 475.791 1043.04C475.97 1042.59 476.239 1042.37 476.598 1042.37C477.225 1042.37 477.315 1042.82 476.867 1043.72C475.97 1045.15 474.85 1046.72 473.505 1048.42C472.161 1050.12 470.726 1051.87 469.202 1053.67ZM476.04 1059.99C475.413 1059.99 474.875 1059.76 474.427 1059.31C473.978 1058.77 473.754 1058.15 473.754 1057.43C473.754 1056.89 473.889 1056.44 474.158 1056.09C474.875 1054.47 475.502 1052.5 476.04 1050.17C476.578 1047.84 476.981 1045.46 477.25 1043.04C477.519 1040.62 477.654 1038.56 477.654 1036.86C477.654 1035.15 477.474 1033.32 477.116 1031.34C476.847 1029.37 475.95 1027.8 474.427 1026.64C474.158 1026.64 474.023 1026.46 474.023 1026.1C474.023 1025.92 474.113 1025.83 474.292 1025.83C474.561 1025.83 474.785 1025.92 474.964 1026.1C477.026 1027.36 478.46 1029.28 479.267 1031.88C480.164 1034.39 480.612 1037.13 480.612 1040.08C480.612 1042.24 480.432 1044.43 480.074 1046.67C479.715 1048.82 479.267 1050.89 478.729 1052.86C480.791 1051.25 482.987 1049 485.318 1046.14C487.649 1043.27 489.666 1040.67 491.369 1038.34C491.907 1037.62 492.534 1036.95 493.251 1036.32C493.968 1035.6 494.82 1035.24 495.806 1035.24C496.433 1035.24 496.747 1035.65 496.747 1036.45C496.747 1036.54 496.702 1036.72 496.613 1036.99C496.613 1037.17 496.568 1037.4 496.478 1037.66C496.299 1038.47 495.94 1040.08 495.403 1042.5C494.954 1044.84 494.73 1047.17 494.73 1049.5C494.73 1051.47 494.999 1053.17 495.537 1054.61C496.075 1056.04 497.061 1056.76 498.495 1056.76C499.123 1056.76 499.795 1056.62 500.512 1056.35C501.229 1056 501.767 1055.55 502.126 1055.01C502.215 1055.01 502.26 1054.97 502.26 1054.88C502.35 1054.79 502.439 1054.74 502.529 1054.74C502.708 1054.74 502.798 1054.83 502.798 1055.01C502.798 1055.91 502.17 1056.58 500.916 1057.03C499.661 1057.48 498.674 1057.7 497.957 1057.7C495.627 1057.7 493.923 1056.67 492.848 1054.61C491.862 1052.54 491.369 1050.26 491.369 1047.75C491.369 1046.94 491.414 1046.14 491.503 1045.33C491.593 1044.52 491.727 1043.76 491.907 1043.04V1042.77C491.907 1042.42 491.682 1042.24 491.234 1042.24C490.786 1042.24 490.293 1042.5 489.755 1043.04C489.038 1043.85 488.097 1044.97 486.931 1046.4C485.766 1047.75 484.556 1049.18 483.301 1050.71C482.136 1052.23 481.105 1053.62 480.208 1054.88C479.312 1056.04 478.729 1056.8 478.46 1057.16C478.281 1057.52 478.012 1058.1 477.654 1058.91C477.295 1059.63 476.757 1059.99 476.04 1059.99ZM505.616 1058.64C504.451 1058.64 503.555 1058.15 502.927 1057.16C502.389 1056.18 502.031 1055.05 501.851 1053.8C501.762 1052.54 501.762 1051.56 501.851 1050.84C502.389 1046.72 503.779 1042.59 506.02 1038.47C508.261 1034.35 511.04 1030.67 514.356 1027.45C517.763 1024.22 521.348 1021.98 525.113 1020.72C525.831 1020.45 526.458 1020.27 526.996 1020.18C527.623 1020.09 528.206 1020.05 528.744 1020.05C531.523 1020.05 532.912 1021.13 532.912 1023.28C532.912 1024.35 532.554 1025.43 531.836 1026.5L530.761 1028.25C530.671 1028.52 530.537 1028.66 530.357 1028.66C530.178 1028.66 530.044 1028.52 529.954 1028.25C529.864 1027.98 529.909 1027.71 530.088 1027.45C530.268 1027.18 530.402 1026.91 530.492 1026.64C530.671 1026.37 530.85 1026.1 531.03 1025.83C531.478 1024.94 531.702 1024.26 531.702 1023.81C531.702 1023.19 531.433 1022.78 530.895 1022.6C530.447 1022.34 529.864 1022.2 529.147 1022.2C528.789 1022.2 528.385 1022.25 527.937 1022.34C527.579 1022.34 527.22 1022.38 526.861 1022.47C524.979 1023.1 523.321 1023.9 521.886 1024.89C520.542 1025.88 519.197 1027.13 517.852 1028.66C516.239 1030.36 514.491 1032.6 512.608 1035.38C510.726 1038.07 509.068 1040.8 507.633 1043.58C506.289 1046.36 505.482 1048.82 505.213 1050.98C505.034 1051.51 504.944 1052.37 504.944 1053.53C504.944 1054.34 505.034 1055.19 505.213 1056.09C505.482 1056.89 505.93 1057.3 506.558 1057.3C507.364 1057.3 508.126 1056.89 508.844 1056.09C509.561 1055.28 510.143 1054.61 510.592 1054.07C512.115 1051.92 513.819 1049.23 515.701 1046C517.584 1042.77 519.063 1039.73 520.138 1036.86L520.407 1035.38C520.587 1034.66 520.945 1033.85 521.483 1032.96C522.021 1032.06 522.783 1031.61 523.769 1031.61C524.576 1031.61 524.979 1032.06 524.979 1032.96C524.979 1033.05 524.934 1033.14 524.844 1033.23C524.844 1033.32 524.844 1033.41 524.844 1033.5C524.486 1035.56 524.217 1037.62 524.038 1039.68C523.858 1041.65 523.769 1043.67 523.769 1045.73C523.769 1049.41 524.127 1052.14 524.844 1053.93C525.562 1055.64 526.458 1056.49 527.534 1056.49C528.609 1056.49 529.775 1055.91 531.03 1054.74C532.374 1053.58 533.629 1052.28 534.795 1050.84C536.05 1049.32 536.991 1048.15 537.618 1047.35L540.577 1043.31C540.845 1042.95 541.07 1042.77 541.249 1042.77C541.428 1042.77 541.518 1042.91 541.518 1043.18C541.518 1043.63 541.428 1043.98 541.249 1044.25C540.352 1045.78 539.277 1047.39 538.022 1049.09C536.856 1050.71 535.512 1052.41 533.988 1054.2C532.823 1055.64 531.523 1056.85 530.088 1057.83C528.654 1058.82 527.31 1059.31 526.055 1059.31C524.889 1059.31 523.814 1058.77 522.828 1057.7C521.841 1056.62 521.035 1054.79 520.407 1052.19C520.228 1051.2 520.049 1049.77 519.869 1047.88C519.78 1045.91 519.78 1043.89 519.869 1041.83C519.332 1043.18 518.57 1044.79 517.584 1046.67C516.597 1048.56 515.432 1050.44 514.088 1052.32C512.833 1054.11 511.443 1055.64 509.919 1056.89C508.485 1058.06 507.051 1058.64 505.616 1058.64ZM545.745 1064.42C545.297 1064.42 544.804 1064.15 544.266 1063.62C543.011 1062.09 542.159 1060.48 541.711 1058.77C541.263 1056.98 541.039 1055.14 541.039 1053.26C541.039 1052.37 541.084 1051.51 541.173 1050.71C541.352 1049.81 541.442 1049 541.442 1048.29C541.442 1047.57 541.397 1046.85 541.308 1046.14C541.218 1045.33 541.128 1044.57 541.039 1043.85C540.949 1042.33 540.859 1040.76 540.77 1039.14C540.68 1037.53 540.546 1035.92 540.366 1034.3C540.366 1034.03 540.322 1033.81 540.232 1033.63C540.232 1033.36 540.232 1033.09 540.232 1032.82C540.232 1030.4 540.994 1028.92 542.518 1028.39C544.042 1027.85 545.745 1027.4 547.627 1027.04C548.613 1024.8 549.644 1022.56 550.72 1020.32C551.885 1017.99 553.14 1015.79 554.485 1013.73C555.112 1012.56 556.188 1011.98 557.712 1011.98C558.519 1011.98 558.922 1012.34 558.922 1013.06C558.922 1013.51 558.788 1013.95 558.519 1014.4C558.34 1014.76 558.115 1015.16 557.846 1015.61C555.426 1019.11 553.14 1022.74 550.989 1026.5C551.885 1026.32 552.692 1026.24 553.409 1026.24C554.216 1026.15 555.112 1026.01 556.098 1025.83C556.905 1025.65 557.757 1025.52 558.653 1025.43C559.55 1025.34 560.401 1025.29 561.208 1025.29C561.387 1025.29 561.97 1025.34 562.956 1025.43C563.942 1025.52 564.435 1025.74 564.435 1026.1C564.435 1026.37 564.211 1026.55 563.763 1026.64C563.404 1026.64 563.135 1026.68 562.956 1026.77C560.715 1027.04 558.474 1027.36 556.233 1027.71C554.082 1028.07 551.885 1028.52 549.644 1029.06C549.106 1030.31 548.345 1031.97 547.358 1034.03C546.462 1036.1 545.61 1038.16 544.804 1040.22C544.087 1042.28 543.638 1043.98 543.459 1045.33V1046.14C543.459 1049.18 543.638 1052.1 543.997 1054.88C544.355 1057.56 545.386 1060.21 547.09 1062.81C547.09 1062.9 547.09 1062.94 547.09 1062.94C547.179 1063.03 547.224 1063.12 547.224 1063.21C547.224 1063.66 547.045 1063.97 546.686 1064.15C546.417 1064.33 546.103 1064.42 545.745 1064.42ZM542.652 1041.7C543.1 1039.73 543.683 1037.8 544.4 1035.92C545.117 1033.94 545.835 1031.97 546.552 1030C545.207 1030.18 544.266 1030.36 543.728 1030.54C543.28 1030.63 542.876 1031.48 542.518 1033.09C542.339 1033.36 542.249 1033.76 542.249 1034.3C542.249 1035.56 542.294 1036.81 542.383 1038.07C542.473 1039.23 542.563 1040.44 542.652 1041.7ZM561.295 1059.45C560.937 1059.54 560.623 1059.63 560.354 1059.72C560.085 1059.72 559.861 1059.72 559.682 1059.72C558.516 1059.72 557.934 1059.13 557.934 1057.97C557.934 1057.25 558.158 1056.35 558.606 1055.28L562.909 1045.73C563.716 1043.94 564.567 1041.74 565.464 1039.14C566.36 1036.54 566.808 1034.12 566.808 1031.88C566.808 1031.52 566.763 1031.12 566.674 1030.67C566.584 1030.22 566.315 1030 565.867 1030C565.329 1030 564.657 1030.31 563.85 1030.94C563.043 1031.57 562.461 1031.88 562.102 1031.88C561.833 1031.88 561.699 1031.79 561.699 1031.61C561.699 1031.08 562.102 1030.58 562.909 1030.13C563.716 1029.6 564.612 1029.15 565.598 1028.79C566.584 1028.43 567.301 1028.25 567.749 1028.25C569.004 1028.25 569.901 1028.66 570.439 1029.46C571.066 1030.27 571.38 1031.26 571.38 1032.42C571.38 1033.68 570.932 1035.38 570.035 1037.53C569.228 1039.59 568.242 1041.83 567.077 1044.25C565.912 1046.58 564.746 1048.78 563.581 1050.84C562.416 1052.9 561.519 1054.52 560.892 1055.68C560.623 1056.22 560.488 1056.62 560.488 1056.89C560.488 1057.43 560.757 1057.7 561.295 1057.7C561.833 1057.7 562.326 1057.52 562.774 1057.16C564.209 1056.18 566.001 1054.56 568.153 1052.32C570.304 1049.99 572.321 1047.52 574.204 1044.93C576.086 1042.24 577.341 1039.95 577.969 1038.07C578.237 1037.17 578.955 1036.72 580.12 1036.72C580.747 1036.72 581.285 1036.86 581.733 1037.13C582.182 1037.4 582.406 1037.8 582.406 1038.34C582.406 1038.52 582.271 1038.92 582.002 1039.55C581.823 1040.08 581.644 1040.49 581.465 1040.76C580.568 1043 579.627 1045.19 578.641 1047.35C577.655 1049.5 577.162 1051.74 577.162 1054.07C577.162 1054.97 577.251 1055.55 577.431 1055.82C577.61 1056 577.879 1056.09 578.237 1056.09C578.955 1056.09 579.941 1055.46 581.196 1054.2C582.451 1052.95 583.661 1051.65 584.826 1050.3C585.991 1048.87 586.753 1047.88 587.112 1047.35C587.56 1046.72 587.964 1046.4 588.322 1046.4C588.591 1046.4 588.725 1046.49 588.725 1046.67C588.725 1047.03 588.412 1047.57 587.784 1048.29C587.157 1049 586.26 1050.17 585.095 1051.78C583.93 1053.4 582.675 1054.92 581.33 1056.35C579.985 1057.7 578.73 1058.37 577.565 1058.37C576.131 1058.37 575.01 1057.92 574.204 1057.03C573.486 1056.04 573.128 1054.88 573.128 1053.53C573.128 1052.37 573.352 1051.11 573.8 1049.77C574.338 1048.33 574.786 1047.17 575.145 1046.27C574.069 1047.35 572.68 1048.87 570.976 1050.84C569.363 1052.72 567.705 1054.52 566.001 1056.22C564.298 1057.92 562.729 1059 561.295 1059.45ZM599.023 1065.36C600.547 1065.36 602.026 1064.87 603.461 1063.88C604.895 1062.99 606.06 1062.09 606.957 1061.2C607.226 1060.84 607.45 1060.66 607.629 1060.66C607.808 1060.66 607.898 1060.79 607.898 1061.06C607.898 1061.51 607.719 1061.91 607.36 1062.27C606.195 1063.71 604.716 1064.87 602.923 1065.77C601.22 1066.75 599.516 1067.25 597.813 1067.25C596.289 1067.25 594.989 1066.71 593.914 1065.63C592.928 1064.65 592.435 1063.03 592.435 1060.79C592.435 1057.92 593.107 1055.1 594.452 1052.32C595.886 1049.54 597.589 1046.81 599.561 1044.12C601.533 1041.43 603.371 1038.87 605.074 1036.45C605.791 1035.29 606.15 1034.35 606.15 1033.63C606.15 1032.38 605.343 1031.34 603.729 1030.54C603.012 1030.18 602.161 1029.64 601.175 1028.92C600.189 1028.12 599.561 1027.36 599.292 1026.64C598.127 1029.87 596.558 1033.45 594.586 1037.4C592.704 1041.34 590.194 1045.24 587.056 1049.09C586.698 1049.63 586.339 1049.9 585.981 1049.9C585.801 1049.9 585.712 1049.77 585.712 1049.5C585.712 1049.14 585.891 1048.74 586.249 1048.29C587.236 1047.12 588.401 1045.46 589.745 1043.31C591.09 1041.07 592.39 1038.65 593.645 1036.05C594.989 1033.36 596.065 1030.76 596.872 1028.25C597.768 1025.74 598.217 1023.55 598.217 1021.66C598.396 1020.68 598.934 1020.18 599.83 1020.18C600.547 1020.18 600.906 1020.59 600.906 1021.39C600.816 1021.66 600.771 1022.07 600.771 1022.6C600.771 1023.41 600.951 1024.22 601.309 1025.02C601.668 1025.83 602.206 1026.46 602.923 1026.91C603.64 1027.45 604.671 1027.94 606.015 1028.39C607.45 1028.75 608.705 1029.19 609.78 1029.73C610.946 1030.27 611.528 1031.12 611.528 1032.29C611.528 1032.82 611.125 1033.76 610.318 1035.11C609.511 1036.36 608.525 1037.75 607.36 1039.28C606.284 1040.8 605.209 1042.24 604.133 1043.58C603.147 1044.84 602.43 1045.73 601.981 1046.27C600.278 1048.51 598.62 1050.89 597.006 1053.4C595.482 1055.82 594.721 1058.33 594.721 1060.93C594.721 1062.45 595.124 1063.57 595.931 1064.29C596.827 1065 597.858 1065.36 599.023 1065.36ZM617.23 1058.64C616.065 1058.64 615.169 1058.15 614.541 1057.16C614.003 1056.18 613.645 1055.05 613.465 1053.8C613.376 1052.54 613.376 1051.56 613.465 1050.84C614.003 1046.72 615.393 1042.59 617.634 1038.47C619.875 1034.35 622.654 1030.67 625.97 1027.45C629.377 1024.22 632.962 1021.98 636.727 1020.72C637.444 1020.45 638.072 1020.27 638.61 1020.18C639.237 1020.09 639.82 1020.05 640.358 1020.05C643.137 1020.05 644.526 1021.13 644.526 1023.28C644.526 1024.35 644.168 1025.43 643.45 1026.5L642.375 1028.25C642.285 1028.52 642.151 1028.66 641.971 1028.66C641.792 1028.66 641.658 1028.52 641.568 1028.25C641.478 1027.98 641.523 1027.71 641.702 1027.45C641.882 1027.18 642.016 1026.91 642.106 1026.64C642.285 1026.37 642.464 1026.1 642.644 1025.83C643.092 1024.94 643.316 1024.26 643.316 1023.81C643.316 1023.19 643.047 1022.78 642.509 1022.6C642.061 1022.34 641.478 1022.2 640.761 1022.2C640.403 1022.2 639.999 1022.25 639.551 1022.34C639.192 1022.34 638.834 1022.38 638.475 1022.47C636.593 1023.1 634.934 1023.9 633.5 1024.89C632.156 1025.88 630.811 1027.13 629.466 1028.66C627.853 1030.36 626.105 1032.6 624.222 1035.38C622.34 1038.07 620.682 1040.8 619.247 1043.58C617.903 1046.36 617.096 1048.82 616.827 1050.98C616.648 1051.51 616.558 1052.37 616.558 1053.53C616.558 1054.34 616.648 1055.19 616.827 1056.09C617.096 1056.89 617.544 1057.3 618.172 1057.3C618.978 1057.3 619.74 1056.89 620.457 1056.09C621.175 1055.28 621.757 1054.61 622.205 1054.07C623.729 1051.92 625.433 1049.23 627.315 1046C629.197 1042.77 630.677 1039.73 631.752 1036.86L632.021 1035.38C632.2 1034.66 632.559 1033.85 633.097 1032.96C633.635 1032.06 634.397 1031.61 635.383 1031.61C636.189 1031.61 636.593 1032.06 636.593 1032.96C636.593 1033.05 636.548 1033.14 636.458 1033.23C636.458 1033.32 636.458 1033.41 636.458 1033.5C636.1 1035.56 635.831 1037.62 635.652 1039.68C635.472 1041.65 635.383 1043.67 635.383 1045.73C635.383 1049.41 635.741 1052.14 636.458 1053.93C637.176 1055.64 638.072 1056.49 639.148 1056.49C640.223 1056.49 641.389 1055.91 642.644 1054.74C643.988 1053.58 645.243 1052.28 646.409 1050.84C647.664 1049.32 648.605 1048.15 649.232 1047.35L652.19 1043.31C652.459 1042.95 652.683 1042.77 652.863 1042.77C653.042 1042.77 653.132 1042.91 653.132 1043.18C653.132 1043.63 653.042 1043.98 652.863 1044.25C651.966 1045.78 650.891 1047.39 649.636 1049.09C648.47 1050.71 647.126 1052.41 645.602 1054.2C644.436 1055.64 643.137 1056.85 641.702 1057.83C640.268 1058.82 638.924 1059.31 637.669 1059.31C636.503 1059.31 635.428 1058.77 634.441 1057.7C633.455 1056.62 632.649 1054.79 632.021 1052.19C631.842 1051.2 631.663 1049.77 631.483 1047.88C631.394 1045.91 631.394 1043.89 631.483 1041.83C630.945 1043.18 630.184 1044.79 629.197 1046.67C628.211 1048.56 627.046 1050.44 625.701 1052.32C624.446 1054.11 623.057 1055.64 621.533 1056.89C620.099 1058.06 618.665 1058.64 617.23 1058.64Z" fill="#29292E"/>
<path d="M289.809 1077.91H669.578" stroke="#696969" stroke-width="1.6566"/>
</g>
<g filter="url(#filter2_d_1488_147)">
<rect x="190.283" y="91.7495" width="129" height="129" rx="25" fill="white"/>
<path d="M274.535 142.481L276.145 140.867C277.427 139.585 279.166 138.864 280.979 138.864C282.792 138.864 284.531 139.584 285.813 140.865C287.095 142.147 287.816 143.886 287.816 145.699C287.816 147.512 287.097 149.251 285.815 150.533L284.205 152.147M274.535 142.481C274.535 142.481 274.737 145.902 277.758 148.923C280.78 151.945 284.205 152.147 284.205 152.147M274.535 142.481L259.723 157.293C258.715 158.294 258.214 158.798 257.783 159.351C257.275 160.005 256.841 160.707 256.483 161.458C256.18 162.091 255.958 162.762 255.509 164.108L254.073 168.419L253.607 169.813M284.205 152.147L269.393 166.959C268.384 167.967 267.884 168.468 267.331 168.899C266.677 169.407 265.975 169.841 265.224 170.199C264.591 170.502 263.92 170.724 262.574 171.173L258.263 172.609L256.869 173.075M253.607 169.813L253.145 171.211C253.037 171.536 253.022 171.884 253.1 172.216C253.179 172.549 253.349 172.853 253.591 173.095C253.832 173.337 254.136 173.506 254.469 173.585C254.802 173.664 255.15 173.648 255.474 173.541L256.869 173.075M253.607 169.813L256.869 173.075" stroke="#01EAA0" stroke-width="5.21553"/>
<path d="M239.135 159.726H247.828M239.135 145.818H261.736M239.135 173.635H244.351M280.261 125.554C276.19 121.479 269.632 121.479 256.52 121.479H249.566C236.454 121.479 229.897 121.479 225.825 125.554C221.75 129.626 221.75 136.184 221.75 149.295V163.203C221.75 176.315 221.75 182.873 225.825 186.945C229.897 191.02 236.454 191.02 249.566 191.02H256.52C269.632 191.02 276.19 191.02 280.261 186.945C283.544 183.666 284.18 178.781 284.305 170.158" stroke="#01EAA0" stroke-width="5.21553" stroke-linecap="round"/>
</g>
<g filter="url(#filter3_d_1488_147)">
<rect x="340.225" y="91.7495" width="129" height="129" rx="25" fill="white"/>
<path d="M370.383 129.137V139.982H388.458V183.362H399.303V139.982H417.378V129.137H370.383ZM439.068 147.212H406.533V158.057H417.378V183.362H428.223V158.057H439.068V147.212Z" fill="#01EAA0"/>
</g>
<g filter="url(#filter4_d_1488_147)">
<rect x="490.162" y="91.7495" width="129" height="129" rx="25" fill="white"/>
<path d="M538.405 159.872C537.926 159.872 537.466 160.062 537.127 160.401C536.788 160.74 536.598 161.2 536.598 161.679V172.524C536.598 173.004 536.788 173.463 537.127 173.802C537.466 174.141 537.926 174.332 538.405 174.332C538.885 174.332 539.345 174.141 539.684 173.802C540.022 173.463 540.213 173.004 540.213 172.524V170.717H542.01C543.448 170.717 544.827 170.145 545.844 169.129C546.861 168.112 547.432 166.732 547.432 165.294C547.432 163.856 546.861 162.477 545.844 161.46C544.827 160.443 543.448 159.872 542.01 159.872H538.405ZM542.01 167.102H540.213V163.487H542.01C542.489 163.487 542.949 163.677 543.288 164.016C543.627 164.355 543.817 164.815 543.817 165.294C543.817 165.774 543.627 166.233 543.288 166.572C542.949 166.911 542.489 167.102 542.01 167.102ZM565.5 161.679C565.5 161.2 565.69 160.74 566.029 160.401C566.368 160.062 566.828 159.872 567.308 159.872H572.748C573.228 159.872 573.687 160.062 574.026 160.401C574.365 160.74 574.556 161.2 574.556 161.679C574.556 162.159 574.365 162.618 574.026 162.957C573.687 163.296 573.228 163.487 572.748 163.487H569.111L569.108 167.109H572.748C573.228 167.109 573.687 167.299 574.026 167.638C574.365 167.977 574.556 168.437 574.556 168.916C574.556 169.396 574.365 169.856 574.026 170.195C573.687 170.534 573.228 170.724 572.748 170.724H569.108L569.115 172.521C569.116 172.758 569.069 172.993 568.979 173.213C568.888 173.432 568.756 173.632 568.588 173.8C568.25 174.139 567.791 174.331 567.311 174.332C566.832 174.333 566.372 174.143 566.032 173.805C565.692 173.467 565.501 173.007 565.5 172.528L565.489 168.92V168.913L565.5 161.679ZM552.855 159.872C552.375 159.872 551.916 160.062 551.577 160.401C551.238 160.74 551.047 161.2 551.047 161.679V172.524C551.047 173.004 551.238 173.463 551.577 173.802C551.916 174.141 552.375 174.332 552.855 174.332H554.655C556.572 174.332 558.411 173.57 559.767 172.214C561.123 170.858 561.885 169.019 561.885 167.102C561.885 165.184 561.123 163.345 559.767 161.989C558.411 160.633 556.572 159.872 554.655 159.872H552.855ZM554.662 170.717V163.487C555.621 163.487 556.54 163.868 557.218 164.545C557.896 165.223 558.277 166.143 558.277 167.102C558.277 168.06 557.896 168.98 557.218 169.658C556.54 170.336 555.621 170.717 554.662 170.717ZM583.582 185.17V180.962C585.719 179.946 587.197 177.766 587.197 175.243V158.961C587.197 156.437 585.719 154.261 583.582 153.242V148.398C583.582 146.48 582.82 144.641 581.464 143.286L560.392 122.218C560.336 122.166 560.277 122.117 560.215 122.073C560.17 122.038 560.127 122.002 560.085 121.964C559.836 121.73 559.571 121.512 559.293 121.314C559.2 121.254 559.104 121.201 559.004 121.155L558.83 121.068L558.65 120.963C558.454 120.851 558.256 120.735 558.049 120.649C557.33 120.361 556.568 120.193 555.794 120.15C555.722 120.145 555.651 120.137 555.58 120.124C555.482 120.109 555.383 120.101 555.284 120.099H532.972C531.055 120.099 529.216 120.861 527.86 122.217C526.504 123.573 525.742 125.412 525.742 127.329V153.242C523.605 154.258 522.127 156.437 522.127 158.961V175.243C522.127 177.766 523.605 179.942 525.742 180.962V185.17C525.742 187.087 526.504 188.926 527.86 190.282C529.216 191.638 531.055 192.4 532.972 192.4H576.352C578.27 192.4 580.109 191.638 581.465 190.282C582.821 188.926 583.582 187.087 583.582 185.17ZM576.352 186.977H532.972C532.493 186.977 532.033 186.787 531.694 186.448C531.355 186.109 531.165 185.649 531.165 185.17V181.569H578.16V185.17C578.16 185.649 577.969 186.109 577.63 186.448C577.291 186.787 576.832 186.977 576.352 186.977ZM578.16 149.019V152.634H531.165V127.329C531.165 126.85 531.355 126.39 531.694 126.051C532.033 125.712 532.493 125.522 532.972 125.522H554.662V141.789C554.662 143.707 555.424 145.546 556.78 146.902C558.136 148.258 559.975 149.019 561.892 149.019H578.16ZM574.104 143.597H561.892C561.413 143.597 560.953 143.406 560.614 143.067C560.275 142.728 560.085 142.269 560.085 141.789V129.574L574.104 143.597ZM528.453 158.057H580.871C581.111 158.057 581.341 158.152 581.51 158.322C581.68 158.491 581.775 158.721 581.775 158.961V175.243C581.775 175.482 581.68 175.712 581.51 175.882C581.341 176.051 581.111 176.146 580.871 176.146H528.453C528.214 176.146 527.984 176.051 527.814 175.882C527.645 175.712 527.549 175.482 527.549 175.243V158.961C527.549 158.721 527.645 158.491 527.814 158.322C527.984 158.152 528.214 158.057 528.453 158.057Z" fill="#01EAA0"/>
</g>
<rect x="364.076" y="1219.75" width="115.972" height="115.972" rx="25" fill="#01EAA0"/>
<rect x="500.275" y="1219.75" width="115.972" height="115.972" rx="25" fill="#FEEA51"/>
<path d="M230.79 1217.57C231.115 1214.68 229.039 1212.08 226.151 1211.75C223.263 1211.43 220.658 1213.5 220.333 1216.39L230.79 1217.57ZM258.659 1279.43L260.902 1274.67L260.902 1274.67L258.659 1279.43ZM336.777 1294.01C338.832 1291.96 338.832 1288.63 336.777 1286.57L303.292 1253.09C301.237 1251.03 297.906 1251.03 295.851 1253.09C293.796 1255.14 293.796 1258.47 295.851 1260.53L325.615 1290.29L295.851 1320.06C293.796 1322.11 293.796 1325.44 295.851 1327.5C297.906 1329.55 301.237 1329.55 303.292 1327.5L336.777 1294.01ZM225.561 1216.98C220.333 1216.39 220.333 1216.39 220.332 1216.39C220.332 1216.4 220.332 1216.4 220.332 1216.4C220.331 1216.41 220.33 1216.41 220.33 1216.42C220.329 1216.43 220.327 1216.44 220.325 1216.46C220.322 1216.49 220.317 1216.54 220.312 1216.59C220.301 1216.7 220.287 1216.86 220.271 1217.05C220.239 1217.43 220.2 1217.98 220.165 1218.66C220.096 1220.03 220.046 1221.98 220.113 1224.36C220.247 1229.1 220.846 1235.64 222.728 1242.81C226.501 1257.18 235.539 1274.35 256.416 1284.19L260.902 1274.67C243.664 1266.55 236.153 1252.5 232.906 1240.13C231.277 1233.93 230.749 1228.22 230.632 1224.06C230.574 1221.99 230.618 1220.32 230.675 1219.19C230.704 1218.62 230.735 1218.2 230.758 1217.92C230.769 1217.78 230.779 1217.68 230.784 1217.62C230.787 1217.59 230.789 1217.57 230.79 1217.56C230.791 1217.56 230.791 1217.56 230.791 1217.56C230.791 1217.56 230.791 1217.56 230.791 1217.56C230.79 1217.56 230.79 1217.56 230.79 1217.57C230.79 1217.57 230.79 1217.57 225.561 1216.98ZM256.416 1284.19C268.885 1290.07 288.358 1292.82 304.045 1294.18C312.022 1294.87 319.258 1295.21 324.5 1295.38C327.122 1295.47 329.25 1295.51 330.728 1295.53C331.467 1295.54 332.043 1295.55 332.438 1295.55C332.635 1295.55 332.787 1295.55 332.891 1295.55C332.943 1295.55 332.983 1295.55 333.01 1295.55C333.024 1295.55 333.035 1295.55 333.043 1295.55C333.047 1295.55 333.05 1295.55 333.052 1295.55C333.053 1295.55 333.054 1295.55 333.055 1295.55C333.056 1295.55 333.057 1295.55 333.057 1290.29C333.057 1285.03 333.057 1285.03 333.057 1285.03C333.057 1285.03 333.057 1285.03 333.056 1285.03C333.056 1285.03 333.054 1285.03 333.052 1285.03C333.047 1285.03 333.039 1285.03 333.028 1285.03C333.006 1285.03 332.972 1285.03 332.926 1285.03C332.835 1285.03 332.695 1285.03 332.511 1285.03C332.142 1285.03 331.592 1285.02 330.882 1285.01C329.461 1284.99 327.397 1284.95 324.844 1284.86C319.736 1284.7 312.693 1284.36 304.951 1283.69C289.199 1282.33 271.474 1279.66 260.902 1274.67L256.416 1284.19Z" fill="black"/>
<defs>
<filter id="filter0_d_1488_147" x="703.693" y="0.749512" width="1196" height="1101" filterUnits="userSpaceOnUse" color-interpolation-filters="sRGB">
<feFlood flood-opacity="0" result="BackgroundImageFix"/>
<feColorMatrix in="SourceAlpha" type="matrix" values="0 0 0 0 0 0 0 0 0 0 0 0 0 0 0 0 0 0 127 0" result="hardAlpha"/>
<feOffset/>
<feGaussianBlur stdDeviation="25"/>
<feComposite in2="hardAlpha" operator="out"/>
<feColorMatrix type="matrix" values="0 0 0 0 0 0 0 0 0 0 0 0 0 0 0 0 0 0 0.25 0"/>
<feBlend mode="normal" in2="BackgroundImageFix" result="effect1_dropShadow_1488_147"/>
<feBlend mode="normal" in="SourceGraphic" in2="effect1_dropShadow_1488_147" result="shape"/>
</filter>
<filter id="filter1_d_1488_147" x="0.951744" y="153.008" width="957.483" height="1134.48" filterUnits="userSpaceOnUse" color-interpolation-filters="sRGB">
<feFlood flood-opacity="0" result="BackgroundImageFix"/>
<feColorMatrix in="SourceAlpha" type="matrix" values="0 0 0 0 0 0 0 0 0 0 0 0 0 0 0 0 0 0 127 0" result="hardAlpha"/>
<feOffset/>
<feGaussianBlur stdDeviation="46.8708"/>
<feComposite in2="hardAlpha" operator="out"/>
<feColorMatrix type="matrix" values="0 0 0 0 0 0 0 0 0 0 0 0 0 0 0 0 0 0 0.25 0"/>
<feBlend mode="normal" in2="BackgroundImageFix" result="effect1_dropShadow_1488_147"/>
<feBlend mode="normal" in="SourceGraphic" in2="effect1_dropShadow_1488_147" result="shape"/>
</filter>
<filter id="filter2_d_1488_147" x="141.133" y="42.5992" width="227.301" height="227.301" filterUnits="userSpaceOnUse" color-interpolation-filters="sRGB">
<feFlood flood-opacity="0" result="BackgroundImageFix"/>
<feColorMatrix in="SourceAlpha" type="matrix" values="0 0 0 0 0 0 0 0 0 0 0 0 0 0 0 0 0 0 127 0" result="hardAlpha"/>
<feOffset/>
<feGaussianBlur stdDeviation="24.5751"/>
<feComposite in2="hardAlpha" operator="out"/>
<feColorMatrix type="matrix" values="0 0 0 0 0 0 0 0 0 0 0 0 0 0 0 0 0 0 0.25 0"/>
<feBlend mode="normal" in2="BackgroundImageFix" result="effect1_dropShadow_1488_147"/>
<feBlend mode="normal" in="SourceGraphic" in2="effect1_dropShadow_1488_147" result="shape"/>
</filter>
<filter id="filter3_d_1488_147" x="291.074" y="42.5992" width="227.301" height="227.301" filterUnits="userSpaceOnUse" color-interpolation-filters="sRGB">
<feFlood flood-opacity="0" result="BackgroundImageFix"/>
<feColorMatrix in="SourceAlpha" type="matrix" values="0 0 0 0 0 0 0 0 0 0 0 0 0 0 0 0 0 0 127 0" result="hardAlpha"/>
<feOffset/>
<feGaussianBlur stdDeviation="24.5751"/>
<feComposite in2="hardAlpha" operator="out"/>
<feColorMatrix type="matrix" values="0 0 0 0 0 0 0 0 0 0 0 0 0 0 0 0 0 0 0.25 0"/>
<feBlend mode="normal" in2="BackgroundImageFix" result="effect1_dropShadow_1488_147"/>
<feBlend mode="normal" in="SourceGraphic" in2="effect1_dropShadow_1488_147" result="shape"/>
</filter>
<filter id="filter4_d_1488_147" x="441.012" y="42.5992" width="227.301" height="227.301" filterUnits="userSpaceOnUse" color-interpolation-filters="sRGB">
<feFlood flood-opacity="0" result="BackgroundImageFix"/>
<feColorMatrix in="SourceAlpha" type="matrix" values="0 0 0 0 0 0 0 0 0 0 0 0 0 0 0 0 0 0 127 0" result="hardAlpha"/>
<feOffset/>
<feGaussianBlur stdDeviation="24.5751"/>
<feComposite in2="hardAlpha" operator="out"/>
<feColorMatrix type="matrix" values="0 0 0 0 0 0 0 0 0 0 0 0 0 0 0 0 0 0 0.25 0"/>
<feBlend mode="normal" in2="BackgroundImageFix" result="effect1_dropShadow_1488_147"/>
<feBlend mode="normal" in="SourceGraphic" in2="effect1_dropShadow_1488_147" result="shape"/>
</filter>
<clipPath id="clip0_1488_147">
<rect x="753.693" y="50.7495" width="1096" height="1001" rx="50" fill="white"/>
</clipPath>
</defs>
</svg>
